<svg width="73.102" height="55.264" viewBox="0 0 19.342 14.622" xmlns="http://www.w3.org/2000/svg"><path d="M38.676 256.53h.186q.74 0 1.388 1.249h.046q.787-.695 1.25-.695.693.116.693.88v.046q0 1.168-1.712 3.424-.335.324-.555.324-2.314-2.036-2.314-3.933.186-1.296 1.018-1.296m-.277 1.249v.138q0 1.4 1.62 3.008h.046q1.434-2.013 1.434-2.915v-.185h-.046q-.313.15-1.064.833h-.186q-.358 0-.786-.972-.405-.463-.694-.463-.324.104-.324.556m-8.237.323q1.62.162 1.62 1.435v.046q0 .764-.602 1.758 1.62 0 1.62 1.204 0 1.4-2.499 2.96-.486.07-.879.51h-.231q-.07 0-.139-.139-.405.046-.509.046-.914 0-1.342-.555v-.231q.035-.139.324-.232.602.278.833.278h.416l.232-.046v-.972q0-2.163-.833-3.702.07-.196.231-.277h.093q.96.22 1.249 4.21v.556q2.314-1.227 2.314-2.499 0-.324-.602-.37h-.231q-.255 0-.648.046-.417-.116-.417-.416 0-.104.648-1.203.185-.278.278-.972 0-.694-.926-.694-1.492 0-3.424 1.758 0 .185-.324.278-.266 0-.323-.37.775-1.377 3.239-2.268zm13.882.047q.509.115.509.74.335-.046.37-.046.51.092.51.509 0 .74-1.944 1.295h-.093q-.3 0-.37-.786.278-1.712 1.018-1.712m-8.977.509q.694.092.694.694v.139q0 1.249-1.527 2.174h-.046q.093.51.463.51h.046q.636 0 1.573-1.157h.14q.323 0 .323.323v.047q0 .474-1.342 1.342-.578.185-.694.185-.914 0-1.342-1.342 0-2.001 1.435-2.915zm8.746.601q-.14.451-.14.602h.047q.37-.093.37-.185-.115 0-.231-.417zm-9.671 1.712q.925-.74.925-1.434v-.185h-.046q-.451 0-.88 1.62m7.773.324q.602.15.602.694.67-.324 1.018-.324.37 0 .509.556 0 .728-1.712 1.712-.347.185-.463.185-.266 0-.694-.972-.046-.312-.046-.509v-.185q.104-1.157.74-1.157zm-.092.833q0 .104-.046.51 0 .219.138.647h.14q.74-.405.971-.694-.486.324-.648.324h-.046q-.463 0-.463-.787zm-1.943 2.406q.786.127.786.74v.093q0 .787-1.295 1.157v.046q0 .162.509.232h.092q.07 0 .648-.278h.139q.058 0 .231.231v.093q0 .486-1.11.694-.66 0-1.018-.51h-.093q-.266.834-.787.834-.37 0-.74-.463-.497 1.11-1.157 1.11-.196 0-.509-.277h-.046q-.335 1.018-1.203 1.018-.336 0-.833-.602-.324 1.296-1.064 1.296-.648 0-.972-1.758-.555 1.064-1.064 1.064-.093.046-.139.046-.486 0-1.296-.786h-.046q0 .046.046.046.047 1.087.047 1.62v.046q-.035.925-.463.925-.278-.104-.278-.324.093-.416.093-.555-.139-2.07-.139-2.406v-.046q.058-.463.463-.463.22 0 1.203 1.064.289.139.37.139h.046q.359 0 .926-2.221l.231-.185h.231q.336 0 .463 2.036.243.971.37.971.266-.52.648-1.85.174-.14.324-.14.335 0 .602 1.065.162.278.37.278h.046q.3 0 .787-1.897.173-.14.324-.14.323 0 .462 1.25l.093.046q.45-.52.833-1.804 0-.139.185-.232h.277q.209 0 .37 1.296l.14.093q.277-.845.6-1.157 0-1.053 1.25-1.435zm-6.2.602q.323.139.323.416 0 .451-.694 1.11h-.278q-.046 0-.324-.37-.277-.185-.277-.555.092-.324.37-.324h.092q.128 0 .278.093.185-.37.51-.37m5.644.648h.047q.601-.209.601-.51h-.092q-.313 0-.556.51" style="font-size:23.6911px;font-family:&quot;Angie's Valentines&quot;;-inkscape-font-specification:&quot;Angie's Valentines&quot;;stroke-width:1.11052" aria-label="K" transform="translate(-26.09 -256.53)"/></svg>