<svg width="578.773" height="63.681" viewBox="0 0 153.134 16.849" xmlns="http://www.w3.org/2000/svg"><path d="M17.465 65.911c1.061-1.892 1.907-4.143 3.742-5.434.646 0 1.305.03 1.922-.2.129-.043.286-.13.358-.258.072-.115-.014-.23-.143-.273-.703-.23-1.936.273-2.48.617-2.051.014-3.872.1-5.564.717a6 6 0 0 0-1.62.946c-.717.645-1.362 1.534-1.348 2.538 0 .573.258 1.147.746 1.462.444.287.975.272 1.462.158a2.9 2.9 0 0 0 1.405-.846c.359-.387.717-1.018.517-1.549a.69.69 0 0 0-.574-.444c-.459-.043-.846.315-1.047.588-.086.114 0 .157.072.071.115-.172.258-.33.473-.458.244-.13.56-.158.803.014.2.143.258.401.23.63-.058.589-.488 1.12-.947 1.449a2.53 2.53 0 0 1-1.52.487c-.53-.014-1.003-.33-1.175-.831-.373-1.118.63-2.294 1.319-2.982 1.706-1.75 4.273-1.836 6.595-1.836-1.878 1.377-3.054 3.484-4.043 5.55-.301.616-.688 1.433-1.104 2.078-.588.918-1.333 1.921-2.437 2.222-.818.215-1.936-.043-2.022-.946a1 1 0 0 1 .115-.545c.258-.459.53-.487.645-.387.086.072 0 .258-.043.287a.59.59 0 0 0 .43-.473c.029-.244-.115-.402-.358-.33-.287.086-.617.401-.803.903-.115.316-.13.688.043.99.286.501.874.716 1.42.73 1.246.015 2.221-.888 2.996-1.763.745-.831 1.333-1.763 1.935-2.882zm5.922-5.993c.043.144-.373.287-.445.316-.315.114-.63.129-.96.143h-.603c.273-.158.56-.287.875-.373.258-.071 1.018-.243 1.133-.086zm-3.585 10.28c-.129-.186.904-1.606 1.19-2.437.172-.645-.344-.889-.86-.602a3.2 3.2 0 0 0-.645.487c-.2.2-.402.445-.574.66.215-.53.344-.89.201-1.119-.2-.3-.63-.057-.86.187-.244.258-.33.373-.473.545-.1.129 0 .157.071.071.172-.2.244-.3.402-.444.086-.086.244-.23.387-.23.287 0-.33.918-.359.961-.372.574-.73 1.147-1.09 1.72-.042.087-.1.144-.1.244 0 .115.072.215.173.273.186.1.344-.015.444-.172.301-.473.588-.904.86-1.391.287-.416.602-.846.96-1.19.23-.23.617-.588.918-.516.115.028.173.1.13.2-.402.89-1.248 1.922-1.262 2.682 0 .172.1.33.258.401.2.072.444 0 .63-.129.402-.272.818-.832 1.19-1.247.316-.373.646-.775.947-1.162.043-.043-.029-.129-.072-.071-.559.702-1.175 1.462-1.792 2.093-.158.158-.545.387-.674.186zm5.592-2.28c-.287.388-.602.746-.903 1.105-.402.458-.832.932-1.377 1.204-.258.115-.573.215-.846.1-.272-.129-.272-.444-.215-.702.1-.43.301-.86.545-1.233.301-.488.731-1.061 1.305-1.219.23-.057.588-.029.63.272.044.244-.33.674-.573.517-.072-.043-.028-.172 0-.201-.129.014-.287.172-.3.315-.015.144.085.258.243.258.186 0 .344-.157.459-.286.215-.273.229-.43.243-.502.086-.588-.774-.545-1.118-.445-.789.23-1.39.832-1.72 1.491-.259.488-.359 1.19-.015 1.664.316.444.946.33 1.362.1.473-.244.875-.645 1.233-1.032a32 32 0 0 0 1.119-1.334c.043-.043-.015-.114-.072-.071zm4.617-6.853c-.273-.086-.603.086-.818.23-.63.43-1.046 1.075-1.448 1.706-1.161 1.907-2.337 3.857-3.04 5.993-.114.43-.286 1.176-.042 1.42.215.214.516.157.76.028.975-.56 1.577-1.563 2.294-2.452.043-.057-.029-.114-.072-.071-.688.86-1.219 1.72-2.093 2.25-.187.101-.545.273-.674.044-.115-.201.358-1.29.616-1.836a51 51 0 0 0 2.38-2.666c.402-.474.789-.961 1.162-1.477.358-.502.717-1.018.975-1.592.129-.272.23-.544.258-.846.028-.258.014-.616-.258-.73zm.129.904c-.115.602-.488 1.147-.803 1.648-.688 1.033-1.491 1.993-2.294 2.925-.387.43-.774.86-1.162 1.276-.071.086-.157.158-.229.244 1.133-2.208 2.237-4.502 3.728-6.48.129-.144.487-.517.688-.273.143.172.1.459.072.66zm-2.036 5.261c-.172.273-.301.488-.46.689-.042.057-.028.086-.013.1a10 10 0 0 0-.689 1.333c-.143.388-.358 1.162.287 1.205.53.043 1.004-.416 1.32-.774.171-.187.329-.373.472-.574-.172.33-.602 1.29.072 1.348.33-.029.56-.215.789-.416.573-.588 1.405-1.606 1.835-2.15.043-.058-.029-.115-.072-.072a26 26 0 0 1-1.792 2.079c-.143.129-.316.272-.488.272-.415.014.043-.66.115-.803.387-.674.875-1.305 1.233-1.993.115-.186-.028-.43-.244-.43-.172 0-.3.172-.387.33-.23.373-.487.788-.702 1.161-.258.402-.545.76-.846 1.104-.258.301-.674.731-1.09.66-.143-.043-.23-.158-.172-.344.23-.775.774-1.406 1.176-2.094.086-.129.2-.3.258-.444.072-.158-.057-.33-.23-.373-.172-.029-.286.057-.372.186zm6.394.674a35 35 0 0 1-1.39 1.678 2.33 2.33 0 0 1-.961.702c.158-.086.301-.2.416-.315.774-.817.272-1.95-.201-2.796.143-.172.315-.358.387-.573.072-.259-.186-.345-.373-.201-.23.2-.243.559-.215.874-.172.201-.387.488-.516.646-.057.071 0 .157.072.071.172-.215.344-.43.459-.588.071.904.372 1.936-.301 2.682-.173.172-.43.33-.689.3-.143-.028-.286-.114-.286-.315 0-.286.33-.487.501-.387.072.043.03.187 0 .215a.41.41 0 0 0 .287-.358c.014-.158-.086-.301-.272-.258-.344.071-.631.487-.602.817.043.573.888.444 1.118.387.358-.086.688-.301.96-.545.56-.516 1.248-1.448 1.678-1.964.043-.057-.029-.115-.072-.072zm-2.15-1.233c.028-.1.129-.272.258-.243.23.057-.273.63-.287.659a.8.8 0 0 1 .029-.416zm5.548 1.248c-.243.33-.717.73-1.118.846.086-.244.158-.517.057-.76-.086-.187-.272-.215-.444-.115-.215.115-.402.401-.33.66.029.114.115.2.215.258-.3.473-.846 1.347-1.333 1.591-.23.1-.545.115-.703-.129s-.057-.574.043-.832c.215-.544.53-1.118.932-1.562.33-.359 1.075-.918 1.506-.545.157.158.172.344.143.53 0 .043.057.072.072.029a.68.68 0 0 0-.13-.645c-.2-.201-.501-.23-.76-.201-.888.086-1.691.746-2.05 1.563-.229.502-.315 1.305.1 1.735.402.415 1.09.172 1.492-.1a3.4 3.4 0 0 0 1.147-1.363c.459-.086.946-.53 1.233-.889.057-.071-.043-.114-.072-.071zm-1.735.616c-.071-.2.072-.473.273-.545.373-.143-.072.703-.1.746a.4.4 0 0 1-.173-.2zm7.198-.616-.158.2c-.157.187-.3.373-.459.56-.344.387-.716.788-1.118 1.118-.344.272-.788.588-1.247.516-.631-.158-.301-.932-.144-1.333.258.014.588-.015.818-.072.788-.215 1.204-.602 1.376-.832.186-.258.23-.588.043-.788a.75.75 0 0 0-.43-.23c-.072-.014-.43-.071-.975.201a3.2 3.2 0 0 0-1.29 1.219c-.359.616-.46 1.462.028 1.892.373.33.903.172 1.29-.043.976-.559 1.65-1.476 2.338-2.337.043-.057-.029-.114-.072-.071zm-2.18-.387c.201-.187.474-.388.76-.373.1 0 .187.043.23.086.272.287-.488 1.534-1.448 1.606a4 4 0 0 1-.445.028c.215-.502.545-.946.904-1.347zm4.202 2.666c-.13-.186.903-1.606 1.19-2.437.172-.645-.345-.889-.86-.602a3.2 3.2 0 0 0-.646.487c-.2.2-.401.445-.573.66.215-.53.344-.89.2-1.119-.2-.3-.63-.057-.86.187-.244.258-.33.373-.473.545-.1.129 0 .157.072.071.172-.2.243-.3.401-.444.086-.086.244-.23.387-.23.287 0-.33.918-.358.961-.373.574-.731 1.147-1.09 1.72-.043.087-.1.144-.1.244 0 .115.071.215.172.273.186.1.344-.015.444-.172.301-.473.588-.904.86-1.391.287-.416.603-.846.961-1.19.23-.23.617-.588.918-.516.114.028.172.1.129.2-.402.89-1.248 1.922-1.262 2.682 0 .172.1.33.258.401.2.072.445 0 .631-.129.401-.272.817-.832 1.19-1.247a38 38 0 0 0 .946-1.162c.043-.043-.028-.129-.071-.071-.56.702-1.176 1.462-1.793 2.093-.157.158-.544.387-.673.186zm8.96-2.466c-.43.832-1.103 1.72-1.118 2.395 0 .172.1.33.258.401.201.072.445 0 .631-.129.402-.272.817-.832 1.19-1.247.316-.373.645-.775.946-1.162.043-.043-.028-.129-.071-.071-.56.702-1.176 1.462-1.792 2.093-.158.158-.545.387-.674.186-.13-.186.946-1.591 1.19-2.437.057-.215.057-.387-.029-.545-.315-.473-1.104.172-1.376.445-.187.172-.344.372-.502.559.186-.402.387-1.004-.086-1.162-.287-.071-.56.144-.76.316-.344.3-.63.702-.903 1.09.186-.373.473-.932.272-1.262-.215-.344-.66-.029-.86.172a10 10 0 0 0-.473.545c-.086.114.014.143.071.071.13-.172.258-.3.402-.444.1-.086.258-.273.387-.244.2.086-.258.817-.359.975-.372.602-.716 1.161-1.075 1.72-.057.087-.1.158-.1.259 0 .114.057.215.158.272.2.1.358-.014.458-.172.402-.674.832-1.319 1.29-1.95.201-.272.402-.602.66-.831.1-.087.602-.531.688-.244 0 .2-.129.459-.215.63-.143.259-.286.502-.444.76-.258.445-.516.89-.731 1.348-.086.172-.072.387.129.473.172.058.33-.014.416-.172.272-.516.544-1.046.817-1.562.272-.43.573-.86.96-1.205.187-.158.502-.43.746-.33.129.058-.043.345-.1.46zm3.04-1.663c.158.072.344 0 .43-.172.086-.186.043-.373-.114-.459-.144-.071-.345.015-.416.172-.1.172-.043.387.1.46zm.875 1.921c.043-.043-.029-.129-.072-.071-.56.702-1.176 1.462-1.792 2.093a.9.9 0 0 1-.373.23c-.33.071-.315-.158-.215-.36.358-.73.832-1.476 1.219-2.178.071-.115.172-.316.172-.388 0-.2-.215-.33-.402-.243-.086.043-.157.143-.215.258-.143.23-.272.416-.401.588-.072.1.014.129.057.086-.315.616-.66 1.276-.903 1.892-.058.187-.072.43.086.574.2.157.487.071.645-.029.416-.272.86-.86 1.247-1.29.316-.373.646-.775.947-1.162zm2.781-.086c-.33.43-.99 1.233-1.39 1.678a2.33 2.33 0 0 1-.961.702c.158-.086.3-.2.416-.315.774-.817.272-1.95-.201-2.796.143-.172.315-.358.387-.573.072-.259-.186-.345-.373-.201-.23.2-.244.559-.215.874-.172.201-.387.488-.516.646-.057.071 0 .157.072.071.172-.215.344-.43.459-.588.071.904.372 1.936-.302 2.682-.172.172-.43.33-.688.3-.143-.028-.287-.114-.287-.315 0-.286.33-.487.502-.387.072.043.029.187 0 .215a.41.41 0 0 0 .287-.358c.014-.158-.086-.301-.272-.258-.344.071-.631.487-.603.817.043.573.89.444 1.119.387.358-.086.688-.301.96-.545.56-.516 1.248-1.448 1.678-1.964.043-.057-.029-.115-.072-.072zm-2.15-1.233c.028-.1.129-.272.258-.243.229.057-.273.63-.287.659a.8.8 0 0 1 .029-.416zm7.326 1.233c-.33.43-.99 1.233-1.39 1.678a2.34 2.34 0 0 1-.961.702c.157-.086.3-.2.415-.315.775-.817.273-1.95-.2-2.796.143-.172.315-.358.387-.573.072-.259-.187-.345-.373-.201-.23.2-.244.559-.215.874-.172.201-.387.488-.516.646-.057.071 0 .157.072.071.172-.215.344-.43.458-.588.072.904.373 1.936-.3 2.682-.173.172-.43.33-.689.3-.143-.028-.287-.114-.287-.315 0-.286.33-.487.502-.387.072.043.029.187 0 .215a.41.41 0 0 0 .287-.358c.014-.158-.086-.301-.273-.258-.344.071-.63.487-.602.817.043.573.89.444 1.119.387.358-.086.688-.301.96-.545.56-.516 1.248-1.448 1.678-1.964.043-.057-.029-.115-.072-.072zm-2.15-1.233c.028-.1.128-.272.258-.243.229.057-.273.63-.287.659a.8.8 0 0 1 .028-.416zm2.595.56c-.173.272-.302.487-.46.688-.042.057-.028.086-.014.1a10 10 0 0 0-.688 1.333c-.143.388-.358 1.162.287 1.205.53.043 1.004-.416 1.319-.774a6 6 0 0 0 .473-.574c-.172.33-.602 1.29.072 1.348.33-.029.559-.215.788-.416.574-.588 1.405-1.606 1.836-2.15.043-.058-.03-.115-.072-.072a26 26 0 0 1-1.792 2.079c-.144.129-.316.272-.488.272-.416.014.043-.66.115-.803.387-.674.875-1.305 1.233-1.993.115-.186-.029-.43-.244-.43-.172 0-.3.172-.387.33-.23.373-.487.788-.702 1.161-.258.402-.545.76-.846 1.104-.258.301-.674.731-1.09.66-.143-.043-.23-.158-.172-.344.23-.775.774-1.406 1.176-2.094.086-.129.2-.3.258-.444.071-.158-.058-.33-.23-.373-.172-.029-.286.057-.372.186zm6.667.688-.158.2c-.158.187-.301.373-.459.56-.344.387-.717.788-1.118 1.118-.344.272-.789.588-1.248.516-.63-.158-.3-.932-.143-1.333.258.014.588-.015.817-.072.789-.215 1.205-.602 1.377-.832.186-.258.229-.588.043-.788a.75.75 0 0 0-.43-.23c-.072-.014-.43-.071-.976.201a3.2 3.2 0 0 0-1.29 1.219c-.358.616-.459 1.462.029 1.892.373.33.903.172 1.29-.043.975-.559 1.649-1.476 2.337-2.337.043-.057-.028-.114-.071-.071zm-2.18-.387c.2-.187.473-.388.76-.373.1 0 .186.043.23.086.272.287-.488 1.534-1.449 1.606a4 4 0 0 1-.444.028c.215-.502.545-.946.903-1.347zm3.599-1.004c-.029.043-.014.086.029.029.1-.13.229-.273.401-.345.402-.157.803.33 1.262.216.2-.043.373-.216.487-.373.029-.072.115-.244.058-.201-.058.057-.1.1-.187.172-.172.13-.373.158-.602.115-.358-.086-.76-.33-1.118-.086-.172.1-.258.3-.33.473zm.602 3.67c-.129-.186.903-1.606 1.19-2.437.172-.645-.344-.889-.86-.602a3.2 3.2 0 0 0-.645.487c-.201.2-.402.445-.574.66.215-.53.344-.89.2-1.119-.2-.3-.63-.057-.86.187-.243.258-.33.373-.472.545-.1.129 0 .157.071.071.172-.2.244-.3.402-.444.086-.086.243-.23.387-.23.287 0-.33.918-.359.961-.372.574-.73 1.147-1.09 1.72-.042.087-.1.144-.1.244 0 .115.072.215.172.273.187.1.344-.015.445-.172.3-.473.588-.904.86-1.391.287-.416.602-.846.96-1.19.23-.23.617-.588.918-.516.115.028.172.1.13.2-.402.89-1.248 1.922-1.262 2.682 0 .172.1.33.258.401.2.072.444 0 .63-.129.402-.272.818-.832 1.19-1.247.316-.373.646-.775.947-1.162.043-.043-.029-.129-.072-.071-.559.702-1.175 1.462-1.792 2.093-.158.158-.545.387-.674.186zm5.879-2.28c-.244.33-.717.732-1.119.847.086-.244.158-.517.058-.76-.086-.187-.273-.215-.445-.115-.215.115-.401.401-.33.66.029.114.115.2.215.258-.3.473-.846 1.347-1.333 1.591-.23.1-.545.115-.703-.129s-.057-.574.043-.832c.216-.544.53-1.118.932-1.562.33-.359 1.076-.918 1.506-.545.158.158.172.344.143.53 0 .043.058.072.072.029a.68.68 0 0 0-.13-.645c-.2-.201-.5-.23-.759-.201-.889.086-1.692.746-2.05 1.563-.23.502-.316 1.305.1 1.735.402.415 1.09.172 1.491-.1a3.4 3.4 0 0 0 1.147-1.363c.459-.086.946-.53 1.233-.889.058-.071-.043-.114-.071-.071zm-1.735.617c-.072-.2.071-.473.272-.545.373-.143-.072.703-.1.746a.4.4 0 0 1-.172-.2zm4.588-.63c-.33.43-.99 1.232-1.391 1.677a2.3 2.3 0 0 1-.96.702c.157-.086.3-.2.415-.315.774-.817.273-1.95-.2-2.796.143-.172.315-.358.387-.573.071-.259-.187-.345-.373-.201-.23.2-.244.559-.215.874-.172.201-.387.488-.516.646-.058.071 0 .157.071.071.172-.215.344-.43.459-.588.072.904.373 1.936-.301 2.682-.172.172-.43.33-.688.3-.144-.028-.287-.114-.287-.315 0-.286.33-.487.502-.387.071.043.028.187 0 .215a.41.41 0 0 0 .287-.358c.014-.158-.086-.301-.273-.258-.344.071-.63.487-.602.817.043.573.889.444 1.118.387.359-.086.689-.301.96-.545.56-.516 1.248-1.448 1.678-1.964.043-.057-.028-.115-.071-.072zm-2.15-1.234c.028-.1.128-.272.257-.243.23.057-.272.63-.287.659a.8.8 0 0 1 .03-.416zm2.551 4.502c.316-.1.86-.559.832-1.003a.275.275 0 0 0-.215-.23c-.215-.043-.43.144-.373.373.2.387-.1.66-.244.86zm6.997-.975c-.13-.186.903-1.606 1.19-2.437.172-.645-.344-.889-.86-.602a3.2 3.2 0 0 0-.646.487c-.2.2-.401.445-.573.66.215-.53.344-.89.2-1.119-.2-.3-.63-.057-.86.187-.243.258-.33.373-.473.545-.1.129 0 .157.072.071.172-.2.244-.3.401-.444.086-.086.244-.23.388-.23.286 0-.33.918-.359.961-.373.574-.731 1.147-1.09 1.72-.043.087-.1.144-.1.244 0 .115.072.215.172.273.187.1.344-.015.445-.172.3-.473.587-.904.86-1.391.287-.416.602-.846.96-1.19.23-.23.617-.588.918-.516.115.028.172.1.13.2-.402.89-1.248 1.922-1.263 2.682 0 .172.1.33.259.401.2.072.444 0 .63-.129.402-.272.818-.832 1.19-1.247.316-.373.646-.775.947-1.162.043-.043-.029-.129-.072-.071-.56.702-1.176 1.462-1.792 2.093-.158.158-.545.387-.674.186zm5.878-2.28c-.243.33-.717.732-1.118.847.086-.244.158-.517.057-.76-.086-.187-.272-.215-.444-.115-.215.115-.402.401-.33.66.029.114.115.2.215.258-.3.473-.846 1.347-1.333 1.591-.23.1-.545.115-.703-.129s-.057-.574.043-.832c.215-.544.53-1.118.932-1.562.33-.359 1.076-.918 1.506-.545.157.158.172.344.143.53 0 .043.057.072.072.029a.68.68 0 0 0-.13-.645c-.2-.201-.501-.23-.76-.201-.888.086-1.691.746-2.05 1.563-.229.502-.315 1.305.1 1.735.402.415 1.09.172 1.492-.1a3.4 3.4 0 0 0 1.147-1.363c.459-.086.946-.53 1.233-.889.057-.071-.043-.114-.072-.071zm-1.735.617c-.071-.2.072-.473.273-.545.373-.143-.072.703-.1.746a.4.4 0 0 1-.173-.2zm6.596 1.176c-.688.688-.86.444-.688 0 .516-1.305 1.261-2.538 1.92-3.771a79 79 0 0 1 2.696-4.488c.13-.2-.086-.458-.3-.33-.087.044-.13.144-.187.216a60 60 0 0 0-3.785 6.394.7.7 0 0 0-.072-.416c-.143-.258-.473-.3-.746-.258-.587.1-1.147.545-1.534.99-.358.43-.616.975-.645 1.534-.014.3.043.645.287.846.23.172.53.143.774.043.488-.201.803-.602 1.118-1.018-.086.344-.215.803.072 1.06.301.201.774-.3 1.004-.544a33 33 0 0 0 1.663-1.979c.043-.057-.029-.114-.072-.071-.387.516-.99 1.218-1.505 1.792zm-.56-1.563-.53 1.047c-.272.43-.63.889-1.118 1.09a.9.9 0 0 1-.43.042c-.258-.057-.287-.315-.258-.53.143-.832 1.175-2.567 2.05-2.567.516 0 .43.631.287.918zm5.19-.23-.157.201c-.158.187-.301.373-.459.56-.344.387-.717.788-1.118 1.118-.344.272-.789.588-1.247.516-.631-.158-.301-.932-.144-1.333.258.014.588-.015.817-.072.79-.215 1.205-.602 1.377-.832.186-.258.23-.588.043-.788a.75.75 0 0 0-.43-.23c-.072-.014-.43-.071-.975.201a3.2 3.2 0 0 0-1.29 1.219c-.359.616-.46 1.462.028 1.892.373.33.903.172 1.29-.043.975-.559 1.65-1.476 2.338-2.337.043-.057-.03-.114-.072-.071zm-2.178-.386c.2-.187.473-.388.76-.373.1 0 .186.043.229.086.272.287-.488 1.534-1.448 1.606a4 4 0 0 1-.445.028c.215-.502.545-.946.904-1.347zm4.874.387c-.73.917-1.49 1.864-2.48 2.48a15.5 15.5 0 0 0 1.161-2.28c.115-.344.344-1.046-.215-1.075-.23-.014-.545.244-.745.416a3 3 0 0 0-.416.459c-.072.086 0 .157.072.071.157-.186.243-.315.444-.458a.8.8 0 0 1 .315-.158c.416-.1.13.43.043.616-.516.96-1.09 2.022-1.591 2.997-1.032.674-2.108 1.305-2.91 2.265-.474.56-.961 1.262-1.09 1.993-.058.273-.058.617.143.832.2.2.53.172.817.043.53-.273.918-.746 1.29-1.19.746-1.004 1.363-2.108 1.95-3.198.201-.372.388-.745.589-1.118 1.075-.645 1.906-1.649 2.695-2.624.043-.086-.043-.1-.072-.071zm-5.95 7.44c-.172.23-.344.503-.602.646-.244.115-.602.158-.731-.143-.187-.545.115-1.119.358-1.592a7 7 0 0 1 1.549-1.82c.588-.474 1.233-.89 1.878-1.277-.803 1.491-1.649 3.025-2.452 4.187zm4.803-9.304c.158.071.344 0 .43-.172.086-.187.043-.373-.114-.46-.144-.07-.344.015-.416.173-.1.172-.043.387.1.459zm4.56 1.864c-.244.33-.717.73-1.119.846.086-.244.158-.517.058-.76-.086-.187-.273-.215-.445-.115-.215.115-.401.401-.33.66.03.114.115.2.215.258-.3.473-.845 1.347-1.333 1.591-.23.1-.545.115-.702-.129-.158-.244-.058-.574.043-.832.215-.544.53-1.118.931-1.562.33-.359 1.076-.918 1.506-.545.158.158.172.344.143.53 0 .043.058.072.072.029a.68.68 0 0 0-.129-.645c-.2-.201-.502-.23-.76-.201-.889.086-1.692.746-2.05 1.563-.23.502-.316 1.305.1 1.735.402.415 1.09.172 1.491-.1a3.4 3.4 0 0 0 1.147-1.363c.46-.086.947-.53 1.233-.889.058-.071-.043-.114-.071-.071zm-1.735.616c-.072-.2.072-.473.272-.545.373-.143-.071.703-.1.746a.4.4 0 0 1-.172-.2zm6.595 1.176c-.688.688-.86.444-.688 0 .516-1.305 1.262-2.538 1.921-3.771a79 79 0 0 1 2.696-4.488c.129-.2-.086-.458-.301-.33-.086.044-.13.144-.187.216a60 60 0 0 0-3.785 6.394.7.7 0 0 0-.072-.416c-.143-.258-.473-.3-.745-.258-.588.1-1.147.545-1.534.99-.359.43-.617.975-.646 1.534-.014.3.043.645.287.846.23.172.53.143.774.043.488-.201.803-.602 1.119-1.018-.086.344-.215.803.071 1.06.302.201.775-.3 1.004-.544a33 33 0 0 0 1.663-1.979c.043-.057-.028-.114-.071-.071-.388.516-.99 1.218-1.506 1.792zm-.559-1.563-.53 1.047c-.273.43-.631.889-1.119 1.09a.9.9 0 0 1-.43.042c-.258-.057-.287-.315-.258-.53.143-.832 1.176-2.567 2.05-2.567.516 0 .43.631.287.918zm5.19-.23-.158.201c-.157.187-.3.373-.458.56-.344.387-.717.788-1.119 1.118-.344.272-.788.588-1.247.516-.63-.158-.301-.932-.143-1.333.258.014.587-.015.817-.072.788-.215 1.204-.602 1.376-.832.187-.258.23-.588.043-.788a.75.75 0 0 0-.43-.23c-.072-.014-.43-.071-.975.201a3.2 3.2 0 0 0-1.29 1.219c-.359.616-.46 1.462.028 1.892.373.33.904.172 1.29-.043.976-.559 1.65-1.476 2.338-2.337.043-.057-.029-.114-.072-.071zm-2.18-.386c.202-.187.474-.388.76-.373.101 0 .187.043.23.086.273.287-.487 1.534-1.448 1.606a4 4 0 0 1-.444.028c.215-.502.544-.946.903-1.347zm4.532.559c-.144.286-.302.588-.445.874-1.032 1.993-2.495 4.86-3.556 6.796-.043.086-.1.172-.086.273.03.23.33.272.43.086.058-.086.1-.172.158-.258 1.32-2.309 2.48-4.66 3.7-6.897.286-.416.601-.846.96-1.19.23-.23.616-.588.918-.516.114.029.172.1.129.2-.158.531-1.936 2.639-1.004 3.07.272.1.573-.073.774-.245.789-.645 1.434-1.548 2.05-2.294.043-.057-.028-.114-.071-.071a22 22 0 0 1-1.047 1.261c-.172.172-1.276 1.506-1.477 1.004-.086-.2.904-1.563 1.19-2.409.058-.2.086-.473-.057-.602-.459-.401-1.176.23-1.448.488-.2.2-.387.444-.56.645.015-.043.201-.43.316-.674.057-.115.13-.258.13-.316 0-.2-.216-.33-.402-.243-.086.043-.158.143-.215.258-.144.23-.273.416-.402.588-.071.1 0 .129.058.086zm7.082-.172-.157.2c-.158.187-.301.373-.46.56-.343.387-.716.788-1.118 1.118-.344.272-.788.588-1.247.516-.63-.158-.301-.932-.143-1.333.258.014.588-.015.817-.072.789-.215 1.204-.602 1.376-.832.187-.258.23-.588.043-.788a.75.75 0 0 0-.43-.23c-.071-.014-.43-.071-.975.201a3.2 3.2 0 0 0-1.29 1.219c-.359.616-.459 1.462.029 1.892.372.33.903.172 1.29-.043.975-.559 1.649-1.476 2.337-2.337.043-.057-.029-.114-.072-.071zm-2.179-.387c.2-.187.473-.388.76-.373.1 0 .186.043.23.086.272.287-.488 1.534-1.449 1.606a4 4 0 0 1-.444.028c.215-.502.545-.946.903-1.347zm4.2 2.666c-.128-.186.904-1.606 1.19-2.437.173-.645-.343-.889-.86-.602a3.2 3.2 0 0 0-.645.487c-.2.2-.401.445-.573.66.215-.53.344-.89.2-1.119-.2-.3-.63-.057-.86.187-.243.258-.33.373-.473.545-.1.129 0 .157.072.071.172-.2.244-.3.401-.444.086-.086.244-.23.388-.23.286 0-.33.918-.359.961-.373.574-.731 1.147-1.09 1.72-.043.087-.1.144-.1.244 0 .115.072.215.172.273.187.1.344-.015.445-.172.3-.473.587-.904.86-1.391.287-.416.602-.846.96-1.19.23-.23.617-.588.918-.516.115.028.172.1.13.2-.402.89-1.248 1.922-1.263 2.682 0 .172.1.33.259.401.2.072.444 0 .63-.129.402-.272.818-.832 1.19-1.247.316-.373.646-.775.947-1.162.043-.043-.029-.129-.072-.071-.56.702-1.176 1.462-1.792 2.093-.158.158-.545.387-.674.186zm5.32-2.294c-.33.43-.99 1.233-1.39 1.678a2.33 2.33 0 0 1-.961.702c.158-.086.3-.2.416-.315.774-.817.272-1.95-.201-2.796.143-.172.315-.358.387-.573.072-.259-.186-.345-.373-.201-.23.2-.244.559-.215.874-.172.201-.387.488-.516.646-.057.071 0 .157.072.071.172-.215.344-.43.458-.588.072.904.373 1.936-.3 2.682-.173.172-.43.33-.689.3-.143-.028-.287-.114-.287-.315 0-.286.33-.487.502-.387.072.043.029.187 0 .215a.41.41 0 0 0 .287-.358c.014-.158-.086-.301-.272-.258-.345.071-.631.487-.603.817.043.573.89.444 1.119.387.358-.086.688-.301.96-.545.56-.516 1.248-1.448 1.678-1.964.043-.057-.029-.115-.072-.072zm-2.15-1.233c.028-.1.129-.272.258-.243.229.057-.273.63-.287.659a.8.8 0 0 1 .029-.416zm4.43 3.327c-.459.387-.774.3-.588-.13a10 10 0 0 1 .617-1.032c.229-.373.473-.76.702-1.132.086-.158.115-.359-.057-.474a.3.3 0 0 0-.416.1 23 23 0 0 0-.387.617c.043-.215.057-.43-.043-.63-.144-.259-.473-.302-.746-.259-.588.1-1.118.488-1.505.932-.359.43-.66 1.033-.688 1.592-.015.3.043.645.286.846.23.172.53.143.775.043.458-.187.803-.602 1.09-.99-.144.345-.302.818.042 1.018.316.172.66-.086.947-.358.573-.588 1.405-1.606 1.835-2.15.043-.058-.029-.115-.072-.072a26 26 0 0 1-1.792 2.079zm-1.979.286c-.129.043-.286.072-.43.043-.258-.057-.287-.315-.258-.53.143-.817.731-1.692 1.29-2.18.201-.186.474-.387.775-.387.387 0 .458.445.387.746-.1.33-.445.875-.631 1.176-.272.43-.645.932-1.133 1.132zm6.768-2.365c-.502.645-1.377 1.792-2.108 2.308-.13.086-.33.2-.473.143-.144-.071.043-.458.115-.573.33-.574.702-1.147 1.104-1.678.086-.114.172-.243.272-.358a.28.28 0 0 0 .029-.316.32.32 0 0 0-.258-.143c-.115.014-.23.072-.33.115-.287.1-.631.143-.932.043.115-.215.244-.488.158-.703-.058-.129-.201-.1-.287-.014a.66.66 0 0 0-.158.315c-.029.187 0 .344.143.46-.1.157-.186.286-.272.4-.072.101.014.144.072.072.071-.1.186-.243.287-.43.243.144.516.158.788.215a7 7 0 0 0-.788 1.262c-.158.315-.574 1.348-.03 1.505.23.086.488-.086.675-.229.702-.56 1.548-1.692 2.064-2.323.043-.057-.028-.114-.071-.071zm-2.667-.502c-.144-.115-.144-.301-.086-.445.014-.043.143-.272.23-.2.143.143-.072.53-.144.645zm8.13.502-.158.2c-.158.187-.302.373-.46.56-.343.387-.716.788-1.118 1.118-.344.272-.788.588-1.247.516-.63-.158-.301-.932-.143-1.333.258.014.587-.015.817-.072.788-.215 1.204-.602 1.376-.832.187-.258.23-.588.043-.788a.75.75 0 0 0-.43-.23c-.072-.014-.43-.071-.975.201a3.2 3.2 0 0 0-1.29 1.219c-.359.616-.459 1.462.029 1.892.372.33.903.172 1.29-.043.975-.559 1.649-1.476 2.337-2.337.043-.057-.029-.114-.072-.071zm-2.18-.387c.2-.187.473-.388.76-.373.1 0 .186.043.23.086.272.287-.488 1.534-1.449 1.606a4 4 0 0 1-.444.028c.215-.502.544-.946.903-1.347zm4.2 2.666c-.128-.186.904-1.606 1.19-2.437.173-.645-.343-.889-.86-.602a3.2 3.2 0 0 0-.645.487c-.2.2-.401.445-.573.66.215-.53.344-.89.2-1.119-.2-.3-.63-.057-.86.187-.243.258-.33.373-.473.545-.1.129 0 .157.072.071.172-.2.244-.3.401-.444.086-.086.244-.23.387-.23.287 0-.33.918-.358.961-.373.574-.731 1.147-1.09 1.72-.043.087-.1.144-.1.244 0 .115.072.215.172.273.186.1.344-.015.445-.172.3-.473.587-.904.86-1.391.287-.416.602-.846.96-1.19.23-.23.617-.588.918-.516.115.028.172.1.13.2-.402.89-1.248 1.922-1.263 2.682 0 .172.1.33.258.401.201.072.445 0 .631-.129.402-.272.818-.832 1.19-1.247.316-.373.646-.775.947-1.162.043-.043-.03-.129-.072-.071-.56.702-1.176 1.462-1.792 2.093-.158.158-.545.387-.674.186zm9.937-5.993c-.402.158-.846.158-1.276.158-.402-.014-.803-.043-1.219-.057.502-.86 1.004-1.735 1.534-2.581.058-.1.158-.273.187-.344.086-.23-.287-.387-.43-.187-.66 1.018-1.32 2.05-1.95 3.097-.545 0-1.104.043-1.635.215-.043.029-.014.086.029.072.487-.086 1.003-.1 1.49-.086-.745 1.219-1.462 2.452-2.05 3.728-.243.53-.501 1.09-.587 1.663-.029.215-.043.53.186.645.172.086.43-.029.516-.1.258-.201.43-.402.631-.617a38 38 0 0 0 1.549-1.82c.043-.044-.03-.13-.072-.072-.56.688-1.118 1.376-1.735 1.993-.129.114-.258.243-.416.315-.444.2.1-1.032.144-1.133a46 46 0 0 1 2.494-4.588c.86-.014 1.85.172 2.653-.243.115-.072.072-.115-.043-.058zm-1.893 1.864c.158.072.344 0 .43-.172.086-.186.043-.373-.114-.459-.144-.071-.344.015-.416.172-.1.172-.043.387.1.46zm.875 1.921c.043-.043-.029-.129-.072-.071-.559.702-1.176 1.462-1.792 2.093a.9.9 0 0 1-.373.23c-.33.071-.315-.158-.215-.36.359-.73.832-1.476 1.219-2.178.071-.115.172-.316.172-.388 0-.2-.215-.33-.402-.243-.086.043-.157.143-.215.258-.143.23-.272.416-.401.588-.072.1.014.129.057.086-.315.616-.66 1.276-.903 1.892-.057.187-.072.43.086.574.2.157.487.071.645-.029.416-.272.86-.86 1.247-1.29.316-.373.646-.775.947-1.162z" style="font-size:14.3376px;font-family:Darleston;-inkscape-font-specification:Darleston;fill:#000;stroke:#000;stroke-width:.299;stroke-dasharray:none;stroke-opacity:.535469" aria-label="Incluso en mis sueños, no dejo de pensar en ti" transform="translate(-10.834 -59.537)"/></svg>