<svg width="372.282" height="66.452" viewBox="0 0 98.499 17.582" xmlns="http://www.w3.org/2000/svg"><path style="-inkscape-font-specification:&quot;Fiolex Girls&quot;;stroke-width:8.92184" d="M62.762 246.558q2.257.721 3.41.965 1.151.256 1.93.256 2.119 0 3.329-1.268 1.198-1.257 1.198-3.514 0-2.258-1.175-4.352-1.198-2.06-3.444-3.724l-.291.955q-1.385 4.654-2.467 6.935-1.082 2.269-2.49 3.747m-2.118 1q-.85-.29-1.699-.465-.86-.163-1.536-.163-1.012 0-1.652.256-.605.268-.605.675 0 .384.57.605.582.244 1.536.233.93 0 1.769-.28.872-.302 1.617-.86m.745.256q-.966.64-1.955.954-1 .326-2.025.326-1.35 0-2.117-.395-.757-.396-.757-1.117 0-.792 1.013-1.327 1.024-.535 2.64-.535.827 0 1.781.128.908.128 1.862.384 1.082-1.478 2.21-4.038 1.153-2.583 2.13-5.795l.698-2.257q-2-1.14-3.525-1.699-1.594-.547-2.84-.547-1.14 0-1.768.466-.663.477-.663 1.233 0 .838.78 1.873.732 1.024 2.338 2.27l-1.478.476q-1.28-1.14-1.931-2.199-.64-1.024-.64-1.896 0-1.222 1.012-1.909.99-.698 2.804-.698 1.269 0 2.805.454 1.547.454 3.293 1.315l.314-.954 1.42-.384-.5 1.978q2.71 1.687 4.165 3.758 1.443 2.071 1.443 4.294 0 2.944-2.141 4.887-2.141 1.967-5.365 1.967-.977 0-2.304-.245-1.14-.22-2.7-.768m-2.153-7.552q.861-1.408 2.537-.768.756.35 1.175 1.071.43.71.163 1.454-.035.117-.21.5-.174.385-.698.594-1.28.524-2.734.861-1.443.326-2.35 1.234.104-1.257-.64-2.514-.734-1.256-1.187-2.513-.187-.524-.082-.884.093-.373.151-.547.326-.722 1.117-.931.792-.221 1.56.093.768.349 1.07 1.012.303.652.128 1.338m12.974-7.319q-.046-.977 1.024-1.21.49-.07.931.151.454.222.57.675.012.07.047.326.047.245-.14.524-.477.698-1.105 1.338-.617.64-.78 1.396-.36-.663-1.152-1.047-.78-.396-1.42-.884-.279-.21-.348-.42-.059-.22-.093-.325-.07-.477.256-.838.337-.372.826-.477 1.047-.14 1.384.791m2.944 10.554 1.467-.14-1.152 4.155q-.047.186-.047.279-.012.128-.035.221 0 .14.082.233.093.093.209.093.198 0 .652-.303.465-.325.86-.79l.245.209q-.663.71-1.245 1.047-.559.314-1.129.326-.512 0-.78-.222-.267-.22-.267-.674.023-.28.116-.64.059-.233.047-.198zm2.072-3.933q.558-.744 1.454-.302.407.244.605.663.198.407.012.815-.023.07-.14.267-.116.198-.419.291-.733.233-1.559.35-.826.115-1.385.57.117-.699-.22-1.432-.338-.733-.536-1.466-.07-.314.012-.5.07-.198.104-.303.49-.838 1.525-.326.872.489.547 1.373m6.074 5.958q-.85 1.676-1.7 2.467-.849.791-1.78.791-.674 0-1.058-.407-.396-.407-.396-1.094 0-1.501 1.326-2.711 1.327-1.222 3.06-1.222.233 0 .408.023.186.024.372.082l-.21.593q-.278-.174-.5-.256-.209-.081-.407-.081-.826 0-1.699 1.187-.872 1.186-.872 2.338 0 .42.174.64.175.222.512.222.698 0 1.455-1.013.768-1.024 1.931-3.537l1.501-.082-1.338 3.91q-.07.198-.104.35-.035.139-.035.22 0 .151.081.221.093.07.256.07.233 0 .617-.233.395-.232.954-.721l.14.244q-.629.617-1.234.943-.593.314-1.105.314-.489 0-.745-.221-.256-.233-.256-.687 0-.163.163-.744l.012-.035zm4.247 3.211h-1.408l1.326-5.003 1.653-.244-1.07 3.456q.988-1.897 1.768-2.7.791-.803 1.652-.803.524 0 .85.291.325.28.325.733 0 .28-.07.582-.058.302-.22.756l-.454 1.338q-.105.315-.175.57-.058.257-.058.385 0 .104.081.186.082.07.198.07.233 0 .663-.303.443-.303.862-.791l.22.21q-.663.72-1.244 1.058-.57.326-1.14.326-.513 0-.78-.221-.268-.233-.268-.687 0-.128.035-.302.035-.175.128-.524l.524-1.652q.15-.477.197-.675.047-.21.047-.326 0-.186-.105-.29-.105-.106-.302-.106-.594 0-1.455 1.222-.85 1.222-1.78 3.444m11.368-3.211q-.85 1.676-1.699 2.467t-1.78.791q-.675 0-1.059-.407-.395-.407-.395-1.094 0-1.501 1.326-2.711 1.327-1.222 3.06-1.222.233 0 .408.023.186.024.372.082l-.21.593q-.279-.174-.5-.256-.21-.081-.407-.081-.826 0-1.699 1.187-.873 1.186-.873 2.338 0 .42.175.64.174.222.512.222.698 0 1.454-1.013.768-1.024 1.932-3.537l1.501-.082-1.338 3.91q-.07.198-.105.35-.035.139-.035.22 0 .151.082.221.093.07.256.07.232 0 .616-.233.396-.232.955-.721l.14.244q-.63.617-1.234.943-.594.314-1.106.314-.488 0-.744-.221-.256-.233-.256-.687 0-.163.163-.744l.011-.035zm15.814 1.513q-1.408-.594-2.467-.885-1.117-.314-1.862-.314-1.047 0-1.734.396-.663.419-.663 1.035 0 .664.64 1.013.663.372 1.78.372 1.082 0 2.165-.419 1.07-.395 2.14-1.198m10.181.465-.558 1.257q-2.316.128-4.399-.175-2.083-.314-4.34-1.245-1.315.861-2.548 1.268-1.292.42-2.572.42-1.454 0-2.304-.513-.838-.523-.838-1.43 0-.967 1.013-1.642 1.024-.674 2.536-.674.861 0 2.072.302 1.093.28 2.71.908.443-.652.815-1.431.291-.675.547-1.571l.861-3.165q1.094-4.05 2.653-6.18 1.548-2.117 3.445-2.117.954 0 1.512.698.536.698.536 1.978 0 .652-.21 1.525-.186.803-.675 2.048l-1.547.256q.663-1.478 1-2.653.35-1.164.35-1.967 0-.791-.245-1.175-.244-.35-.838-.35-.896 0-1.815 1.49-.93 1.466-1.815 4.282l-.803 2.525q-.023.093-.128.408-1.047 3.374-2.758 5.713 2.071.884 4.154 1.047t4.19.163m-9.646-11.566q.512-.838 1.501-.454.454.21.698.64.256.419.105.861-.023.07-.128.303-.093.22-.407.349-.768.314-1.63.512-.86.197-1.396.733.058-.745-.384-1.49-.442-.744-.71-1.5-.116-.315-.058-.524.07-.221.105-.326.198-.43.663-.547.466-.128.931.047.943.442.71 1.396m-1.57 4.992q-.362-1.176.837-1.757.558-.245 1.152-.117.605.117.884.629.047.07.175.36.128.28-.012.675-.349.966-.884 1.932-.535.954-.489 1.897-.64-.675-1.699-.885-1.059-.22-1.966-.593-.396-.152-.547-.396-.14-.244-.21-.36-.232-.536.035-1.071.28-.535.838-.815 1.21-.512 1.885.5m15.463 4.596q-.849 1.676-1.698 2.467-.85.791-1.78.791-.676 0-1.06-.407-.395-.407-.395-1.094 0-1.501 1.326-2.711 1.327-1.222 3.06-1.222.233 0 .408.023.186.024.372.082l-.21.593q-.279-.174-.5-.256-.21-.081-.407-.081-.826 0-1.699 1.187-.872 1.186-.872 2.338 0 .42.174.64.175.222.512.222.698 0 1.455-1.013.768-1.024 1.931-3.537l1.501-.082-1.338 3.91q-.07.198-.105.35-.035.139-.035.22 0 .151.082.221.093.07.256.07.233 0 .617-.233.395-.232.954-.721l.14.244q-.629.617-1.234.943-.594.314-1.106.314-.488 0-.744-.221-.256-.233-.256-.687 0-.163.163-.744l.011-.035zm4.41-1.839 1.641-.244-1.268 3.91q-.047.151-.082.314t-.035.256q0 .116.094.198.093.07.22.07.687 0 1.583-1.304.908-1.303 1.583-3.397h1.5l-1.186 4.2q-.035.105-.058.198-.012.081-.012.163 0 .128.058.186.058.047.198.047.163 0 .524-.221.372-.222.93-.664l.152.245q-.687.628-1.21.896-.524.267-1.036.267-.465 0-.698-.198-.233-.197-.233-.605 0-.104.023-.232.024-.128.094-.396l.5-1.85q-.722 1.57-1.56 2.432-.825.85-1.652.85-.628 0-.942-.257-.326-.267-.326-.791 0-.163.07-.419.058-.256.198-.675zm6.18 5.05 1.326-4.98 1.431-.244-.954 3.293q.92-1.676 1.722-2.513.815-.85 1.501-.85.384 0 .57.244.186.233.186.71 0 .221-.046.5-.047.28-.14.652l-1.14.186.012-.07q.22-.965.22-1.198 0-.151-.07-.244-.069-.105-.162-.105-.547 0-1.443 1.268-.884 1.257-1.757 3.352zm10.6-3.211q-.85 1.676-1.7 2.467-.849.791-1.78.791-.674 0-1.058-.407-.396-.407-.396-1.094 0-1.501 1.327-2.711 1.326-1.222 3.06-1.222.233 0 .407.023.186.024.372.082l-.209.593q-.28-.174-.5-.256-.21-.081-.408-.081-.826 0-1.698 1.187-.873 1.186-.873 2.338 0 .42.174.64.175.222.512.222.699 0 1.455-1.013.768-1.024 1.931-3.537l1.502-.082-1.339 3.91q-.07.198-.104.35-.035.139-.035.22 0 .151.081.221.093.07.256.07.233 0 .617-.233.396-.232.954-.721l.14.244q-.629.617-1.234.943-.593.314-1.105.314-.489 0-.745-.221-.256-.233-.256-.687 0-.163.163-.744l.012-.035z" aria-label="Diana Laura" transform="translate(-54.535 -231.512)"/></svg>