<svg width="119.746" height="39.341" viewBox="0 0 31.683 10.409" xmlns="http://www.w3.org/2000/svg"><path d="m61.383 114.95.528-.72q.911.485 1.624.72.705.22 1.254.22 1.66 0 2.75-1.567 1.083-1.596 2.372-6.376l.321-1.226-.527-.042q-.264-.029-.542-.043-.484-.029-1.175-.029-2.437 0-3.548.257-1.126.27-1.126.826 0 .463.72.727.726.27 2.35.406l-.47.691q-1.389-.235-2.115-.69-.741-.457-.741-1.105 0-.92 1.467-1.44 1.454-.52 4.104-.52.784 0 1.446.05.656.043 1.382.143-.007.028.47.121.485.086 1.12.207.64.114 1.253.242.62.121.89.207.678.228.065.377-.606.15-.62.214-1.005-.178-1.86-.335-.847-.157-1.51-.135l-.313 1.097q-.592 2.308-1.212 3.918-.634 1.61-1.275 2.444-.698.905-1.774 1.375-1.076.477-2.394.485-.662 0-1.41-.122-.706-.114-1.504-.377m6.705-7.602q.285-.47.826-.25.25.115.385.35.142.228.057.47-.015.043-.072.17-.057.13-.228.193-.42.171-.897.285-.47.107-.77.406.036-.406-.213-.819-.243-.42-.392-.834-.064-.17-.029-.285l.057-.185q.107-.235.364-.306.256-.071.513.028.534.25.399.777m-2.515 3.783q-.093-.826.776-1.09.406-.093.798.064.392.15.52.534.022.057.064.264.05.2-.092.456-.35.606-.827 1.19t-.563 1.225q-.342-.534-1.033-.805-.684-.278-1.254-.641-.249-.15-.32-.328l-.093-.27q-.092-.392.157-.72.25-.335.655-.449.87-.2 1.212.57m5.827 3.078q.884-.178 1.433-.606.548-.434.548-.926 0-.214-.1-.32-.1-.114-.292-.114-.463 0-.919.555-.463.549-.67 1.41m2.08.206.08.129q-.507.42-.963.62-.448.2-.876.2-.541 0-.834-.286-.292-.292-.292-.84 0-.806.756-1.504.748-.698 1.652-.698.456 0 .713.214.264.213.264.591 0 .499-.627.89-.627.385-1.945.706.007.3.156.456.15.15.435.15.306 0 .684-.157.385-.164.798-.47m7.36-1.061q-.52 1.026-1.04 1.51-.52.485-1.09.485-.413 0-.648-.25-.242-.249-.242-.67 0-.918.812-1.66.812-.747 1.874-.747.142 0 .249.014.114.014.228.05l-.128.363q-.171-.107-.307-.157-.128-.05-.249-.05-.506 0-1.04.727t-.534 1.432q0 .257.106.392.107.136.314.136.427 0 .89-.62.47-.627 1.183-2.166l.92-.05-.82 2.394q-.043.12-.064.214-.022.085-.022.135 0 .092.05.135.057.043.157.043.142 0 .378-.143.242-.142.584-.441l.085.15q-.384.377-.755.576-.363.193-.677.193-.299 0-.456-.136-.156-.142-.156-.42 0-.1.1-.456l.006-.021zm1.782 1.966.833-3.006.934-.193-.663 2.088q.598-1.112 1.097-1.617.499-.513.976-.513.3 0 .463.164.164.156.164.448 0 .228-.071.506-.064.278-.22.663.476-.89.947-1.333.47-.448.94-.448.278 0 .47.2.2.199.2.49 0 .136-.05.336t-.171.555l-.292.855-.086.271q-.014.071-.014.114 0 .085.036.135.042.05.107.05.163 0 .406-.164.249-.17.541-.491l.15.135q-.435.456-.77.641-.327.186-.69.186-.286 0-.45-.143-.164-.142-.164-.378 0-.15.043-.349.05-.2.178-.555l.171-.556q.107-.314.143-.449.035-.142.035-.256 0-.1-.057-.171t-.135-.072q-.349 0-.876.77t-1.062 2.087h-.776l.676-2.28q.029-.114.05-.206.022-.1.022-.143 0-.1-.064-.164-.065-.064-.171-.064-.342 0-.884.777-.541.77-1.083 2.08zm9.148-3.077q-.207 0-.364.085-.15.078-.292.264-.313.413-.52.976t-.207 1.011q0 .257.136.42.135.157.356.157.492 0 .926-.769.435-.777.435-1.667 0-.192-.143-.335-.135-.142-.327-.142m-2.245 1.838q0-.748.684-1.383.677-.634 1.546-.634.577 0 .94.364.371.356.371.926 0 .748-.648 1.375-.648.62-1.46.62-.699 0-1.062-.32-.37-.329-.37-.948" style="font-size:14.5911px;font-family:&quot;Fiolex Girls&quot;;-inkscape-font-specification:&quot;Fiolex Girls&quot;;stroke-width:.390834" aria-label="Te amo" transform="translate(-61.383 -105.04)"/></svg>