<svg width="146.782" height="51.377" viewBox="0 0 38.836 13.593" xmlns="http://www.w3.org/2000/svg"><path d="m12.848 113.926.527-.72q.912.485 1.624.72.706.22 1.254.22 1.66 0 2.75-1.567 1.083-1.596 2.373-6.376l.32-1.226-.527-.042q-.263-.029-.541-.043-.485-.029-1.176-.029-2.436 0-3.548.257-1.126.27-1.126.826 0 .463.72.727.727.27 2.351.406l-.47.691q-1.39-.235-2.116-.69-.741-.457-.741-1.105 0-.92 1.468-1.44 1.453-.52 4.103-.52.784 0 1.447.05.655.043 1.382.143-.007.028.47.121.485.086 1.119.207.64.114 1.254.242.62.121.89.207.677.228.064.377-.605.15-.62.214-1.004-.178-1.86-.335-.847-.157-1.51-.135l-.313 1.097q-.591 2.308-1.211 3.918-.634 1.61-1.275 2.444-.699.905-1.774 1.375-1.076.477-2.394.485-.663 0-1.411-.122-.705-.114-1.503-.377m6.704-7.602q.285-.47.826-.25.25.114.385.35.143.228.057.47-.014.043-.071.17-.057.129-.228.193-.42.171-.898.285-.47.107-.77.406.036-.406-.213-.82-.242-.42-.392-.833-.064-.17-.028-.285.035-.12.057-.185.107-.235.363-.306t.513.028q.534.25.399.777m-2.515 3.783q-.093-.826.777-1.09.406-.093.798.064.391.15.52.534.021.057.064.264.05.2-.093.456-.349.606-.826 1.19-.478.584-.563 1.225-.342-.534-1.033-.805-.684-.278-1.254-.641-.25-.15-.32-.328-.065-.185-.093-.27-.093-.392.156-.72.25-.335.656-.449.869-.2 1.211.57m5.828 3.078q.883-.178 1.432-.606.549-.434.549-.926 0-.214-.1-.32-.1-.115-.292-.115-.463 0-.92.556-.463.549-.67 1.41m2.08.206.079.129q-.506.42-.962.62-.449.199-.877.199-.541 0-.833-.285-.292-.292-.292-.84 0-.806.755-1.504.748-.698 1.653-.698.456 0 .712.214.264.213.264.59 0 .5-.627.891-.627.385-1.945.706.007.299.157.456.15.15.434.15.307 0 .684-.157.385-.164.798-.47m7.082-.306q-.449.599-.919.926t-.876.328q-.385 0-.627-.264-.25-.27-.25-.698 0-.933.87-1.631.869-.706 2.108-.706.164 0 .385.036.228.036.72.142l-.186.435q-.206-.2-.484-.306-.278-.114-.584-.114-.356 0-.684.213-.328.207-.656.649-.277.37-.456.798-.185.427-.185.662 0 .2.114.335.107.128.278.128.399 0 .92-.584.526-.584.918-1.532l.698.264-1.73 4.695q-.022.05-.037.093-.007.042-.007.085 0 .05.029.071.028.029.1.029.32 0 .726-.762.414-.756.414-1.596 0-.157-.015-.307t-.042-.306l1.118-.705.071.135-.869.598.029.221q.014.121.014.228 0 1.126-.627 2.045-.627.92-1.24.92-.25 0-.377-.122-.136-.121-.136-.35 0-.213.193-.704zm2.992-1.88 1.005-.15-.777 2.393q-.028.093-.05.193-.02.1-.02.157 0 .07.056.12.057.043.135.043.42 0 .97-.798.555-.798.968-2.08h.92l-.727 2.572q-.022.064-.036.121-.007.05-.007.1 0 .078.036.114.035.028.12.028.1 0 .321-.135.228-.135.57-.406l.093.15q-.42.384-.741.548-.32.164-.634.164-.285 0-.428-.121-.142-.121-.142-.37 0-.065.014-.143.014-.079.057-.242l.307-1.133q-.442.962-.955 1.489-.506.52-1.012.52-.385 0-.577-.157-.2-.164-.2-.484 0-.1.043-.257.036-.156.121-.413zm5.009-.115.898-.085-.706 2.543q-.028.114-.028.171-.007.079-.022.135 0 .086.05.143.057.057.129.057.12 0 .399-.185.285-.2.527-.485l.15.129q-.407.434-.763.64-.342.193-.691.2-.314 0-.477-.135-.164-.136-.164-.413.014-.171.071-.392.036-.143.028-.121zm1.268-2.408q.342-.456.89-.185.25.15.371.406.121.25.007.499-.014.042-.085.164-.071.12-.257.178-.449.142-.954.213-.506.072-.848.35.071-.428-.136-.877-.206-.449-.327-.898-.043-.192.007-.306.043-.121.064-.185.3-.513.933-.2.535.3.335.841m.506 4.503q.883-.178 1.432-.606.549-.434.549-.926 0-.214-.1-.32-.1-.115-.292-.115-.463 0-.92.556-.462.549-.669 1.41m2.08.206.079.129q-.506.42-.962.62-.449.199-.876.199-.542 0-.834-.285-.292-.292-.292-.84 0-.806.755-1.504.748-.698 1.653-.698.456 0 .712.214.264.213.264.59 0 .5-.627.891-.627.385-1.945.706.007.299.157.456.15.15.434.15.307 0 .684-.157.385-.164.798-.47m.763.905.812-3.05.876-.149-.584 2.017q.563-1.026 1.054-1.54.5-.52.92-.52.235 0 .349.15.114.143.114.435 0 .135-.029.306-.028.171-.085.4l-.699.113.007-.043q.136-.591.136-.733 0-.093-.043-.15-.043-.064-.1-.064-.335 0-.883.776-.542.77-1.076 2.052zm5.742-3.078q-.207 0-.363.086-.15.078-.292.264-.314.413-.52.976t-.207 1.011q0 .257.135.42.136.157.356.157.492 0 .927-.77.434-.776.434-1.666 0-.193-.142-.335-.136-.143-.328-.143m-2.244 1.839q0-.749.684-1.383.677-.634 1.546-.634.577 0 .94.364.37.356.37.926 0 .748-.648 1.375-.648.62-1.46.62-.698 0-1.062-.32-.37-.329-.37-.948" style="font-size:14.5911px;font-family:&quot;Fiolex Girls&quot;;-inkscape-font-specification:&quot;Fiolex Girls&quot;;stroke-width:.390834" aria-label="Te quiero" transform="translate(-12.848 -104.016)"/></svg>