<svg width="282.447" height="321.47" viewBox="0 0 74.731 85.056" xml:space="preserve" xmlns="http://www.w3.org/2000/svg"><path style="fill:#000" d="M156.382 302.55c-.304-.027-.597-.066-.65-.086a7 7 0 0 0-.55-.131c-1.637-.338-3.478-1.342-4.666-2.544-1.39-1.408-4.147-2.21-8.02-2.331-1.112-.035-3.885.056-4.322.142-.19.037-.528.082-.752.1-.425.033-1.741.327-2.443.545-.48.149-.808.326-.932.503-.05.07-.206.26-.347.42l-.56.649c-.826.968-2.665 1.987-4.269 2.365l-.563.133-1.267.033-1.267.032-.64-.107c-1.2-.2-2.623-.768-3.717-1.481a28 28 0 0 0-.731-.467c-.26-.144-1.525-1.331-1.963-1.843-.716-.836-1.592-2.175-1.846-2.819a2.3 2.3 0 0 0-.193-.376c-.439-.642-1.085-2.996-1.372-4.996-.6-4.187 1.202-9.187 4.186-11.615l.322-.261v-.204c0-.112-.03-.284-.067-.38-.123-.323-.2-1.351-.207-2.777l-.007-1.409.209-.813c.196-.769.325-1.13.672-1.895.207-.457.915-1.558 1.216-1.894.32-.356.317-.375-.078-.62-.18-.112-.526-.327-.767-.479s-.622-.38-.846-.508a22 22 0 0 1-1.002-.63l-.594-.396h-.64l-.298.158c-.464.247-1.828 1.196-2.79 1.941-1.923 1.49-2.38 1.726-2.756 1.422l-.138-.112-.052-.28-.053-.279.147-.325.147-.324.46-.463c.444-.447 1.247-1.062 2.62-2.007.36-.248.774-.564.918-.702l.262-.25.044-.173c.083-.332.095-.314-1.28-2.021a12 12 0 0 1-.592-.824c-.45-.695-.766-.896-1.408-.897h-.272l-1.42.478-1.42.478-.449.007-.45.007-.176-.131-.177-.132-.021-.14a.75.75 0 0 1 .056-.326l.077-.185.265-.183c.486-.334 1.555-.862 2.348-1.16.844-.317 1.162-.511 1.26-.77l.063-.164-.134-.346a64 64 0 0 1-.973-2.852l-.298-.94-.204-.203-.203-.204h-1.072l-.52.12c-.285.067-.914.194-1.396.282a85 85 0 0 0-1.629.315c-.413.086-.923.157-1.133.158l-.382.002-.103-.115-.104-.114v-.694l.12-.152c.287-.366 1.345-.756 2.773-1.024a52 52 0 0 0 1.554-.317c.362-.082.841-.177 1.065-.211l.407-.063.173-.19.172-.191v-.366c0-.201.019-.543.041-.76l.042-.395-.07.042-.068.042-.043-.29c-.024-.16-.03-.726-.014-1.26l.03-.97.08-.05.08-.05-.042-.401-.043-.403.161-.998c.153-.944.319-1.709.508-2.345.574-1.933.83-2.648 1.389-3.884.086-.19.17-.452.189-.583l.032-.238-.17-.45a34 34 0 0 0-.222-.577c-.313-.757-.719-1.944-.814-2.38-.03-.138-.127-.533-.217-.877-.09-.345-.197-.88-.239-1.19l-.076-.564v-2.255l.075-.206c.041-.113.054-.193.028-.177l-.046.029.046-.525c.099-1.131.567-2.783 1.123-3.964a10 10 0 0 0 .244-.543c0-.012.117-.224.26-.471l.259-.45.364-.365c1.199-1.203 2.616-1.444 5.695-.97 1.903.294 2.775.472 3.82.78l1.097.318c.723.207 2.093.648 2.333.751.353.152.442.186.723.277a2.5 2.5 0 0 0 .636.097h.337l.585-.193c.68-.225 1.835-.522 2.684-.692.845-.168.887-.178 1.096-.243.103-.032.723-.115 1.378-.184.655-.07 1.289-.155 1.409-.19a6 6 0 0 1 .705-.126l.971-.125c.503-.064 1.386-.14 2.98-.254.51-.036.997-.092 1.08-.124l.153-.058.282-.436c.155-.239.281-.459.281-.488 0-.208 1.303-1.825 1.98-2.458.771-.722 1.812-1.289 2.719-1.481l.407-.087h.848l.848-.002.345.09c.19.05.603.202.917.338l.572.248.718.483.719.482.673.683.674.683h.106c.058 0 .468-.272.91-.605.443-.333.976-.704 1.185-.824.898-.518 1.908-1.07 2.228-1.217.969-.448 1.519-.67 1.973-.798.275-.077.634-.182.797-.232s.558-.146.877-.211l.58-.12.768-.001h.766l.424.166c1.852.728 3.544 3.868 4.245 7.877.078.451.163.869.187.929l.045.109.26.069c.769.203 1.114.33 1.474.543l.399.235.398.43.399.43.189.384c.368.75.473 1.495.463 3.297l-.007 1.347-.162.752c-.156.72-.36 1.448-.569 2.022-.105.29-.77 1.662-.976 2.017-.185.317-.164.442.206 1.181.183.368.454.992.602 1.388.26.696.376 1.097.725 2.506l.287 1.159.125.5.155.157.156.157h.358c.198-.001.81-.043 1.362-.095l1.002-.093h2.881l.364.117c.2.064.446.186.548.271l.184.156v.468l-.148.14-.15.14-.367.03c-.203.018-.48.058-.619.09-.452.103-.736.128-2.098.185-2.089.088-2.97.249-3.257.595l-.083.1.009 2.188.009 2.188.076.123a.65.65 0 0 0 .236.197l.16.076 1.16.08c1.472.102 2.325.234 3.044.471l.57.188.135.143.134.143v.317l-.11.097a1.8 1.8 0 0 1-.36.21l-.25.112-2.287.004-2.286.004-.198.12c-.244.148-.42.454-.546.945-.105.41-.731 2.319-.923 2.812a1.8 1.8 0 0 0-.118.479v.173l.204.179c.245.215.31.243 2.176.955.81.308 1.74.686 2.067.838l.595.277.236.236c.13.13.252.305.274.39l.039.156-.074.248-.074.247-.158.06c-.086.033-.335.06-.553.06h-.396l-.493-.153a100 100 0 0 1-1.463-.475l-1.754-.58-.783-.255-.376-.004-.376-.004-.22.149c-.12.082-.346.32-.501.53-1.645 2.235-3.91 4.278-6.388 5.76l-.502.3v.215l.414.28c.8.543 1.579 1.519 2.126 2.667l.33.693.22.78c.268.954.356 1.605.356 2.66v.81l-.098.69-.097.69-.32.994-.32.994.906.885c1.72 1.681 2.539 3.147 3.124 5.595l.189.792-.036.112c-.019.061.008.26.062.44l.097.327v1.382l.001 1.383-.097.657c-.61 4.124-2.704 7.827-5.698 10.072l-.689.516-.913.46c-1.177.592-2.007.883-2.71.95-.174.017-.332.055-.351.085-.02.03-.204.052-.41.05a4 4 0 0 0-.714.071c-.368.08-.57.082-1.406.007zm2.09-2.162c1.243-.235 2.607-.958 4.21-2.23 1.475-1.173 2.559-2.53 3.44-4.312l.418-.845.258-.783c.142-.43.332-1.164.422-1.629l.165-.845v-2.756l-.1-.533c-.472-2.479-1.157-3.942-2.509-5.361l-.582-.612-.307.403c-1.341 1.758-2.662 2.666-4.552 3.127l-.769.188h-1.256l-.522-.126c-.615-.148-.559-.171-.943.397-1.071 1.582-3.033 3.368-5.657 5.149l-.545.37-.043.253c-.933 5.457 2.573 10.184 7.594 10.236l.76.008zm-30.114-.331c2.51-.542 4.596-2.508 5.58-5.259.204-.57.203-.588-.014-.716-1.45-.857-2.747-3.114-3.642-6.346a63 63 0 0 0-.42-1.406c-.156-.5-.363-1.173-.46-1.497-.099-.324-.204-.613-.233-.643l-.055-.054-.343.118a7 7 0 0 1-.81.2l-.468.082-.689-.003-.689-.003-.689-.172c-1.802-.452-3.3-1.608-4.533-3.503-.177-.271-.322-.518-.322-.548 0-.223-.423.16-1.043.945l-.517.656-.362.691c-.887 1.694-1.256 2.872-1.464 4.668l-.075.657.034 1.003.034 1.004.132.737c.537 2.997 2.02 5.563 4.32 7.479 1.636 1.362 2.335 1.744 3.653 1.995l.456.087 1.003-.02 1.002-.02zm19.49-3.843a3 3 0 0 0-.152-.454c-.289-.675-.624-2.562-.626-3.526-.001-.634.115-.656-1.122.218-2.426 1.715-3.952 2.622-4.62 2.747-.438.082-.175.12.87.125l1.08.005.721.105c1.036.152 2.112.406 2.976.704.413.142.789.263.835.268l.083.009zm-10.332-.421.5-.114-.156-.034c-.576-.126-1.25-.248-1.405-.255l-.185-.01-.118.314c-.065.172-.133.36-.15.417l-.033.104.523-.155a20 20 0 0 1 1.024-.268zm1.942-2.321c1.302-.171 2.23-.655 5.074-2.648.275-.193.994-.67 1.597-1.06 4.635-2.995 6.767-4.706 7.88-6.327.273-.398.265-.423-.254-.821-1.022-.786-1.715-1.779-1.956-2.8a5 5 0 0 0-.206-.678l-.095-.207.034-.826.033-.827.137-.532c.076-.293.253-.782.395-1.087l.257-.555-.153-.116a2 2 0 0 0-.325-.19l-.172-.072-.084.07c-.046.038-.118.19-.16.336-.166.577-.6 1.285-1.122 1.826l-.294.306-.313.147-.313.148-.314-.001h-.313l-.346-.143c-1.217-.501-2.882-2.365-3.858-4.32-.159-.318-.332-.627-.385-.687l-.097-.11h-.166c-.091 0-.401.114-.69.253-1.777.86-4.203 1.315-5.523 1.035-.931-.197-1.3-.57-1.495-1.511l-.075-.36.075-.6c.042-.328.131-.777.199-.996.067-.218.114-.473.103-.565l-.02-.168-.375-.073a94 94 0 0 0-.909-.17 16 16 0 0 1-1.213-.293l-.682-.196-.258.1c-.142.055-.449.242-.681.417l-.423.318v.094c0 .051.068.211.15.355.235.408.46 1.1.543 1.674l.077.524-.039.88-.039.88-.12.375a5 5 0 0 0-.163.703l-.044.327.252.55c.273.593.538 1.442.629 2.012l.057.355-.052.72c-.118 1.646-.54 2.596-1.626 3.665l-.51.5.032.206c.017.113.103.384.191.604.14.35.305.887.953 3.106.782 2.68 1.292 3.787 2.19 4.756l.35.38.467.29c1.362.85 2.82 1.207 4.188 1.027m-1.801-3.642c-.164-.107-.298-.236-.298-.285v-.09l-.064.04c-.035.021-.059.016-.053-.013a.7.7 0 0 0-.06-.228c-.092-.222-.094-.46-.005-.516l.069-.043-.029-.149-.028-.15h.078c.077 0 .185-.173.165-.265-.006-.026.011-.043.037-.037.087.018.266-.086.234-.137-.044-.071.39-.13.708-.094l.269.03.096.095c.053.053.14.096.196.096s.083.016.063.037.045.166.146.325l.183.289v.483l-.107.2c-.059.11-.1.222-.094.248s-.022.04-.065.03l-.079-.015.018.083.017.083-.064-.04c-.036-.021-.065-.016-.065.012 0 .076-.465.207-.735.206h-.235zm1.276-.228c.44-.471.365-1.146-.164-1.492l-.162-.107-.374.005-.375.005-.179.128c-.098.07-.228.23-.288.357l-.109.23.03.308.03.31.12.16c.066.09.218.216.338.282l.217.12.339-.026.339-.026zm3.796-1.832a2.2 2.2 0 0 1-.384-.298l-.21-.205-.082-.295q-.135-.486-.011-.574c.03-.02.102-.143.162-.272s.138-.235.172-.235.14-.058.237-.129l.175-.13.465.026.464.026-.017.077c-.01.042.005.063.032.046.277-.17.678 1.196.41 1.395a.7.7 0 0 0-.118.16c-.083.151-.637.487-.718.437-.032-.02-.059-.013-.059.015 0 .084-.33.056-.518-.044m.945-.231a1.8 1.8 0 0 0 .287-.29l.125-.168-.01-.329c-.013-.466-.035-.605-.087-.572-.026.015-.075-.026-.11-.091-.146-.272-.795-.4-1.157-.228l-.2.094-.17.263-.17.262v.521l.165.244c.247.367.457.47.892.435l.273-.02zm4.108-1.83-.258-.117-.174-.228-.173-.227-.017-.438-.017-.439.092-.092.092-.092-.045-.08-.046-.078.051.046.05.046.132-.15c.16-.182.496-.28.826-.242.135.015.293.032.35.036.058.005.092.031.075.058s0 .05.039.05c.038 0 .128.055.2.123.073.067.161.105.196.084l.063-.039-.041.066c-.023.036 0 .146.052.244.22.42-.09 1.338-.45 1.338-.045 0-.082.025-.082.056 0 .055-.2.123-.501.17l-.157.023zm1.062-.309c.352-.33.453-.765.263-1.133-.05-.097-.086-.187-.078-.2q.01-.02-.01-.01c-.014.006-.115-.057-.226-.142l-.202-.153h-.766l-.218.19-.218.192-.073.223-.074.224.033.245c.057.423.327.711.75.802l.202.043.22-.057a1.1 1.1 0 0 0 .397-.224m-13.082-.119a3 3 0 0 1-.282-.096.6.6 0 0 0-.208-.054c-.029.006-.034-.017-.012-.052l.04-.065h-.199l-.19-.297-.192-.298.035-.407.036-.426c0-.011.03-.002.064.019s.062.009.062-.028.078-.148.172-.246l.173-.18.332-.07.332-.071.273.124.273.124.223.262.224.261-.027.373-.028.373-.107.164c-.13.2-.326.368-.49.424a.6.6 0 0 0-.208.127c-.09.09-.095.09-.296.04m.641-.35.203-.136.095-.236c.118-.295.12-.552.006-.827l-.09-.213-.242-.16-.243-.161-.253-.01-.253-.01-.25.14c-.139.078-.3.224-.36.324-.11.187-.242.826-.16.776.025-.016.08.052.12.15.211.51.935.695 1.427.363m3.869-.963c-.765-.158-1.002-.546-.896-1.469l.019-.166.057.035.057.035-.034-.13-.035-.13.082.03.08.032.042-.131.042-.13.06.037c.034.02.13-.007.213-.062l.152-.1h.574l.19.1c.106.053.225.085.266.069l.075-.029v.227l-.065-.032c-.036-.017-.007.02.064.083.304.271.338 1.127.05 1.238-.051.02-.077.06-.058.092.02.03-.009.073-.062.094l-.098.037.038.063.039.062-.108-.041-.107-.042.052.084.052.084-.097-.037c-.053-.02-.121-.015-.151.013-.077.07-.344.115-.493.085zm.697-.321a1.4 1.4 0 0 0 .307-.38l.107-.212-.033-.286-.032-.287-.285-.268-.284-.27h-.678l-.206.142c-.86.586-.342 1.912.686 1.76l.217-.032zm3.72-1.466c0-.025-.07-.063-.152-.084-.084-.02-.256-.15-.384-.288l-.231-.25-.042-.324-.041-.324.094-.25c.085-.227.233-.406.318-.384.018.005.102-.057.187-.136l.154-.143.354.012.353.013.211.12c.117.065.155.102.086.083l-.125-.035.125.095c.358.272.44.394.438.657-.002.376-.23 1.073-.322.982-.017-.018-.133.036-.256.12l-.224.152-.116-.036-.115-.037v.06c0 .034-.07.057-.156.052s-.157-.03-.157-.055m.502-.152.206-.041.24-.24.241-.242v-.797l-.13-.167c-.405-.514-1.21-.517-1.613-.006l-.136.173v.622l.102.214c.192.406.593.584 1.09.484m5.358-1.218.035-.056-.145-.007a1.3 1.3 0 0 0-.196.002c-.028.005-.034-.02-.013-.053.02-.034-.02-.12-.092-.192l-.13-.13-.076.044c-.042.024-.058.023-.036-.001.022-.025.003-.168-.042-.318s-.07-.286-.054-.301.038-.128.049-.249l.02-.219.167-.219.166-.219.328-.093.328-.093.277.038c.152.02.287.067.299.103l.021.066-.509-.003-.509-.003-.21.242-.209.242-.04.272-.041.272.13.27.132.268.208.14.209.142h.631l.26-.189c.143-.103.26-.223.26-.266l.002-.078.058.093.059.092-.107.118c-.058.064-.102.136-.096.158s-.006.054-.026.071c-.02.018-.016-.004.01-.047.061-.106 0-.098-.192.028l-.161.106-.4.013-.4.012zm-17.416-.367-.037-.06.246-.065c.135-.037.284-.057.33-.045s.062.01.033-.006c-.029-.015.04-.123.151-.238l.204-.21.028-.336.028-.336-.133-.26-.133-.26-.248-.127-.248-.127.037-.095.036-.095.103.117.102.117.087-.03.087-.03-.05.082-.05.081.103-.04.103-.039-.014.076-.015.076.104-.008.105-.008-.037.096-.037.097.066-.04.066-.042-.007.078c-.004.042.016.224.044.404.061.392.014.644-.153.824-.069.073-.11.134-.092.134s-.015.056-.074.125l-.107.125h-.202c-.11 0-.219.028-.24.063-.05.079-.138.08-.186.003zm4.577-.7c.013-.023-.02-.058-.072-.078l-.097-.037.039.077c.021.043-.001.028-.05-.032-.05-.06-.113-.11-.14-.11-.05 0-.464-.438-.474-.5l-.035-.157a1.1 1.1 0 0 1 .082-.736c.06-.112.102-.227.094-.255-.008-.029.013-.035.046-.015s.09-.012.125-.073.066-.09.067-.063c0 .027.069.005.15-.049a1.5 1.5 0 0 1 .341-.152l.192-.055.25.074c.139.04.324.136.412.213s.161.118.163.093c.011-.145.24.554.243.736.003.298-.186.69-.43.895l-.202.17h-.183c-.1 0-.183.024-.183.054s-.082.05-.182.047-.17-.025-.157-.048m.617-.214c.113-.053.284-.18.382-.281l.177-.185.025-.36.025-.36-.147-.22a1.2 1.2 0 0 0-.366-.333l-.218-.113-.327.03c-.358.033-.503.111-.719.386l-.142.18v.348l.002.348.115.173c.268.403.798.575 1.193.387m3.754-1.686c-.247-.113-.525-.44-.526-.618v-.136l-.061.094-.061.094-.008-.188c-.01-.235 0-.318.074-.606l.06-.231.212-.218.212-.218.364-.046.364-.045.335.175.334.175.084.162c.088.17.122.438.106.84l-.009.239-.266.279-.266.279-.376.03-.376.029zm.808-.124c.302-.135.457-.295.544-.56l.08-.24-.037-.22a.986.986 0 0 0-.973-.831h-.24l-.21.142a1.6 1.6 0 0 0-.354.354l-.143.211v.222c0 .122.056.337.125.48l.125.257.235.136.235.137h.206c.113.002.296-.039.407-.088m-9.303-2.882c-.09-.046-.18-.073-.2-.06q-.031.021-.014-.006c.011-.018-.102-.163-.253-.322l-.273-.29.04-.124.04-.125-.08.05-.08.049.046-.12c.026-.066.091-.264.146-.44l.099-.319.27-.17.27-.17.34-.036.343-.035.24.146c.282.173.35.252.518.602l.126.262-.085.208c-.046.114-.071.243-.056.286.016.043-.002.078-.04.078-.036 0-.067.038-.067.085 0 .046-.135.169-.3.271l-.302.188-.282.038-.282.039zm.998-.26c.13-.1.244-.21.251-.244s.046-.149.088-.254l.074-.192-.045-.244-.046-.243-.233-.233-.233-.233-.238-.045-.237-.044-.231.069-.23.069-.205.21-.204.211-.037.226c-.02.125-.018.323.004.442l.04.215.216.211c.255.25.41.306.765.279l.262-.02zm-6.308 7.727c1.833-.632 2.938-1.992 2.942-3.617l.001-.408-.125-.521a8.3 8.3 0 0 0-.731-1.868l-.208-.384v-.193c0-.106.085-.425.188-.708s.23-.72.282-.97l.094-.456v-1.106l-.096-.373a5 5 0 0 0-.272-.75l-.175-.375-.335-.366c-.53-.58-1.223-.988-2.16-1.274l-.376-.114h-1.816l-.447.164c-1.82.663-3.208 2.587-3.567 4.94l-.09.596-.001.846v.845l.09.503c.516 2.902 2.188 5.096 4.32 5.672l.446.12.783-.02.783-.02zm30.586-.231c2.546-.651 4.506-3.059 4.973-6.111l.096-.627-.033-1.065-.032-1.064-.163-.627-.162-.626-.303-.627-.302-.626-.386-.485c-.664-.835-1.483-1.365-2.433-1.576l-.451-.1h-1.077l-.483.099c-1.599.329-2.731 1.368-3.025 2.775l-.073.352.036 1.033c.02.569.066 1.157.104 1.308l.068.275-.07.211c-.038.117-.203.374-.367.572a6 6 0 0 0-.958 1.618l-.195.495-.029.696-.029.697.144.486.145.486.232.36c.647 1 1.745 1.773 2.94 2.067l.47.116.443.005.444.005zm-9.477-6.315c.409-.491.712-1.259.88-2.228l.074-.42.137-.202.136-.204.233-.076.233-.077.172.065c.094.036.532.293.972.571.935.59.877.599.79-.111l-.07-.56.035-.546c.019-.3.084-.789.146-1.085l.112-.538-.249-.216a16 16 0 0 0-.812-.628l-.564-.412-.814-.4-.815-.4-.77-.22a12 12 0 0 0-1.441-.309c-.369-.048-.747-.123-.841-.166l-.172-.079-.125-.259-.126-.26.054-.188c.03-.104.168-.385.306-.624l.653-1.13c.548-.948.744-1.595.536-1.765-.135-.11-.876-.312-1.316-.36l-.422-.044-.157.102-.156.103-.001.515c-.001.742-.11 2.228-.19 2.602l-.07.32-.216.19c-.355.312-.569.286-1.309-.164-1.123-.683-2.11-1.081-3.33-1.344l-.616-.133-.97-.03-.972-.028-.626.096c-1.538.236-3.286 1.03-3.684 1.675l-.062.1.041.163.041.164.49.155c.629.198 1.565.377 2.67.51.95.114 1.122.16 1.33.353l.136.128.04.233.038.232-.376.74-.376.742-.101.442a5 5 0 0 0-.106.81l-.005.366.075.074.075.075.827-.003.826-.003.658-.144c1.312-.287 2.349-.705 3.57-1.44l.533-.32h.2c.455 0 .653.213.897.97.785 2.438 3.304 5.388 3.944 4.62m5.055-7.81c.56-.165.859-.296 1.427-.626.205-.12.67-.316 1.034-.437l.662-.22.692-.09.69-.091.795-.377c3.415-1.622 7.436-4.827 7.436-5.929v-.137l-.14-.128a1.2 1.2 0 0 0-.36-.2 3.6 3.6 0 0 1-.54-.254l-.32-.183-.103-.217a1.1 1.1 0 0 1-.103-.375v-.158l.156-.185c.085-.101.241-.22.346-.264l.192-.079.546.04c.3.022.707.058.905.079l.36.039.192-.08.192-.08.175-.35c.498-1 1.043-2.603 1.113-3.273l.037-.353-.15-.097c-.082-.054-.442-.157-.801-.23l-.653-.132-.178-.126c-.312-.223-.378-.478-.21-.804l.093-.178.29-.14.289-.14.785-.042.785-.042.108-.134.109-.134.042-.708c.098-1.638.045-3.018-.127-3.293l-.088-.14h-.203c-.11 0-.385.045-.609.1-2.28.55-2.471.578-2.82.4l-.247-.126-.095-.184a1 1 0 0 1-.095-.367v-.183l.131-.167c.24-.306 1.234-.693 2.745-1.072.768-.192.988-.294 1.084-.504l.07-.155-.14-.664c-.253-1.207-1.106-3.82-1.323-4.054l-.05-.054-.398.37a6.2 6.2 0 0 1-2.589 1.47l-.501.137-.908.005-.909.005-.5-.147a7.2 7.2 0 0 1-1.911-.905l-.47-.312-.632-.638-.632-.639-.409-.621c-.225-.342-.43-.692-.456-.778a1 1 0 0 0-.104-.228l-.056-.07-.25.086c-.776.268-2.032.343-2.975.178l-.55-.096-.57-.235a10 10 0 0 1-1.023-.502l-.454-.265-.56-.534-.56-.533-.255.184c-.903.654-3.523 1.408-5.172 1.49l-.752.037-.595-.099c-2.5-.413-4.13-1.934-4.79-4.469l-.15-.576-.074-.868-.074-.868.07-.832c.082-.986.319-2.424.542-3.295.089-.344.177-.694.198-.776l.036-.15-.275.041c-.25.037-1.643.203-3 .357-3.334.377-5.93.845-7.454 1.34-.465.152-1.038.311-1.273.354l-.427.079-.365-.076c-.2-.041-.72-.23-1.154-.42-2.596-1.136-5.325-1.912-7.597-2.16l-.7-.076-.804.032c-.904.036-1.099.082-1.585.373l-.341.205-.238.313c-.848 1.12-1.396 3.01-1.525 5.268l-.04.683.066.814.065.815.128.507c.169.669.402 1.283.67 1.764l.218.391h.137c.076 0 .265-.085.42-.188s.376-.219.49-.257l.21-.07.278.107.278.106.092.18.093.178-.002.332-.002.332-.143.282c-.08.155-.392.733-.696 1.284-1.442 2.614-2.2 4.975-2.668 8.3-.036.259-.09.978-.118 1.598l-.052 1.127.043.989.043.989.187.187.188.188.94.026c1.057.03 1.827.112 2.377.256l.373.097.172.165.172.165v.223l-.002.223-.108.133c-.06.073-.186.182-.28.242l-.171.108-.956.06-1.472.092-.515.034-.158.124-.158.124v.242c0 .852.844 3.219 1.367 3.837l.093.11h.194c.106 0 .62-.087 1.143-.196l.95-.197.295.045.296.044.146.146a.8.8 0 0 1 .189.317l.043.171-.056.163-.056.164-.47.23c-.258.128-.667.307-.908.4-.564.217-.713.312-.786.504l-.06.156.121.232c.197.379.652.99 1.326 1.78l.634.743.254.13.254.13.381-.028.381-.027.386-.23c.508-.302 1.23-.584 1.619-.632l.313-.039.155.08c.205.107.44.464.44.67v.165l-.173.207c-.095.114-.453.395-.797.624l-.624.417-.076.155-.077.154.064.077c.12.144 1.87 1.148 3.013 1.729l.484.245.394-.13a8 8 0 0 1 .884-.225l.49-.094h.578c1.309 0 2.966.47 3.958 1.124l.193.128.464-.35c.256-.192.583-.418.727-.504l.262-.155.044-.356c.023-.197.1-.51.169-.696l.125-.34.477-.483.477-.482.439-.28c1.151-.731 2.498-1.185 4.069-1.37l.618-.074 1.102.035 1.101.034.564.103c.709.13 1.681.41 2.281.657.254.104.483.19.509.19s.058-.317.072-.705l.026-.704.194-.377.194-.377.321-.301.322-.301.358-.165.359-.166.623-.026.623-.026.442.079c1.392.247 2.24.776 2.634 1.645l.148.328.04.438.04.439-.13.492a8 8 0 0 1-.411 1.09c-.156.33-.276.605-.267.614.009.008.264.09.566.182 1.106.336 2.275.913 3.266 1.612.592.417.497.4 1.144.21zm-12.53-6.928a10 10 0 0 1-.858-.19l-.493-.134-.329-.197-.329-.198-.174-.25a3 3 0 0 1-.308-.68l-.134-.428.032-.448.03-.449.136-.353.135-.354.246-.28c.328-.371.955-.772 1.516-.968l.458-.16.658-.064.657-.065.648.131.647.131.477.227.477.226.231.244c.128.133.312.407.41.608l.18.364v1.255l-.206.42-.206.418-.345.307c-.406.362-.893.615-1.498.777l-.439.118-.626.025a6.4 6.4 0 0 1-.992-.033m1.573-1.403c.431-.115.848-.363 1.046-.623l.16-.208v-.23c0-.34-.138-.613-.44-.871l-.267-.23-.314-.104-.313-.104-.57.034-.571.034-.345.106-.344.107-.291.29-.291.291-.074.276-.075.276.037.198.038.198.202.192c.392.37.633.445 1.456.451l.627.005zm-17.328-1.728c-1.044-.22-1.658-1.1-1.792-2.572l-.043-.465.07-.56.072-.56.196-.395c.25-.5.573-.838 1.007-1.05l.342-.168.343-.035.344-.036.507.17.508.169.289.32c.493.55.671 1.028.785 2.115l.07.675-.104.517c-.127.628-.331 1.048-.668 1.374l-.253.246-.346.13c-.412.153-.948.204-1.327.125m30.282-2.96-.371-.14-.333-.303-.332-.304-.186-.39-.186-.39-.097-.551a7 7 0 0 1-.096-1.019v-.466l.157-.466c.336-1.002.883-1.506 1.756-1.621l.316-.042.41.072.411.071.282.23c.155.127.386.371.513.544l.231.313.133.407.133.407.028.759.027.758-.132.484c-.24.875-.522 1.274-1.11 1.572l-.363.183-.41.016-.409.016zm8.535-14.148c.161-.04.53-.18.82-.313l.525-.243.414-.34c1.767-1.452 3.23-4.438 3.52-7.188l.07-.647-.042-.751c-.045-.828-.17-1.487-.361-1.895l-.125-.267-.314-.25-.315-.25-.414-.13-.415-.129-.78-.066-.782-.066-.847.072c-1.343.115-3.002.525-3.828.947l-.237.121-.04.128-.041.127.166.5c.091.273.214.557.273.63l.106.13.562.097c.962.164 1.58.5 2.143 1.168l.265.313.184.444.185.443.055.415.056.416-.042.399-.042.398-.2.48-.2.478-.294.34c-.349.403-.68.669-1.11.89l-.312.161-.522.073-.522.074-.47-.074-.47-.073-.44-.193-.442-.194-.208.04-.21.039-.221.26-.223.259v.133c0 .83 2.014 2.66 3.352 3.047l.376.108.551.004c.304.002.684-.027.846-.066zm-8.038-4.027c1.879-.417 3.15-1.788 3.483-3.757l.073-.43-.042-.46c-.184-2.03-1.319-3.441-3.258-4.051l-.443-.14-.846.001-.846.001-.5.174-.502.173-.514.346c-.877.59-1.462 1.356-1.813 2.374l-.173.501-.001.877-.001.877.114.376c.062.207.23.601.372.877l.258.501.535.534.534.533.387.204c.441.232.793.37 1.242.485l.313.081.627.003.626.003zm-9.928-.666c1.307-.264 2.948-.904 3.038-1.186l.035-.113-.192-.601-.193-.601-.107-.054a3 3 0 0 0-.483-.131 4.3 4.3 0 0 1-.826-.298l-.451-.22-.43-.417-.429-.417-.224-.438a7 7 0 0 1-.34-.783l-.118-.345.006-.657.006-.658.079-.282c.043-.155.174-.49.29-.743l.212-.46.496-.496.495-.495.524-.245c1.275-.595 2.536-.486 3.64.314.335.242.375.237 1.142-.144l.659-.328v-.382l-.21-.437c-1.49-3.104-3.596-5.102-5.553-5.27l-.408-.036-.525.1-.526.1-.397.185c-1.047.49-1.746 1.183-2.787 2.767-.335.51-.995 1.735-.995 1.847 0 .021-.084.219-.186.44-.355.767-.717 2.157-.953 3.659l-.143.908.005 1.159.005 1.159.163.613.163.614.27.508.269.508.407.42.407.42.532.254.533.253.47.074c.258.041.512.084.563.096.218.051 1.517-.05 2.067-.161m16.187-.739c.134-.091.33-.272.433-.4l.189-.235.028-.338.028-.338-.078-.242c-.196-.616-1.048-1.104-1.388-.796l-.115.103v.164c0 .195-.2.957-.386 1.464l-.132.363.068.151.07.151.3.093.3.092.219-.033c.12-.017.329-.107.464-.199m-13.574-3.91c.033-.042.096-.247.14-.453.12-.566.477-1.449.79-1.95l.278-.448v-.393l-.172-.067a2.5 2.5 0 0 0-.522-.1l-.349-.033-.36.105-.36.104-.283.26a2.4 2.4 0 0 0-.415.514l-.134.254-.002.563-.002.564.167.282c.377.636 1.025 1.06 1.225.799zm11.3-3.552c.727-.527 3.122-1.219 4.493-1.299l.648-.037.03-.077c.047-.125-.139-.766-.77-2.654-.75-2.247-1.012-2.773-1.794-3.613l-.328-.352-.29-.033-.29-.032-.712.173-.712.174-.97.421c-1.519.66-3.128 1.42-3.54 1.67-.493.3-1.927 1.218-1.996 1.278l-.054.046.447.881.447.882.08.392.079.393.686.037c1.457.078 2.797.627 3.791 1.554.474.442.43.431.755.196" transform="translate(-104.473 -217.55)"/></svg>