<svg width="41.288" height="41.382" viewBox="0 0 10.924 10.949" xmlns="http://www.w3.org/2000/svg"><path d="M63.226 96.544q-1.256.047-2.156.284-.876.237-1.469.758-1.16 1.02-1.16 3.222 0 .19-.166.214-.166 0-.166-.26-.024-1.446-.332-2.323-.308-.9-.876-1.397-.545-.498-1.35-.664-.806-.19-1.849-.213-.19 0-.19-.166.024-.166.167-.166Q55.1 95.81 56 95.525q.9-.284 1.445-.829.522-.545.735-1.35.213-.806.213-1.896.024-.284.19-.26.165.024.165.26.024 1.73.427 2.678.426.947 1.066 1.421.616.45 1.398.569.805.094 1.634.094.261 0 .237.166 0 .166-.284.166m-3.838.782q.782-.687 2.038-.924-.356-.095-.711-.213-.332-.142-.664-.38-.52-.378-.923-.994-.38-.64-.57-1.659-.212 1.09-.876 1.777-.758.782-2.18 1.066.948.213 1.635.782.427.403.711.971.308.569.45 1.398.308-1.113 1.09-1.824m4.904 2.369q.142 0 .142.166.024.166-.166.166-1.137.023-1.682.497-.52.427-.544 1.35-.024.285-.19.261-.142-.047-.142-.237-.024-.64-.166-1.018-.142-.403-.403-.64-.237-.213-.592-.284-.355-.095-.806-.119-.213 0-.213-.166t.166-.166q1.256-.023 1.706-.52.26-.261.332-.617.094-.379.118-.9 0-.166.166-.142t.166.142q.023.806.213 1.256t.497.663q.285.19.64.26.355.048.758.048m-7.486-.971q.166 0 .166.165 0 .166-.166.166-.64.048-.924.285t-.308.734q-.024.19-.19.19-.142-.024-.166-.166 0-.664-.307-.924-.119-.119-.332-.166-.19-.047-.45-.071-.142 0-.142-.166t.118-.166q.687-.023.971-.284.237-.26.237-.806.024-.213.166-.165.166.023.166.142.024.45.118.687.119.237.285.355.166.119.355.166.19.024.403.024m5.567 1.54q.308-.261.71-.403-.118-.048-.212-.095-.071-.047-.19-.095-.474-.355-.663-1.042-.166.379-.38.592-.26.284-.805.474.308.095.545.308.356.308.521.9.19-.426.474-.64m-6.728-1.185q.19-.142.308-.19l-.095-.07q-.26-.19-.379-.498-.095.142-.166.213-.118.142-.355.26l.19.12q.165.189.284.426l.094-.143z" style="font-size:23.6911px;font-family:&quot;Blustina Extras&quot;;-inkscape-font-specification:&quot;Blustina Extras&quot;;stroke-width:1.11052" aria-label="N" transform="translate(-53.513 -91.188)"/></svg>