<svg width="65.411" height="66.499" viewBox="0 0 17.307 17.595" xmlns="http://www.w3.org/2000/svg"><path d="M52.529 18.224q.047-1.113.853-2.203t1.99-1.824q.805-.522 1.634-.759.853-.237 1.73-.118.876.118 1.54.663 2.06 1.706.924 5.994-.664 2.488-2.488 5.923-.379.734-1.445 2.63-.616 1.113-.924 1.587-.213.332-.355.497-.072.119-.119.166-.024.024-.071.048-.047.047-.118.047-.119 0-.308-.095-.166-.07-.38-.19-.379-.212-.947-.615l-.616-.427-.592-.426q-.237-.19-.332-.237l-.64-.403-.829-.545-.876-.568q-.593-.38-1.02-.711l-.97-.71q-.545-.427-.972-.806-1.587-1.398-2.322-2.63-.876-1.492-.426-2.748.498-1.398 1.895-2.038 1.398-.663 3.08-.544 1.824.142 3.104 1.042m-5.568.64-.26.19-.048.07.26-.19zm1.943 3.885.924-.877 1.303-1.184 1.184-.995.735-.521q-.142-.166-.308-.332l-.38.355.025.024-.474.403-1.114 1.042-.474.474-1.066 1.185zm-.474.38.782-.854.071-.095-.782.759-.782.781-.237.308.237-.142.735-.71zm3.34-2.796.214-.166.64-.569-.261.19-1.185.995-1.303 1.137-.166.19.948-.782.071-.072.877-.781zm2.725-3.34-.474.402-1.042.947-.142.119.094.095.119-.095 1.303-1.256.734-.663.214-.19.047-.047-.237.142zm3.009-2.702-.071.024-.64.332-.948.592-.995.616-.924.71-.687.356q-.331.687-.379 1.327l.166-.142.995-.83.403-.355.71-.616 1.114-1.09.995-.734zm-.166.237-.047.048-.995.734-.853.805.308-.189.64-.569.923-.781zm-3.601 2.038.142-.095.924-.71.995-.617.948-.592.568-.284-.545.118-1.232.782-1.066.805zm3.127-.38-.284.19-1.043.71-.924.735-.876.664-.355-.024-.048-.071.356-.403.142-.166-.735.687-.095.095q.19.19.356.38l.047-.025 1.019-.852 1.564-1.232zm-5.733 5.094.332-.332 1.729-1.445.071-.047q-.047-.071-.118-.166l-.19.166-1.113.948-1.138.995-.165.19zm.924-.687.64-.521.64-.498-.025-.023-.07.047zm2.108-1.682-.568.426v.024zm3.815-2.63-.166.095-1.374.853-1.517 1.113-.616.45 1.517-1.066 1.421-.923zm-9.69 7.842.616-.474 1.303-1.137 1.73-1.374 1.563-1.185q-.047-.165-.118-.308l-.64.522-1.35 1.066-.214.118-1.232 1.114-1.137 1.066zm8.292-6.136-.924.545-1.777 1.256-.047.047q.023.047.047.118l1.28-.97zm3.27-.948-.712.261-1.587.971-1.942 1.232-2.038 1.422-1.232.971 1.706-1.232 1.895-1.232 1.777-1.066 1.327-.853zm.165 1.493.119-.047zm-1.208 6.42.023.024q1.446-2.867 2.038-5.07 1.066-4.075-.83-5.638-.97-.711-2.131-.64-1.161.095-2.37.853-1.445.9-2.203 2.25l.284-.213.806-.64 1.066-.805 1.232-.782 1.066-.213.047.071v.024l-.473.45-.924.83-.356.307.048.048-.616.497-.356.308-.734.71-.687.711-.284.356h.237l.876-.664.924-.734 1.042-.71.9-.546.475-.331.284-.119.047.071-.924.616-1.28.995-1.563 1.232-.758.616.048.071-.332.214q.047.07.118.142l1.327-.995 1.516-1.114 1.374-.853.948-.426.047.071-.52.308-.948.663-1.422.924-1.587 1.114-.64.497q.095.142.142.308l.048-.047 1.776-1.256 1.588-.924.521-.284.26-.19.9-.52.048.07-.521.356-.64.355-1.042.71-1.516 1.067-1.303.971q0 .071.023.119.048.165-.118.213-.142.024-.213-.095l-.024.024-1.658 1.327-1.47 1.303-1.113.923-.71.688-.048.07.64-.378 1.208-.948.308-.213.853-.711 1.943-1.54 2.037-1.421 1.943-1.232 1.587-.972 1.16-.426.048.07-.284.19-.924.569-1.327.853-1.776 1.066-1.896 1.232-1.848 1.327-1.468 1.066-.711.592-.995.9-.166.119.379-.19 1.28-1.019 1.752-1.374 1.99-1.421 1.967-1.208 1.753-1.043 1.327-.663.64-.308.047.071-.569.332-1.398.853-1.895 1.255-2.108 1.516-1.967 1.564-1.516 1.256-.663.64.165-.072 1.303-.924 1.801-1.303 2.037-1.374 2.156-1.327 1.422-.829 1.16-.758 1.067-.45.047.071-.497.284-1.303.711-.403.237-.474.308-2.085 1.374-1.99 1.516-1.848 1.446-1.421 1.16-.853.853-.119.166.522-.284 1.232-.948 1.61-1.232 1.777-1.255 1.754-1.114 1.208-.734 1.16-.782.83-.355.047.07-.545.261-1.137.71-.308.167-.213.166-1.777 1.184L54.4 23.27l-1.563 1.303-1.185.995-.426.498 1.09-.593 1.445-1.113 1.705-1.185 1.517-1.042 1.279-.805.545-.332.047-.048.048-.023.26-.166.403-.166.047.071-.663.356-.095.047-1.232.9-1.587 1.161-1.564 1.256-1.397 1.137-1.043.9-.403.474.948-.498 1.445-1.113 1.587-1.137 1.517-1.09 1.303-.806.758-.402.047.07-.995.64-1.445 1.09-1.54 1.208-1.492 1.232-1.114.948-.616.498.166.047 1.042-.782 1.398-1.113 1.611-1.138 1.422-.923.947-.57.356-.141.047.07-.806.57-1.255.923-1.445 1.114-1.35 1.113-.996.924-.284.237.355-.213 1.232-.995 1.398-1.113 1.398-.924 1.042-.664.569-.308.047.071-.26.214-1.02.805-1.255.971-1.208.924-.924.877-.569.545-.047.07.521-.212 1.066-.806 1.256-.853 1.16-.782.806-.379zm-2.109 2.962-.237.118-.663.45-.782.664-.71.379-.048-.071.355-.308.664-.616.853-.711.805-.806.142-.142-.118.071-.853.616-.924.782-.83.592-.283.071-.048-.07.356-.285.758-.64.947-.876 1.114-.853.995-.806.379-.308-.071.024-.806.38-1.16.781-1.256.853-1.066.805-.735.285-.047-.071.213-.214.569-.544.924-.924 1.208-.924 1.256-.972.758-.592-1.043.663-1.397.924-1.398 1.114-1.232.995-.83.45-.047-.071.711-.592.995-.9 1.35-1.138 1.446-1.113 1.255-.924.237-.166-.687.426-1.421.924-1.611 1.137-1.398 1.114-1.09.782-.26-.071v-.095l.663-.569 1.113-.947 1.493-1.232 1.54-1.208 1.113-.83-.687.427-1.516 1.09-1.587 1.137-1.446 1.113-1.184.592-.047-.07.592-.64 1.042-.948 1.398-1.137 1.564-1.256 1.587-1.16-.545.355-1.516 1.042-1.706 1.185-1.445 1.113-1.327.687-.047-.07.616-.664 1.184-1.043 1.564-1.303 1.61-1.137-.686.45-1.777 1.256-1.611 1.232-1.232.948-.758.379-.047-.071.308-.332.852-.853 1.422-1.208 1.848-1.445 1.99-1.517 1.16-.758-2.155 1.327-2.038 1.374-1.8 1.303-1.303.924-.38.119-.047-.072.83-.758 1.516-1.303 1.966-1.563 2.109-1.517 1.895-1.255.758-.45-.71.355-1.754 1.042-1.966 1.209-1.99 1.421-1.753 1.374-1.28 1.019-.758.38-.047-.072.497-.426.237-.214-.853.498-.07-.071.236-.26.711-.688 1.113-.971 1.47-1.303 1.658-1.327.047-.024q-.024-.07-.024-.142l-1.563 1.185-1.73 1.374-1.303 1.137-.995.734-.07-.07.212-.214.664-.71 1.137-1.067.924-.876-.521.284-.024-.047-.805.616-.664.663-.19.071-.852.853-.403.213-.071-.07.332-.451.829-.782 1.09-1.09 1.184-1.184-.805.616-1.232 1.113-.924.995-.545.38-.071-.072.26-.379.759-.734 1.066-1.161 1.113-1.208.971-.972v-.023l-.023.023-.9.711-1.138.995-1.232 1.043-.995.995-.331.19-.071-.072.26-.332.64-.71.971-1.043 1.232-1.208-.308.142-1.208 1.114-1.114 1.042-.852.806-.072-.072.498-.497.9-.948 1.185-1.16 1.137-1.043-.83.64-1.184 1.018-.971.948-.616.403-.071-.071.213-.26.687-.712.971-.995.948-.924.166-.165-.332.236-.876.759-.9.829-.853.64-.072-.072.308-.331.593-.711.758-.853.782-.734.166-.19-.545.45-.758.664-.759.616-.355.308-.071-.072.142-.213.284-.402-.355.023-.047-.07.237-.38.284-.379-.474.474-.19.166-.07-.071.142-.19v-.024l.047-.07.355-.427.735-.616.023.024.427-.356.071.071-.213.19-.285.26-.355.45-.403.545-.213.308.38-.047.568-.521.64-.687.402-.26.142-.12.285-.141.047.07-.426.285-.308.26-.593.522-.687.687h-.023l-.024.024-.26.379.094-.095.758-.616.758-.664.687-.568.332-.26.071.07-.616.64-.782.734-.71.853-.57.687.451-.355.9-.782.877-.805.782-.545.474-.332.047.071-.213.166-.83.71-.947.925-.971.995-.64.71-.048.048.38-.26.97-.901 1.185-1.066 1.114-.853.758-.521.047.07-.995.854-1.137.995-1.184 1.16-.38.427.925-.853 1.208-1.113 1.09-.972.781-.592.308-.19.048.072-.735.592-1.09 1.042-1.231 1.209-.972 1.042-.592.71-.118.143.118-.071.995-.948 1.232-1.09 1.137-.995.9-.71.498-.285.047.071-.426.356-.971.971-1.114 1.208-1.066 1.161-.71.735-.143.19.355-.261.924-.948 1.232-1.16 1.185-.996.663-.497.948-.877-.095-.071-.284.237-.071-.071.213-.19.047-.07q-1.232-.949-3.08-1.067-1.587-.118-2.89.474-1.28.592-1.73 1.848-.402 1.113.403 2.487.688 1.185 2.227 2.535l.972.782q.521.427.947.734l.995.688.877.568.853.545.64.403q.094.047.331.237l.592.426.616.427q.57.379.924.592.214.142.356.19.07.047.118.047.048-.024.095-.095.118-.166.308-.498.355-.568.924-1.563l1.469-2.606.308-.64-.498.45-.995.806-1.113.853-.948.829-.758.687.71-.498.925-.781.853-.616.544-.332.048.071-.521.474-.806.805-.853.758-.663.569-.047.071.355-.213.782-.663.663-.45.38-.166.07.07-.142.214-.616.71-.758.664-.498.545-.047-.048.498-.544.758-.664.568-.71z" style="font-size:23.6911px;font-family:PWLittleHearts;-inkscape-font-specification:PWLittleHearts;stroke-width:1.11052" aria-label="P" transform="translate(-44.297 -13.28)"/></svg>