<svg width="78.392" height="119.645" viewBox="0 0 20.741 31.656" xml:space="preserve" xmlns="http://www.w3.org/2000/svg"><path style="fill:#000" d="M60.406 99.345c-.007-.012-.03-.022-.05-.022a.1.1 0 0 1-.063-.03c-.014-.017-.056-.031-.094-.031-.037 0-.073-.01-.08-.02-.007-.012-.027-.021-.044-.021-.04 0-.274-.143-.274-.167 0-.01-.017-.017-.037-.017s-.064-.028-.096-.062-.069-.061-.08-.061a1 1 0 0 1-.17-.144q-.253-.249-.331-.178a.25.25 0 0 1-.105.041c-.04.007-.141.027-.226.047a3 3 0 0 1-.465.043c-.284.007-.318.004-.395-.035-.046-.023-.092-.037-.101-.031s-.043-.003-.074-.019c-.03-.015-.068-.024-.083-.018-.014.005-.036-.01-.049-.033a.09.09 0 0 0-.074-.042.3.3 0 0 1-.175-.078.2.2 0 0 0-.075-.034q-.06-.012-.191-.138a.4.4 0 0 0-.078-.057c-.024-.012-.043-.036-.043-.052s-.02-.04-.045-.053a.4.4 0 0 1-.09-.078l-.097-.109a.3.3 0 0 1-.065-.096.1.1 0 0 0-.053-.054c-.03-.01-.037-.024-.028-.053q.011-.04-.05-.135a.5.5 0 0 1-.064-.115c0-.012-.013-.035-.028-.053a1 1 0 0 1-.075-.161.6.6 0 0 0-.064-.14c-.01-.006-.017-.03-.017-.055a.7.7 0 0 0-.043-.158 1.4 1.4 0 0 1-.06-.205 2 2 0 0 0-.069-.235 1 1 0 0 1-.054-.195.6.6 0 0 0-.033-.144c-.036-.1-.037-.108-.062-.768-.014-.374-.011-.623.013-1.086a1 1 0 0 1 .042-.15.6.6 0 0 0 .04-.169c0-.033.009-.077.019-.096l.04-.087a1 1 0 0 1 .041-.082c.01-.017.044-.08.074-.14s.098-.154.15-.21c.103-.112.168-.21.168-.252 0-.015-.018-.044-.04-.064s-.042-.053-.042-.073-.022-.063-.048-.095a.4.4 0 0 1-.062-.102.2.2 0 0 0-.044-.069.1.1 0 0 1-.03-.072c0-.026-.01-.053-.02-.06-.012-.007-.021-.038-.021-.07a.2.2 0 0 0-.03-.095.33.33 0 0 1-.031-.16.5.5 0 0 0-.023-.16.4.4 0 0 1-.024-.137c-.002-.12-.063-.229-.129-.229-.026 0-.055-.012-.064-.028a.3.3 0 0 0-.087-.07c-.114-.07-.173-.312-.116-.476a.6.6 0 0 0 .032-.148.3.3 0 0 1 .052-.138.4.4 0 0 0 .051-.1c0-.033.086-.163.2-.301.163-.198.158-.212-.143-.448-.128-.1-.157-.135-.167-.193-.015-.092.006-.251.039-.29a1 1 0 0 0 .059-.097c.018-.037.099-.131.178-.21l.146-.144h.117c.098 0 .125.008.165.051.027.028.06.051.072.051.013 0 .035.024.047.052.013.028.032.05.041.05a.3.3 0 0 1 .086.062c.096.086.186.084.254-.005.028-.037.063-.09.078-.119.032-.062.095-.142.226-.289a.5.5 0 0 0 .098-.132c0-.013.015-.036.034-.051.057-.048.191-.268.191-.315q-.001-.069-.5-.513a9 9 0 0 1-.561-.559 3 3 0 0 1-.293-.388c-.01-.025-.027-.047-.039-.047-.011 0-.02-.013-.02-.03 0-.016-.027-.06-.06-.097-.126-.144-.473-.764-.473-.844a.2.2 0 0 0-.028-.084 1 1 0 0 1-.064-.164.6.6 0 0 0-.065-.155.15.15 0 0 1-.028-.085.8.8 0 0 0-.051-.188.8.8 0 0 1-.051-.216.5.5 0 0 0-.041-.175.6.6 0 0 1-.041-.216c0-.066-.01-.126-.02-.133-.027-.016-.029-1.08-.002-1.107a1 1 0 0 0 .028-.225c.006-.112.021-.246.034-.297s.032-.175.04-.277a1 1 0 0 1 .04-.229.3.3 0 0 0 .023-.116c0-.04.01-.078.02-.085.012-.007.021-.036.021-.066s.012-.068.027-.086a.7.7 0 0 0 .096-.271c0-.03.014-.065.03-.079a.1.1 0 0 0 .032-.063c0-.021.027-.088.06-.15a.5.5 0 0 0 .057-.15.2.2 0 0 1 .04-.098c.102-.15.15-.23.18-.3a.3.3 0 0 1 .052-.089c.011-.007.02-.027.02-.044 0-.018.027-.066.059-.107a1 1 0 0 0 .067-.095 5 5 0 0 1 .146-.228c.1-.151.138-.226.138-.275 0-.037.014-.083.031-.102a.6.6 0 0 0 .069-.14.6.6 0 0 1 .052-.12.4.4 0 0 0 .045-.086.3.3 0 0 1 .07-.099c.022-.015.04-.046.04-.068s.015-.04.032-.04.041-.023.054-.05c.013-.03.03-.052.04-.052.008 0 .035-.028.06-.063.054-.076.037-.131-.08-.259-.09-.099-.228-.317-.228-.36a.08.08 0 0 0-.029-.054.2.2 0 0 1-.04-.081 1 1 0 0 0-.062-.169c-.08-.173-.087-.25-.059-.592.012-.14.029-.215.06-.266a.7.7 0 0 0 .059-.123.5.5 0 0 1 .05-.102l.11-.168a.7.7 0 0 1 .126-.154l.17-.126c.067-.05.185-.113.262-.142.13-.048.174-.054.515-.06.337-.007.38-.004.45.031.043.022.083.04.088.04.069.004.177.044.354.13a.2.2 0 0 0 .064.018c.016 0 .034.014.04.03a.05.05 0 0 0 .046.031.4.4 0 0 1 .125.062c.05.034.1.061.11.061s.02.01.02.021.037.036.082.054.092.05.103.071c.055.102.224.005.224-.126 0-.06-.015-.083-.095-.148a.6.6 0 0 0-.144-.09c-.026-.006-.048-.024-.048-.039s-.021-.04-.048-.054l-.132-.073a.4.4 0 0 1-.096-.066 1 1 0 0 0-.15-.111 1 1 0 0 1-.166-.123.1.1 0 0 0-.063-.033c-.02 0-.052-.023-.07-.051s-.051-.051-.073-.051-.047-.013-.056-.028a.6.6 0 0 0-.13-.096 2 2 0 0 1-.163-.11 1.4 1.4 0 0 0-.236-.16.6.6 0 0 1-.102-.071 2 2 0 0 0-.202-.14 7 7 0 0 1-.278-.187 2 2 0 0 0-.167-.11 4 4 0 0 1-.199-.126.8.8 0 0 0-.179-.1c-.017 0-.03-.008-.03-.019s-.022-.031-.048-.046a1 1 0 0 1-.238-.162.4.4 0 0 0-.083-.066 1 1 0 0 1-.123-.085 2 2 0 0 0-.185-.122 2 2 0 0 1-.194-.132 13 13 0 0 1-.416-.343 1 1 0 0 0-.162-.118.23.23 0 0 1-.086-.07.5.5 0 0 0-.113-.105c-.052-.04-.094-.083-.094-.097s-.02-.037-.046-.05c-.039-.02-.458-.435-.62-.613a3 3 0 0 1-.239-.357.5.5 0 0 0-.076-.102c-.024-.021-.044-.055-.044-.074a.1.1 0 0 0-.03-.061c-.017-.014-.031-.035-.031-.046a.5.5 0 0 0-.062-.11.4.4 0 0 1-.061-.117.4.4 0 0 0-.05-.106.4.4 0 0 1-.052-.123.7.7 0 0 0-.062-.164.6.6 0 0 1-.061-.201.3.3 0 0 0-.025-.123c-.028-.05-.053-.194-.074-.424a.5.5 0 0 0-.05-.204c-.031-.044-.036-.103-.036-.461 0-.367.004-.417.04-.474a.5.5 0 0 0 .05-.175c.02-.207.038-.294.066-.335a.2.2 0 0 0 .03-.102c0-.066.089-.236.252-.484l.13-.2c.072-.116.417-.423.57-.507q.384-.213.439-.214a.3.3 0 0 0 .11-.034c.07-.037.185-.062.362-.08a1 1 0 0 0 .19-.04c.115-.045 1.337-.044 1.422 0 .032.017.1.031.15.031.106 0 .317.042.451.09.05.018.112.033.136.033s.085.023.134.051.11.052.136.052.074.014.106.03c.032.017.103.046.158.064a.5.5 0 0 1 .131.062c.018.015.043.028.057.028.013 0 .04.008.06.018.41.204.494.25.508.271.006.01.026.019.044.019.019 0 .053.017.076.04.023.02.107.072.186.114.079.041.166.096.194.121.029.025.11.08.18.123s.128.084.128.095.018.019.04.019.047.013.056.028c.026.045.227.197.26.197a.06.06 0 0 1 .047.03c.015.025.194.176.363.304.149.114.349.286.56.482.42.388 1.542 1.528 1.542 1.566 0 .009.01.016.02.016s.035.027.052.061c.018.034.046.062.062.062.017 0 .03.008.03.018 0 .025.147.205.303.37.07.076.128.146.128.156s.04.061.087.112c.048.051.114.134.148.185s.128.165.21.255.149.172.149.182c0 .022.089.106.144.136.049.026.186-.006.225-.052.014-.017.038-.03.053-.03s.06-.022.099-.05c.08-.054.628-.325.831-.41.074-.031.17-.074.215-.096a.4.4 0 0 1 .117-.039c.02 0 .04-.008.046-.018s.043-.024.081-.031a.6.6 0 0 0 .132-.044 1 1 0 0 1 .171-.05c.06-.01.155-.032.212-.05a1 1 0 0 1 .217-.032.6.6 0 0 0 .195-.035c.048-.02.173-.041.315-.051l.387-.029c.096-.007.159-.003.173.01a.5.5 0 0 0 .187.024q.164 0 .278.04a.7.7 0 0 0 .199.04c.047 0 .116.014.153.03s.11.04.16.053c.05.014.148.052.217.084a1 1 0 0 0 .149.06c.03 0 .409.185.475.232.103.072.336.222.388.249.076.039.567.528.583.581.008.024.027.044.044.044s.029.008.029.018c0 .017.027.052.181.238.092.112.352.576.352.63 0 .013.016.042.037.065a.4.4 0 0 1 .063.125c.015.045.068.167.117.272.05.105.09.2.09.213s.023.092.05.178c.099.307.15.52.172.714.008.07.026.139.04.153s.025.076.026.139c0 .062.015.182.032.267a3 3 0 0 1 .042.307c.006.085.02.163.03.173.01.011.018.412.018.916v.896l.073.123a.6.6 0 0 0 .118.153c.081.053.219.198.219.23a.05.05 0 0 0 .03.043c.018.006.096.097.174.2.078.105.156.201.174.216s.032.04.032.056c0 .017.026.057.06.09.032.033.103.127.157.208.054.082.132.195.173.252.042.057.11.172.154.256.043.084.09.167.103.184.046.057.254.477.254.513 0 .019.023.069.051.11a.4.4 0 0 1 .052.095c0 .011.027.07.061.13s.062.13.062.158.014.067.03.09c.017.021.031.064.031.095s.01.062.02.07c.012.006.021.03.021.052 0 .023.018.076.04.12.022.043.036.083.03.088-.01.01.059.24.093.313.01.023.023.082.028.133.005.05.02.13.034.174.013.045.038.184.054.308.017.124.04.253.054.287.012.033.026.13.031.215a.6.6 0 0 0 .03.179c.03.036.026 1.443-.003 1.498a.5.5 0 0 0-.022.156.4.4 0 0 1-.03.16.5.5 0 0 0-.04.169c-.018.193-.043.305-.08.359a.3.3 0 0 0-.035.14.6.6 0 0 1-.061.22.7.7 0 0 0-.062.17c0 .021-.012.043-.026.049-.015.005-.039.05-.054.1l-.053.16c-.015.04-.033.097-.04.127a.3.3 0 0 1-.058.112 1.2 1.2 0 0 0-.118.221 3 3 0 0 1-.285.493c-.05.071-.206.309-.237.359a2 2 0 0 1-.123.152c-.056.065-.106.13-.112.144-.018.044-.526.482-.56.482a2 2 0 0 0-.128.115 2 2 0 0 1-.162.141l-.193.126a6 6 0 0 1-.243.152l-.143.073c-.06.028-.108.06-.108.071s-.017.019-.038.019a.3.3 0 0 0-.108.047 7 7 0 0 1-.68.334.3.3 0 0 1-.085.029 1 1 0 0 0-.175.061.8.8 0 0 1-.204.062.2.2 0 0 0-.094.03.2.2 0 0 1-.095.03 1.2 1.2 0 0 0-.34.088.3.3 0 0 1-.112.028 1 1 0 0 0-.159.026 2.2 2.2 0 0 1-.522.08 1 1 0 0 0-.225.024c-.019.015-.551.057-.879.068-.115.005-.122.008-.164.08l-.043.075.046.081a.4.4 0 0 1 .045.113c0 .017.013.035.03.042.047.018.146.181.175.29a.5.5 0 0 0 .044.122q.045.049-.03.257c-.045.126-.056.139-.207.243-.191.133-.237.2-.237.347a.5.5 0 0 1-.038.184.7.7 0 0 0-.054.2.7.7 0 0 1-.054.198.4.4 0 0 0-.038.15c0 .04-.01.091-.021.112q-.021.039 0 .052c.011.007.02.066.02.132 0 .104.007.123.051.152a.2.2 0 0 0 .07.033 1 1 0 0 0 .232-.108c.224-.134.316-.179.37-.179a.3.3 0 0 0 .096-.02c.036-.019.409-.047.595-.045.085.001.278.024.446.053a.5.5 0 0 1 .127.043c.034.017.07.03.081.03s.062.028.112.062.102.062.115.062.054.023.09.051a.3.3 0 0 0 .09.051c.03 0 .353.325.353.356a.3.3 0 0 0 .06.096c.034.039.062.08.062.093s.024.07.052.127a.5.5 0 0 1 .052.143c0 .02.016.06.036.087.047.068.07.299.07.717 0 .367-.014.526-.054.574a.6.6 0 0 0-.093.198c0 .015-.01.027-.022.027s-.031.028-.043.062c-.012.033-.029.061-.038.061s-.04.042-.07.093a1.6 1.6 0 0 1-.388.393.4.4 0 0 0-.101.08.06.06 0 0 1-.05.028.5.5 0 0 0-.132.062.5.5 0 0 1-.127.061c-.016 0-.04.014-.054.031a.1.1 0 0 1-.073.03c-.026 0-.053.01-.06.021s-.038.02-.069.02c-.03 0-.066.011-.079.024-.021.021-.082.038-.282.077a1 1 0 0 0-.162.05.66.66 0 0 1-.455-.015 2 2 0 0 0-.24-.073c-.102-.021-.13-.02-.188.008-.038.018-.075.05-.082.072s-.026.044-.042.05-.03.028-.03.049c0 .02-.023.064-.05.098l-.123.148c-.074.091-.426.394-.458.394a.5.5 0 0 0-.109.06.4.4 0 0 1-.12.062.12.12 0 0 0-.063.032.6.6 0 0 1-.14.069.5.5 0 0 0-.13.06c-.014.014-.048.024-.077.024-.03 0-.063.008-.073.017-.035.03-.398.132-.604.17-.225.04-.279.053-.317.074a1.4 1.4 0 0 1-.236.058 1.4 1.4 0 0 0-.25.063.4.4 0 0 1-.133.028.6.6 0 0 0-.17.033c-.05.018-.194.055-.318.082s-.267.06-.317.07c-.051.012-.137.03-.192.038s-.105.026-.113.038c-.007.013-.073.03-.146.037a.6.6 0 0 0-.154.03c-.029.022-.203.062-.353.08a.5.5 0 0 0-.16.044q-.06.048-.419.074c-.107.007-.181.022-.194.039-.025.032-.224.047-.814.062q-.401.01-.416-.011m.518-.464c.037-.025.08-.03.215-.02.092.007.214.013.27.015.113.002.446-.065.52-.104a.7.7 0 0 1 .143-.044c.156-.03.32-.07.342-.083a.6.6 0 0 1 .122-.028c.056-.008.134-.027.174-.041s.128-.037.196-.05c.067-.014.169-.037.225-.053s.135-.033.174-.038c.04-.005.104-.019.144-.03.224-.064.315-.086.37-.086s.112-.012.388-.083c.04-.01.104-.022.144-.026a.5.5 0 0 0 .137-.041.3.3 0 0 1 .107-.034c.051 0 .21-.037.32-.074a.6.6 0 0 1 .141-.029c.063 0 .141-.021.306-.084a.6.6 0 0 1 .156-.038c.031 0 .068-.014.082-.031a.1.1 0 0 1 .059-.031c.042 0 .315-.15.35-.193.014-.018.035-.032.045-.032.041 0 .488-.445.488-.487 0-.014.015-.042.033-.061.06-.068.123-.18.17-.303.026-.067.055-.139.066-.158a.2.2 0 0 0 .019-.093c0-.031.018-.107.04-.169.032-.087.041-.163.041-.338s-.009-.251-.04-.338a.7.7 0 0 1-.041-.18c0-.037-.024-.141-.053-.23a2 2 0 0 1-.06-.224.5.5 0 0 0-.036-.118 1 1 0 0 1-.055-.15 1 1 0 0 0-.053-.153 1 1 0 0 1-.04-.123c-.038-.182-.05-.216-.091-.27-.036-.045-.06-.056-.11-.05a.2.2 0 0 0-.109.05 1 1 0 0 1-.12.096 4 4 0 0 0-.148.107.3.3 0 0 1-.1.057c-.013 0-.035.012-.048.028a.3.3 0 0 1-.12.054 1 1 0 0 0-.159.058.6.6 0 0 1-.153.046l-.233.037c-.082.013-.24.018-.379.01-.327-.016-.326-.016-.343-.034a.3.3 0 0 0-.123-.015.5.5 0 0 1-.237-.061 1 1 0 0 0-.153-.062c-.013 0-.035-.014-.049-.03a.1.1 0 0 0-.072-.031.2.2 0 0 1-.108-.052.3.3 0 0 0-.08-.05.3.3 0 0 1-.078-.062c-.032-.034-.08-.062-.105-.062s-.05-.008-.057-.018c-.014-.022-.12-.042-.33-.064a2.2 2.2 0 0 1-.445-.089c-.1-.025-.228-.088-.415-.203a1 1 0 0 1-.108-.081c-.087-.073-.156-.09-.226-.054-.11.057-.27.165-.27.183 0 .01-.011.019-.024.019a.3.3 0 0 0-.087.047 2 2 0 0 1-.284.16.2.2 0 0 1-.064.018.2.2 0 0 0-.08.041.2.2 0 0 1-.104.041c-.029 0-.058.01-.065.02-.007.012-.034.021-.06.021s-.058.013-.071.029-.067.034-.12.04a1.2 1.2 0 0 0-.281.054 1 1 0 0 1-.123.033c-.085.017-1.08.022-1.28.006l-.114-.008-.056.113-.056.112.008.39c.01.407.023.566.053.635.023.053.04.148.06.338.01.084.033.204.052.266s.043.153.054.203c.01.05.032.118.05.152a.3.3 0 0 1 .03.125c0 .065.034.173.078.251a.3.3 0 0 1 .025.106c0 .034.017.096.038.14.043.086.125.298.166.427.014.045.043.118.065.163a.4.4 0 0 1 .038.103c0 .039.236.385.31.455.095.09.407.293.45.293.02 0 .042.01.05.021.022.036.17.102.229.103.031 0 .075.014.097.03.056.043.315.041.376-.002m-2.255-.655c.112-.011.134-.021.19-.085.05-.057.062-.085.051-.127l-.025-.115c-.006-.034-.024-.069-.04-.078a.07.07 0 0 1-.027-.051 1 1 0 0 0-.102-.278c-.012-.012-.021-.048-.021-.082a.5.5 0 0 0-.045-.153 1 1 0 0 1-.059-.165 2 2 0 0 0-.047-.166 2 2 0 0 1-.054-.215 1 1 0 0 0-.053-.181.4.4 0 0 1-.03-.158.5.5 0 0 0-.062-.255c-.028-.072-.043-.16-.06-.37-.01-.112-.027-.287-.04-.389-.035-.295-.028-.734.013-.85.033-.092.033-.1-.001-.152a.24.24 0 0 0-.091-.077 7 7 0 0 1-.434-.203.7.7 0 0 1-.117-.071.24.24 0 0 0-.097-.05c-.018 0-.032-.009-.032-.02 0-.02-.116-.083-.156-.083-.015 0-.037-.018-.05-.04-.011-.023-.038-.042-.06-.042-.02 0-.041-.008-.045-.018a1 1 0 0 0-.125-.114c-.091-.074-.128-.092-.163-.081-.062.02-.25.218-.293.31-.02.043-.058.112-.085.154a.3.3 0 0 0-.048.14.4.4 0 0 1-.046.148c-.044.084-.045.103-.043.66.002.466.01.599.037.707.02.073.043.198.052.277.02.166.043.27.09.4.018.05.033.11.033.133 0 .046.067.247.089.27.007.007.014.037.014.066s.013.073.03.096c.015.023.04.083.052.133.013.05.057.147.099.217.18.306.26.43.312.478.098.092.228.194.265.208.02.008.042.023.05.035.015.026.255.146.29.146.015 0 .06.018.1.04s.103.042.14.042a.2.2 0 0 1 .096.021c.03.02.284.015.548-.012m9.84-1.461a.7.7 0 0 1 .134-.063 1.4 1.4 0 0 0 .185-.086c.116-.065.42-.336.42-.374 0-.014.027-.052.06-.084.035-.033.062-.08.062-.105s.013-.072.03-.104a.75.75 0 0 0 .073-.372.6.6 0 0 1 .025-.208c.02-.031.02-.054 0-.109a.6.6 0 0 1-.025-.154c0-.137-.051-.317-.135-.475a1.2 1.2 0 0 0-.252-.344 1 1 0 0 0-.164-.148 1 1 0 0 1-.157-.092.6.6 0 0 0-.187-.092.3.3 0 0 1-.115-.035c-.095-.05-.529-.05-.623 0a.4.4 0 0 1-.141.035.36.36 0 0 0-.176.061.6.6 0 0 1-.115.062 1 1 0 0 0-.151.129c-.194.183-.248.338-.164.475a.5.5 0 0 1 .051.15.7.7 0 0 0 .055.169c.022.044.04.106.04.14 0 .033.02.105.043.16.05.116.092.584.084.933q-.006.221.017.22c.012 0 .05-.02.083-.044.047-.035.066-.04.085-.02.019.018.013.024-.028.024a.08.08 0 0 0-.074.048c-.019.042-.012.065.043.154.07.113.141.137.153.05.004-.024.021-.05.039-.056q.068-.027.027.05c-.039.072.039.14.171.149.223.016.574-.008.628-.044m-.742-.18a.1.1 0 0 1 .051 0q.019.009-.025.01-.045-.001-.026-.01m.145 0c.014-.007.032-.006.039 0 .007.008-.005.012-.027.011q-.037 0-.012-.012m-.232-.192q.012-.018.022-.02.008.002.009.02c0 .011-.01.02-.022.02q-.019-.001-.01-.02m-7.52-2.233c.007-.012.046-.021.088-.021a.23.23 0 0 0 .115-.031.3.3 0 0 1 .148-.03c.059 0 .114-.01.121-.023.008-.012.037-.018.065-.012.03.006.054-.002.06-.019.007-.016.021-.028.033-.028.011 0 .085-.033.164-.073a.7.7 0 0 1 .203-.075c.033-.001.067-.015.076-.031.017-.03.06-.058.203-.128.05-.025.096-.065.107-.094.01-.027.028-.05.038-.05s.047-.055.082-.121c.062-.116.063-.123.029-.157-.054-.054-.094-.567-.064-.818.014-.115.034-.194.052-.209.027-.021.046-.075.082-.232.007-.028.025-.058.04-.067a.07.07 0 0 0 .03-.052.3.3 0 0 1 .04-.096q.166-.265.101-.307c-.011-.007-.02-.034-.02-.059s-.01-.056-.023-.068c-.016-.016-.016-.034 0-.063.017-.032.013-.048-.019-.077-.022-.02-.04-.051-.04-.07a.6.6 0 0 0-.076-.21.5.5 0 0 1-.05-.116c-.016-.049-.044-.098-.064-.108q-.037-.02-.036-.1c0-.046-.008-.082-.02-.082-.01 0-.037-.042-.06-.094a1.3 1.3 0 0 0-.145-.223.6.6 0 0 1-.103-.163c0-.019-.013-.039-.029-.045a.3.3 0 0 1-.086-.096 2 2 0 0 0-.135-.173.4.4 0 0 1-.077-.106c0-.031-.374-.402-.441-.438a.7.7 0 0 1-.142-.115c-.045-.046-.099-.084-.12-.084-.022 0-.067-.023-.1-.051-.034-.028-.079-.051-.1-.051a.6.6 0 0 1-.16-.062.6.6 0 0 0-.17-.061.2.2 0 0 1-.09-.028c-.103-.07-.432-.092-.815-.052-.226.023-.33.07-.483.22-.078.078-.086.094-.08.172l.006.087.164.006c.09.004.173.015.183.026s.045.02.076.02.061.008.068.018a.3.3 0 0 0 .114.045c.056.014.102.037.102.05 0 .012.023.035.051.05.057.03.062.064.052.348-.004.127-.014.165-.058.225-.078.108-.315.328-.368.342-.04.01-.046.025-.046.12 0 .07.01.117.031.133.017.014.03.048.03.075s.009.065.019.084a.7.7 0 0 1 .071.296.7.7 0 0 1-.05.155.5.5 0 0 0-.04.105c0 .02-.153.117-.253.161-.037.017-.157.026-.329.026-.256 0-.274.003-.34.051-.07.052-.184.214-.184.261 0 .07-.264.364-.327.364-.013 0-.045.022-.072.049a.3.3 0 0 1-.12.062c-.039.007-.076.027-.083.044-.01.026-.024.024-.098-.013-.171-.087-.242-.198-.242-.378 0-.103-.056-.257-.103-.286-.074-.046-.132.13-.116.353.02.257.044.387.097.507l.061.16c.024.064.051.117.06.117s.025.02.033.046.054.1.104.164a.7.7 0 0 1 .089.136c0 .01.044.047.098.081.054.035.125.091.157.125.033.035.069.063.08.063.016 0 .117.077.2.154.017.016.042.03.055.03s.055.028.093.062c.039.033.08.061.092.061s.047.023.077.051.076.051.102.051.051.014.058.031c.006.017.024.03.04.03s.04.015.055.032.046.03.072.03.051.014.058.031c.006.017.03.03.054.03s.081.02.128.042a.4.4 0 0 0 .151.04c.037 0 .073.01.08.021s.045.02.084.02.086.015.103.032q.03.03.157.03c.07 0 .14.01.158.02.042.028 1.12.028 1.137 0m-.856-.498c-.042-.012-.077-.034-.077-.049s-.022-.027-.05-.027c-.052 0-.134-.106-.134-.175 0-.06.102-.153.168-.153.063 0 .192.073.261.147.056.06.06.232.006.248l-.066.02a.3.3 0 0 1-.108-.011m1.409-.097c-.007-.01-.028-.02-.047-.02-.037 0-.209-.198-.209-.24 0-.014.018-.035.04-.047s.042-.035.042-.052c0-.04.04-.038.087.005.021.02.07.038.108.04.134.009.245.15.204.258-.024.06-.195.104-.225.056m-2.767-.302a.46.46 0 0 1-.197-.186l-.06-.09.047-.051c.04-.044.059-.049.138-.038.05.007.1.021.112.032.011.012.036.02.054.02.045 0 .142.143.142.208 0 .117-.113.168-.236.105m.954-.838a1 1 0 0 1-.118-.072c-.083-.057-.087-.065-.087-.16 0-.129.044-.164.205-.164.116 0 .204.039.204.09 0 .014.019.043.041.063.047.043.055.148.016.202-.027.037-.205.064-.261.04m1.475-.062c-.136-.095-.146-.11-.14-.21l.007-.094.097-.006c.08-.005.104.002.138.041l.103.116c.07.078.076.107.025.15-.064.057-.152.057-.23.003m4.836 1.78a1.2 1.2 0 0 0 .393-.147.2.2 0 0 1 .076-.041c.011 0 .028-.012.037-.027a.4.4 0 0 1 .078-.072c.085-.065.342-.354.378-.426a1 1 0 0 1 .072-.12c.038-.055.061-.109.153-.35a.6.6 0 0 0 .018-.195l-.007-.132-.112.003q-.326.008-.394.053c-.047.03-.12.05-.272.07a.3.3 0 0 0-.103.028.7.7 0 0 1-.184.052c-.063.007-.43.033-.545.039a.6.6 0 0 0-.184.034c-.094.052-.192.08-.212.059a.1.1 0 0 0-.056-.02c-.065 0-.094-.098-.094-.32 0-.143-.01-.241-.035-.318-.065-.2-.23-.494-.27-.48-.013.005-.059-.023-.102-.06-.094-.084-.15-.112-.38-.184-.182-.058-.24-.06-.448-.014l-.153.033a.3.3 0 0 0-.084.032c-.012.01-.029.014-.036.006-.007-.007-.03 0-.05.018a2 2 0 0 1-.184.118.5.5 0 0 0-.148.108.3.3 0 0 1-.062.09c-.034.04-.061.084-.061.1a.06.06 0 0 1-.027.045.7.7 0 0 0-.092.165c-.062.14-.066.164-.066.385 0 .187.008.252.037.312.021.042.05.117.066.166.015.049.04.094.055.1.015.005.027.026.027.046 0 .036.185.246.217.246.01 0 .05.028.088.062.038.033.08.06.094.06a.7.7 0 0 1 .142.052c.107.048.14.051.43.051.264 0 .332-.006.434-.042a3 3 0 0 1 .168-.054.12.12 0 0 0 .067-.05c.024-.045.138-.052.186-.012.049.04.078.126.056.165a.4.4 0 0 0-.014.142c.006.106.008.108.109.163a.5.5 0 0 0 .168.057c.036 0 .071.01.078.022.017.027.587.013.748-.018m-.109-1.82c.059-.006.118-.024.13-.04.015-.018.064-.029.123-.029.055 0 .105-.01.112-.02.007-.012.03-.02.05-.02a.12.12 0 0 0 .072-.034c.018-.018.046-.027.062-.021s.035.002.042-.008.038-.02.07-.02a.4.4 0 0 0 .137-.034.8.8 0 0 1 .264-.064.7.7 0 0 0 .174-.054c.127-.068.142-.073.19-.073a.12.12 0 0 0 .08-.04.3.3 0 0 1 .064-.055c.022-.013.034-.067.042-.195.011-.17.01-.18-.044-.249a2 2 0 0 1-.107-.16 1 1 0 0 0-.139-.177c-.083-.083-.093-.087-.208-.087-.067 0-.127-.01-.134-.02-.007-.012-.102-.021-.213-.021-.158 0-.218-.009-.285-.041-.066-.033-.127-.041-.285-.042q-.203 0-.252-.03a.5.5 0 0 0-.189-.03c-.075 0-.142-.01-.15-.021-.014-.025-.336-.028-.374-.004-.047.03-.06.134-.05.4.01.232.016.27.059.334.047.07.103.166.176.307.02.038.046.07.057.07.01 0 .02.012.02.028s.023.069.051.118.051.121.051.16c0 .052.018.091.065.14.058.063.071.068.148.056.047-.007.133-.018.191-.024m-8.067-.346c.014-.016.037-.03.052-.03.05 0 .24-.265.34-.476a1 1 0 0 0 .03-.185c.01-.108.025-.161.055-.195.052-.056.12-.059.167-.007a.24.24 0 0 0 .12.052c.098.014.105.014.34-.001.153-.01.176-.017.22-.066.042-.048.048-.076.048-.23v-.174l-.173-.173c-.096-.095-.175-.19-.175-.21 0-.046.115-.118.189-.118.03 0 .06-.01.068-.02.007-.012.032-.02.055-.02.05 0 .244-.144.29-.214.061-.094.083-.21.053-.283a.3.3 0 0 0-.049-.082c-.032-.023-.357-.02-.4.004-.074.04-.173.04-.22 0-.044-.035-.047-.053-.047-.275v-.238l-.106-.112-.107-.112-.043.04c-.024.023-.053.042-.063.042a.8.8 0 0 0-.214.206 1 1 0 0 1-.131.16.7.7 0 0 0-.157.226.3.3 0 0 1-.053.107c-.015.013-.028.05-.028.083 0 .106-.032.14-.134.14-.068 0-.091-.008-.091-.032 0-.017-.016-.037-.035-.045a1.3 1.3 0 0 1-.337-.247c-.097-.113-.149-.137-.227-.105-.089.037-.22.246-.22.35 0 .043.006.079.015.079s.057.04.108.091.107.092.126.092.043.013.052.027c.018.03.14.097.176.097.032 0 .117.091.117.125 0 .04-.09.162-.12.162-.014 0-.06.033-.102.074a.7.7 0 0 1-.132.103c-.03.016-.056.043-.056.06 0 .038-.077.148-.139.2a.13.13 0 0 0-.046.095c0 .031-.012.068-.028.08-.028.024-.026.048.02.208.021.075.147.184.212.184a.16.16 0 0 0 .104-.051c.026-.028.055-.052.064-.052s.05-.023.091-.05c.177-.12.247-.041.288.327.006.056.024.113.04.125.019.015.029.063.029.135 0 .06.011.122.025.136.034.034.108.03.139-.007m5.46-.706a.24.24 0 0 1 .099-.041.7.7 0 0 0 .153-.046c.1-.038.172-.047.476-.056l.359-.011v-.46l-.068-.062c-.037-.034-.09-.062-.117-.062a.4.4 0 0 1-.106-.023l-.099-.04a3 3 0 0 0-.348-.069 3 3 0 0 1-.195-.044 2 2 0 0 0-.244-.044.4.4 0 0 1-.164-.047.5.5 0 0 0-.178-.048c-.15-.014-.2.012-.197.107.002.062.015.094.134.326a.6.6 0 0 1 .055.137c0 .027.043.126.104.241.01.02.02.05.02.07 0 .03.044.124.088.187.028.039.16.03.229-.015m5.216-.995c.095-.017.243-.04.327-.05a3 3 0 0 0 .287-.051c.074-.019.16-.039.194-.046a.6.6 0 0 0 .156-.07 2.2 2.2 0 0 0 .418-.275l.175-.144c.15-.123.33-.396.409-.623l.064-.174a.6.6 0 0 0 .04-.146.4.4 0 0 1 .03-.118c.044-.105.043-.845 0-.903a.3.3 0 0 1-.03-.14.6.6 0 0 0-.061-.23.7.7 0 0 1-.058-.17.8.8 0 0 0-.093-.201 1 1 0 0 1-.096-.199c0-.017-.023-.06-.051-.093-.029-.033-.052-.075-.052-.092s-.009-.038-.02-.045a4 4 0 0 1-.3-.366c-.145-.21-1.067-1.017-1.163-1.017-.017 0-.041-.018-.053-.04s-.036-.042-.054-.042a.25.25 0 0 1-.098-.05.3.3 0 0 0-.09-.052c-.013 0-.033-.019-.045-.041s-.034-.041-.05-.041a.3.3 0 0 1-.102-.051.3.3 0 0 0-.103-.052c-.015 0-.04-.015-.055-.034a.4.4 0 0 0-.1-.067 2 2 0 0 1-.154-.084c-.045-.027-.093-.047-.106-.044-.014.003-.035-.013-.047-.036s-.036-.042-.053-.042a.2.2 0 0 1-.066-.018 13 13 0 0 0-.291-.144l-.077-.04a.2.2 0 0 0-.086-.023c-.022 0-.045-.01-.052-.02-.02-.034-.194-.106-.218-.092-.012.008-.041-.004-.066-.026a.7.7 0 0 0-.167-.086l-.277-.107a1.6 1.6 0 0 0-.253-.08.4.4 0 0 1-.124-.039.2.2 0 0 0-.065-.027.3.3 0 0 1-.087-.033c-.026-.014-.058-.022-.071-.017-.014.004-.047-.009-.074-.03a.2.2 0 0 0-.098-.038c-.027 0-.13-.026-.227-.058a1.4 1.4 0 0 0-.27-.062.4.4 0 0 1-.147-.034.3.3 0 0 0-.108-.03c-.028 0-.057-.01-.064-.02-.007-.012-.058-.02-.114-.02a.6.6 0 0 1-.179-.033 2 2 0 0 0-.308-.062 5 5 0 0 1-.328-.053 3 3 0 0 0-.331-.038 3 3 0 0 1-.338-.04 5 5 0 0 0-.666-.063c-.176-.006-.97.023-1.004.036-.078.03-.232.053-.41.06a1 1 0 0 0-.236.028c-.022.01-.114.033-.205.05-.218.043-.344.075-.367.097-.011.01-.043.017-.072.017a.6.6 0 0 0-.237.075.5.5 0 0 1-.118.036c-.184.029-.774.378-1.059.625-.123.107-.18.165-.382.387a2 2 0 0 0-.385.711l-.076.249c-.027.089-.027.916 0 .968.013.022.022.06.022.084s.018.077.04.119c.085.165.145.303.145.336a.2.2 0 0 0 .046.092 1 1 0 0 1 .138.206c0 .009.037.061.082.116a.7.7 0 0 1 .082.112c0 .007.042.057.093.11.05.054.092.107.092.118s.012.02.026.02c.015 0 .059.033.098.074a1 1 0 0 0 .142.117c.04.024.098.07.13.102.078.076.33.24.37.24.018 0 .033.01.033.02 0 .06.345.116.379.062.016-.026.2-.027.226-.001a.8.8 0 0 0 .214.028c.226.01.423.062.6.159.019.01.053.02.075.02.023 0 .075.023.117.051a.5.5 0 0 0 .127.064.2.2 0 0 1 .086.046c.093.086.175.146.2.146.037 0 .188.126.188.158 0 .014.01.026.021.026s.05.028.085.061c.036.034.071.062.079.062s.025.023.037.051c.013.028.037.051.054.051.016 0 .035.019.042.04.017.055.14.124.287.162l.174.045c.051.014.143.032.205.04.105.014.269.063.353.105.02.01.085.018.145.018s.118.01.13.02c.02.022.165.056.315.075.05.007.134.026.184.042.051.017.152.038.226.048.073.01.207.033.297.05.09.019.22.042.287.052s.178.029.246.041l.194.033c.04.006.086.016.103.023s.1.016.183.02a.8.8 0 0 1 .189.028c.035.019.293.044.837.082.483.033.584.043.601.06.01.01.337.018.728.019.554 0 .748-.006.884-.03m-5.092-1.426a.3.3 0 0 0-.111-.038.4.4 0 0 1-.133-.049 1 1 0 0 0-.135-.064 1.2 1.2 0 0 1-.207-.13q-.266-.197-.265-.405c0-.075.008-.087.08-.127a.4.4 0 0 1 .1-.045c.012 0 .062.044.11.097.205.223.375.371.476.415.058.025.121.054.14.064s.131.018.247.018c.184 0 .23-.007.364-.06.084-.032.195-.082.246-.112.113-.065.124-.065.191-.003.043.04.054.07.054.14 0 .115-.056.17-.275.27l-.163.074-.329-.003c-.283-.003-.337-.009-.39-.042m4.71-.489a.3.3 0 0 1-.1-.06c-.007-.013-.031-.018-.053-.011q-.04.012-.04-.02c0-.018-.02-.043-.045-.055a.5.5 0 0 1-.118-.112l-.108-.134a.2.2 0 0 1-.035-.095 1 1 0 0 0-.052-.193c-.046-.129-.05-.173-.05-.46 0-.306.02-.449.083-.566a.2.2 0 0 0 .019-.078c0-.024.018-.067.04-.096a.2.2 0 0 0 .041-.087.3.3 0 0 1 .053-.115c.066-.1.316-.336.357-.336a.3.3 0 0 0 .093-.041c.088-.059.36-.059.434 0a.2.2 0 0 0 .087.04c.08 0 .384.36.433.513l.052.144c.029.074.067.367.07.532.001.11-.03.392-.044.402-.01.006-.018.034-.018.063a1 1 0 0 1-.056.199c-.047.121-.083.172-.211.3-.272.271-.592.373-.832.266m-4.462-.465a.4.4 0 0 0-.131-.018.4.4 0 0 1-.21-.057.4.4 0 0 0-.124-.054c-.018 0-.101-.07-.185-.155-.159-.161-.188-.221-.186-.388.002-.197.024-.263.123-.364a.5.5 0 0 1 .114-.097c.011 0 .042-.021.07-.047.046-.043.065-.046.363-.046.293 0 .318.003.376.046a.2.2 0 0 0 .093.047c.017 0 .036.009.043.02s.05.04.094.063c.097.049.162.11.162.151 0 .016.01.035.02.042.1.062.14.41.064.56a.6.6 0 0 1-.193.218c-.09.06-.454.117-.493.079m.161-.213a.4.4 0 0 0 .123-.06c.023-.02.06-.04.082-.044a.07.07 0 0 0 .049-.048.3.3 0 0 1 .046-.09c.055-.07.054-.239-.002-.269-.023-.012-.041-.035-.041-.05 0-.017-.021-.041-.047-.054a.2.2 0 0 1-.06-.05.6.6 0 0 0-.129-.09c-.104-.058-.126-.063-.311-.063-.183 0-.206.005-.278.055-.09.062-.18.2-.18.277 0 .062.088.225.16.297.081.081.245.17.318.172.036.001.089.01.117.019.07.022.062.022.153-.002m-4.016-1.396-.132-.041c-.077-.024-.077-.024-.2-.13-.049-.042-.088-.092-.088-.113s-.017-.047-.038-.059c-.047-.025-.062-.083-.08-.298-.028-.338.005-.65.077-.742a.2.2 0 0 0 .041-.092c0-.022.023-.07.051-.107a.3.3 0 0 0 .052-.088c0-.025.133-.178.263-.303.05-.047.142-.112.205-.144l.19-.095a.4.4 0 0 1 .148-.038c.04 0 .078-.009.085-.02s.058-.02.113-.02.105.008.112.02c.007.011.048.02.09.02.047 0 .1.018.139.046.083.062.192.172.192.195 0 .01.02.059.046.109.041.082.046.12.044.378 0 .183-.012.335-.033.42-.033.141-.172.501-.213.553a1 1 0 0 0-.055.092c-.088.171-.455.44-.6.44-.026 0-.053.01-.06.021-.016.026-.266.023-.349-.004m11.117 3.457a.1.1 0 0 1 .071-.03q.066 0 .174-.072a.3.3 0 0 1 .113-.024c.165-.007.387-.1.41-.172.006-.019.034-.044.062-.057.029-.013.057-.038.064-.055s.02-.03.031-.03.06-.028.11-.062a.4.4 0 0 1 .11-.062q.021-.001.023-.018c0-.01.034-.04.076-.066.043-.026.125-.082.184-.124a.5.5 0 0 1 .133-.078c.014 0 .064-.042.112-.093a.4.4 0 0 1 .105-.092c.023 0 .291-.25.291-.272 0-.027.168-.258.197-.269a.05.05 0 0 0 .028-.041c0-.036.082-.168.142-.23.024-.023.043-.058.043-.077 0-.02.028-.065.061-.1.034-.037.062-.081.062-.1a.1.1 0 0 1 .03-.058c.017-.014.031-.037.031-.051s.037-.08.082-.146a.7.7 0 0 0 .082-.144c0-.013.014-.035.031-.049s.03-.059.03-.103c0-.055.01-.08.033-.085.035-.007.09-.138.09-.214 0-.024.015-.055.031-.069.017-.014.031-.051.031-.083s.01-.064.02-.07c.012-.008.021-.07.021-.14 0-.092.012-.144.041-.188a.3.3 0 0 0 .041-.114c0-.029.011-.064.025-.077a.4.4 0 0 0 .041-.148l.032-.24a.5.5 0 0 1 .051-.169c.026-.037.036-.092.036-.209 0-.087.009-.163.02-.17s.02-.14.02-.328-.008-.32-.02-.328-.02-.122-.02-.275c0-.228-.006-.27-.04-.313-.029-.037-.042-.095-.05-.223a4 4 0 0 0-.031-.306c-.012-.073-.034-.22-.049-.328a1 1 0 0 0-.06-.256 2 2 0 0 1-.066-.137.3.3 0 0 0-.053-.089c-.011-.006-.02-.041-.02-.077a.6.6 0 0 0-.062-.186.6.6 0 0 1-.061-.173.15.15 0 0 0-.028-.084 1 1 0 0 1-.074-.15.5.5 0 0 0-.065-.13c-.01-.006-.018-.025-.018-.042 0-.04-.14-.33-.167-.348a.2.2 0 0 1-.05-.077 5 5 0 0 0-.206-.37l-.095-.17a2.4 2.4 0 0 0-.273-.363 1 1 0 0 1-.111-.154 1.4 1.4 0 0 0-.217-.237 2 2 0 0 1-.214-.222 2 2 0 0 0-.193-.222 1.3 1.3 0 0 1-.186-.233.8.8 0 0 1-.03-.23c0-.136-.006-.168-.04-.2-.05-.045-.053-.124-.006-.216.052-.104.061-.431.015-.552-.029-.076-.037-.188-.044-.655-.006-.31-.018-.573-.029-.583a.4.4 0 0 1-.018-.148c0-.107-.007-.132-.041-.15-.033-.018-.041-.043-.041-.123a.7.7 0 0 0-.042-.207 1 1 0 0 1-.054-.23.7.7 0 0 0-.039-.178 2 2 0 0 1-.07-.199.6.6 0 0 0-.062-.16c-.011-.007-.02-.033-.02-.058s-.008-.055-.017-.066a1 1 0 0 1-.063-.173 2 2 0 0 0-.096-.256 1 1 0 0 1-.05-.119 1 1 0 0 0-.092-.148.6.6 0 0 1-.092-.171c0-.022-.032-.078-.072-.125a.5.5 0 0 1-.071-.1.5.5 0 0 0-.082-.1.4.4 0 0 1-.082-.109c0-.012-.155-.18-.344-.371-.323-.329-.485-.468-.545-.468-.015 0-.048-.023-.074-.051-.027-.028-.066-.051-.088-.051s-.054-.018-.073-.04a.5.5 0 0 0-.157-.082c-.366-.132-.42-.146-.697-.184a1.4 1.4 0 0 1-.194-.04c-.091-.03-.82-.03-.933 0-.045.01-.142.029-.215.039s-.188.029-.256.04a3 3 0 0 1-.236.034.4.4 0 0 0-.132.03.1.1 0 0 1-.05.018.1.1 0 0 0-.062.028.4.4 0 0 1-.104.054c-.189.07-.673.305-.717.347a.7.7 0 0 1-.124.079c-.05.025-.119.064-.153.086l-.121.074c-.06.034-.11.07-.383.278a8 8 0 0 0-.719.688 1 1 0 0 0-.168.214 2 2 0 0 1-.148.195 1 1 0 0 0-.11.151 3 3 0 0 1-.122.2 1 1 0 0 0-.083.143c0 .01-.023.039-.05.065a.25.25 0 0 0-.063.106c-.008.032-.021.059-.03.059-.01 0-.024.02-.031.046-.014.05-.04.113-.084.21a2.2 2.2 0 0 0-.146.543.5.5 0 0 1-.03.157c-.026.032-.058.22-.07.416a1 1 0 0 0 .032.339c.024.1.05.22.06.266.008.045.04.13.07.189s.055.124.055.146.014.045.03.051c.018.007.031.031.031.055 0 .047.15.256.196.274.017.006.03.023.03.037 0 .027.331.365.357.365.008 0 .044.02.08.046.192.136.274.172.398.177q.065.003.066.03c0 .032.087.048.348.067q.152.01.175.042c.013.018.07.035.145.041.1.01.14.003.209-.032a.44.44 0 0 1 .207-.043c.068 0 .129-.01.136-.021s.032-.02.057-.021a.2.2 0 0 0 .085-.03.2.2 0 0 1 .087-.03.6.6 0 0 0 .174-.062 1 1 0 0 1 .145-.062c.01 0 .101-.05.201-.113.1-.062.197-.112.214-.112a.05.05 0 0 0 .044-.031.05.05 0 0 1 .04-.03c.037 0 .393-.23.459-.297.028-.029.065-.052.082-.052s.1-.065.183-.144a.8.8 0 0 1 .178-.143c.015 0 .047-.028.072-.061.025-.034.053-.062.061-.062a.7.7 0 0 0 .124-.116c.06-.063.171-.179.247-.256a1 1 0 0 0 .139-.158c0-.01.053-.083.118-.163.18-.222.299-.39.378-.54.04-.076.092-.164.116-.198a.23.23 0 0 0 .043-.101.1.1 0 0 1 .033-.068.3.3 0 0 0 .063-.104c.022-.055.061-.096.132-.14a.5.5 0 0 1 .133-.062c.018 0 .064.033.102.073.063.065.07.083.07.19 0 .065-.01.128-.021.14a.2.2 0 0 0-.03.088.2.2 0 0 1-.033.096 1 1 0 0 0-.067.157 3 3 0 0 1-.28.514c-.016.025-.058.09-.091.145-.034.055-.09.137-.124.183a3 3 0 0 0-.12.186 1 1 0 0 1-.129.17 1 1 0 0 0-.117.145c-.061.094-.652.68-.686.68a.4.4 0 0 0-.114.092c-.049.05-.102.092-.118.092s-.06.033-.1.072c-.07.073-.099.09-.439.277-.308.168-.475.248-.53.254a.2.2 0 0 0-.08.028c-.025.021-.115.048-.281.084a.6.6 0 0 0-.117.04.3.3 0 0 1-.106.024c-.034 0-.067.009-.074.02-.008.012-.105.02-.223.02a.8.8 0 0 0-.23.022.5.5 0 0 1-.167.028 1 1 0 0 0-.164.02c-.01.005-.045-.007-.078-.03-.044-.028-.097-.039-.192-.04a.9.9 0 0 1-.34-.065 1 1 0 0 0-.174-.036 1.4 1.4 0 0 1-.39-.146l-.12-.059a.8.8 0 0 1-.173-.123c-.047-.046-.098-.083-.113-.083-.016 0-.06-.027-.098-.061a.3.3 0 0 0-.088-.061c-.018 0-.052-.099-.046-.13.004-.017-.017-.045-.12-.156-.18-.194-.307-.16-.45.12-.041.082-.043.098-.019.171.015.045.046.09.07.1a.15.15 0 0 1 .062.065c.014.032.041.046.096.051.056.005.09.024.133.075.194.233.295.419.297.547 0 .045.012.08.03.087.04.016.038.376-.004.431a.16.16 0 0 0-.03.083c0 .054-.083.23-.18.38-.076.117-.336.383-.418.427l-.12.064a.3.3 0 0 1-.108.04.2.2 0 0 0-.082.025c-.08.044-.244.064-.526.064q-.463.001-.498-.06c-.01-.016-.053-.028-.103-.03-.062 0-.122-.022-.22-.08a2 2 0 0 0-.306-.162 1 1 0 0 1-.082-.04 2 2 0 0 0-.124-.063c-.114-.054-.214-.039-.351.053a2 2 0 0 1-.163.094.7.7 0 0 0-.159.118.4.4 0 0 1-.104.082.2.2 0 0 0-.075.051c-.03.028-.068.051-.085.051a.2.2 0 0 0-.081.041.2.2 0 0 1-.079.041c-.014 0-.07.02-.125.043a1 1 0 0 1-.237.061.6.6 0 0 0-.19.052c-.055.036-.209.032-.41-.012a3 3 0 0 0-.292-.038.7.7 0 0 1-.214-.04.12.12 0 0 0-.073-.025.34.34 0 0 1-.215-.115c-.021-.027-.047-.049-.057-.049a.4.4 0 0 1-.091-.05c-.06-.04-.095-.049-.19-.044-.13.007-.175.046-.26.222a1 1 0 0 1-.066.123.5.5 0 0 0-.046.098c-.03.08-.047.127-.081.211-.013.032-.018.067-.011.078s-.005.045-.025.075a.55.55 0 0 0-.09.253c0 .03-.013.065-.029.078-.041.034-.053.104-.073.416-.01.15-.029.318-.043.374-.032.131-.05 1.24-.02 1.343.01.039.029.163.04.276l.034.321a.33.33 0 0 0 .052.162.16.16 0 0 1 .04.083c0 .02.009.042.02.049s.02.03.02.052.019.07.041.106a.3.3 0 0 1 .041.093.6.6 0 0 0 .052.132.6.6 0 0 1 .05.129c0 .012.012.034.026.048a.6.6 0 0 1 .067.139q.041.113.099.148c.057.034.058.033.117-.038.054-.065.06-.085.06-.225a.5.5 0 0 0-.03-.205c-.041-.072-.043-.538-.002-.572.027-.023.04-.068.067-.227a.3.3 0 0 1 .05-.12.2.2 0 0 0 .039-.095c0-.06.04-.177.074-.217a.12.12 0 0 0 .028-.067c0-.019.008-.034.018-.034a.7.7 0 0 0 .12-.159c.145-.222.611-.685.822-.814l.147-.094.21-.134c.054-.032.13-.08.17-.105a.3.3 0 0 1 .14-.046c.038 0 .08-.014.093-.03a.4.4 0 0 1 .12-.065.7.7 0 0 0 .127-.059.4.4 0 0 1 .183-.072.1.1 0 0 0 .06-.027c.015-.018.09-.033.197-.04a.8.8 0 0 0 .281-.063.8.8 0 0 1 .232-.062c.313-.028.433-.045.461-.064.027-.018.417-.052.548-.049.173.005.623-.002.792-.013q.201-.012.224.01c.014.013.155.021.388.021.249 0 .38.008.41.025.048.026.194.049.486.075.096.008.197.026.226.038s.157.038.286.056c.264.037.494.082.643.126a1 1 0 0 0 .132.029c.04 0 .138.03.332.103.085.032.181.062.215.068.207.035.542.144.751.244.132.063.284.13.339.148.157.052.362.139.397.168a.12.12 0 0 0 .066.027c.018 0 .038.01.045.02.007.012.031.02.054.02.022 0 .069.016.104.033s.09.036.124.04.124.05.199.101.144.093.152.093.046.023.083.052a.25.25 0 0 0 .107.05c.021 0 .055.02.074.042.02.022.048.04.063.04s.045.02.066.043a1 1 0 0 0 .193.117c.085.04.206.113.27.16a1 1 0 0 0 .156.099.2.2 0 0 1 .077.054c.02.022.049.04.063.04s.032.016.038.036c.01.03.203.18.336.261.019.011.08.067.138.123.057.056.163.159.236.228s.157.154.19.19c.031.035.066.064.076.064s.033.03.052.066.063.101.098.143.096.118.135.17l.105.131q.044.051.18.35c.012.028.03.065.04.082s.034.063.052.103c.019.039.051.099.073.133s.04.085.04.114c.001.028.012.061.024.073a.2.2 0 0 1 .03.102c.02.187.036.266.056.29.028.035.057.182.07.352q.01.132.05.182c.057.074.056.385-.002.46-.031.039-.041.083-.041.176 0 .068-.01.129-.02.136-.012.007-.022.037-.022.068a.2.2 0 0 1-.03.095.2.2 0 0 0-.03.108.3.3 0 0 1-.018.103c-.086.177-.106.224-.106.248 0 .015-.023.055-.051.089-.056.067-.072.213-.027.258.034.034.109.03.14-.006m-11.93-8.5.187-.053a1.7 1.7 0 0 0 .328-.13c.085-.039.105-.05.318-.196.09-.06.233-.178.317-.26.148-.144.158-.15.252-.15.109 0 .183.031.322.137.05.04.12.084.154.1.034.015.075.037.092.047s.065.034.107.052a.3.3 0 0 1 .088.053c.007.011.031.02.054.02s.066.017.096.037c.071.048.145.08.208.093.028.006.092.025.142.044.136.05.43.047.59-.008a1 1 0 0 1 .16-.043c.034 0 .273-.165.341-.235.087-.09.1-.108.1-.138 0-.018.018-.037.04-.043q.04-.011.041-.06c0-.026.01-.058.022-.07.021-.021.032-.35.014-.417-.043-.156-.06-.204-.087-.225-.017-.014-.03-.034-.03-.045 0-.031-.208-.271-.26-.3-.026-.014-.048-.034-.048-.045s-.015-.02-.033-.02c-.054 0-.352-.21-.378-.265l-.043-.089c-.023-.045.053-.17.15-.246.143-.113.201-.169.201-.192 0-.014.018-.03.04-.037a.08.08 0 0 0 .049-.048 1 1 0 0 1 .05-.107.7.7 0 0 0 .087-.269c0-.027.01-.06.023-.073s.023-.085.023-.16-.01-.146-.023-.159-.023-.047-.023-.076a.5.5 0 0 0-.072-.164 1 1 0 0 1-.082-.143c-.011-.032-.087-.092-.215-.17-.313-.19-.752-.207-1.135-.042-.336.145-.51.246-.706.412-.127.108-.147.128-.147.15 0 .01-.053.018-.119.018-.088 0-.13-.01-.16-.038a.5.5 0 0 0-.086-.062c-.024-.013-.045-.038-.045-.054 0-.017-.012-.03-.027-.03s-.048-.023-.075-.052-.059-.05-.071-.05c-.013 0-.05-.028-.083-.062-.032-.034-.076-.062-.096-.062s-.043-.014-.05-.03c-.006-.017-.024-.031-.039-.031a.7.7 0 0 1-.146-.06c-.184-.091-.438-.166-.567-.166a.5.5 0 0 1-.168-.024c-.041-.019-.062-.019-.093 0a.2.2 0 0 1-.1.024.3.3 0 0 0-.098.018q-.211.107-.247.135a1.5 1.5 0 0 0-.189.184.6.6 0 0 1-.063.1c-.107.147-.121.202-.121.477 0 .254.013.319.086.416a.2.2 0 0 1 .037.076q-.001.039.158.262c.032.044.142.173.247.286.167.181.19.214.19.28s-.015.089-.114.176c-.063.055-.13.108-.149.118-.04.02-.25.231-.28.282a5 5 0 0 0-.098.179c-.077.145-.077.146-.077.4s0 .254.072.374a1 1 0 0 0 .413.393l.16.085h.295c.201 0 .324-.008.39-.029m.904-1.363a.2.2 0 0 0-.083-.02c-.085-.001-.28-.12-.4-.244a1 1 0 0 1-.11-.131.5.5 0 0 0-.055-.102c-.053-.084-.055-.097-.054-.384 0-.287.002-.3.054-.377a.4.4 0 0 0 .054-.102c0-.027.227-.26.253-.26.01 0 .06-.027.11-.062a.3.3 0 0 1 .147-.058.2.2 0 0 0 .088-.011c.032-.014.26-.006.427.014.04.005.12.034.178.066.106.056.334.267.334.308 0 .013.01.033.024.046a.5.5 0 0 1 .078.224c0 .025.01.05.021.058.011.007.02.076.02.154 0 .077-.009.146-.02.153s-.02.033-.02.058c-.002.237-.342.6-.615.655-.144.03-.396.038-.43.015m.257-.185c.007-.011.044-.02.083-.02s.115-.022.168-.05c.1-.05.312-.254.312-.298a.2.2 0 0 1 .041-.077c.034-.044.041-.083.041-.244 0-.168-.007-.21-.058-.32a.8.8 0 0 0-.341-.363c-.102-.058-.12-.062-.328-.062-.188 0-.227.006-.271.04a.2.2 0 0 1-.087.042c-.098 0-.329.315-.329.449 0 .033-.009.066-.02.073s-.02.053-.02.103.008.095.02.102c.011.007.02.045.02.084 0 .102.07.228.195.35.13.125.215.17.32.17.042 0 .083.01.09.021s.044.02.082.02.075-.008.082-.02m2.254-3.116c.101-.054.213-.161.214-.206a.44.44 0 0 1 .08-.19c.01-.006.024-.067.032-.134a1 1 0 0 1 .064-.237.6.6 0 0 0 .05-.171c0-.032.019-.08.041-.105.023-.026.041-.056.041-.067a.3.3 0 0 1 .051-.08c.029-.034.052-.079.052-.1 0-.02.008-.043.019-.05a1 1 0 0 0 .09-.16c.04-.082.11-.192.156-.244a.4.4 0 0 0 .083-.127c0-.018.01-.033.02-.033.012 0 .031-.024.042-.054.02-.053.06-.11.168-.241a.3.3 0 0 0 .057-.087c0-.01.092-.11.205-.222l.205-.205v-.3c0-.29-.002-.3-.052-.354-.028-.03-.05-.068-.05-.083s-.015-.039-.033-.053a1 1 0 0 1-.107-.141 4.5 4.5 0 0 0-.535-.653 12 12 0 0 1-.276-.302 10 10 0 0 0-.337-.356 3 3 0 0 1-.227-.25c-.029-.047-.276-.286-.568-.551a2 2 0 0 1-.143-.144 1 1 0 0 0-.11-.102 5 5 0 0 1-.393-.35 2 2 0 0 0-.221-.184c-.045-.027-.084-.06-.088-.074-.009-.034-.32-.29-.411-.337a1 1 0 0 1-.113-.07 1.7 1.7 0 0 0-.301-.215 2 2 0 0 1-.187-.116.24.24 0 0 0-.095-.048.05.05 0 0 1-.043-.03.05.05 0 0 0-.045-.031.25.25 0 0 1-.1-.051.3.3 0 0 0-.086-.052.5.5 0 0 1-.108-.061.4.4 0 0 0-.126-.061.1.1 0 0 1-.058-.028.4.4 0 0 0-.12-.065.7.7 0 0 1-.126-.058c-.028-.022-.044-.03-.28-.116a1 1 0 0 1-.149-.067.4.4 0 0 0-.123-.04l-.158-.03a.24.24 0 0 1-.096-.042.3.3 0 0 0-.112-.04 2 2 0 0 1-.16-.031 2 2 0 0 0-.216-.03.5.5 0 0 1-.152-.029c-.025-.024-1.124-.025-1.15 0a.3.3 0 0 1-.101.029.9.9 0 0 0-.317.1.26.26 0 0 1-.127.037.2.2 0 0 0-.133.048.4.4 0 0 1-.11.064.7.7 0 0 0-.153.1 4 4 0 0 1-.185.146.6.6 0 0 0-.097.084 2 2 0 0 1-.086.11.5.5 0 0 0-.093.163.3.3 0 0 1-.072.125c-.028.026-.051.062-.051.079a.12.12 0 0 1-.028.063c-.04.047-.1.26-.11.39a.4.4 0 0 1-.028.133c-.026.027-.024.722.002.739.011.007.02.06.02.119a.7.7 0 0 0 .033.198c.017.05.037.138.043.194a.8.8 0 0 0 .06.21.5.5 0 0 1 .049.147c0 .023.018.052.04.064s.042.036.042.054.023.078.05.134a.6.6 0 0 1 .052.128c0 .014.02.043.042.064.023.02.08.114.125.207s.095.18.111.193.03.04.03.06.023.045.05.058c.03.013.052.04.052.063 0 .022.046.09.102.152a.6.6 0 0 1 .103.132c0 .042.526.578.568.58.009 0 .051.026.095.06.043.032.09.054.105.048.016-.005.033.009.04.032.008.024.027.043.043.043s.04.02.053.045c.032.06.15.18.176.18.012 0 .027.02.033.044q.011.043.041.032c.017-.006.046.006.065.027a.4.4 0 0 0 .104.071c.039.018.07.041.07.05 0 .026.24.186.277.186.017 0 .03.01.03.021s.026.032.057.045a.6.6 0 0 1 .138.1 1 1 0 0 0 .162.118c.044.023.109.066.144.094.11.09.203.15.314.204.06.028.114.066.121.085a.12.12 0 0 0 .056.052c.074.033.185.103.231.146.025.023.054.035.066.028.01-.007.032.004.047.024.036.048.315.238.406.277.04.016.09.05.111.074s.055.044.074.044c.02 0 .08.034.135.077s.135.096.178.118.116.08.163.127c.047.048.102.087.123.087.02 0 .043.014.049.031s.025.03.04.03c.026 0 .071.03.398.262.088.063.143.087.194.087q.073 0 .072.031c0 .019.02.03.05.03.028 0 .056.01.063.021s.034.02.06.02.063.02.083.042c.036.039.063.04.695.04.63 0 .662-.001.74-.042" transform="translate(-53.326 -67.703)"/></svg>