<svg width="59.287" height="16.391" viewBox="0 0 15.686 4.337" xmlns="http://www.w3.org/2000/svg"><path d="m26.082 53.532.017.016v.016q-.226.117-.226.451 0 .218.113.693h.016q0-.532.596-.87l.016-.08q-.032-.097-.129-.097l-.032.048v.032q0 .032.065.032l.016.017v.016l-.032.032h-.065q-.08-.04-.08-.13 0-.104.08-.144h.08q.162.02.162.161v.113l.177-.016q.496 0 .677.548l.033.161q0 .323-.371.468h-.065q-.322-.069-.322-.323v-.064q0-.161.21-.194.16.04.16.178v.032l-.08.08h-.048l-.065-.064v-.048l.049-.049q.032 0 .032.049l.032-.033-.097-.064q-.112.032-.112.129v.016q.036.258.257.258.266 0 .307-.387 0-.484-.597-.58h-.016q-.58 0-.758.741v.13q0 .455.29.821l-.016-.145q0-.298.29-.419h.13q.306.06.306.306 0 .21-.21.258-.193-.044-.193-.193 0-.105.145-.129.08.048.08.113 0 .064-.112.064l.032.033h.08l.065-.081v-.048q0-.226-.242-.226-.258 0-.29.37 0 .376.597.597-.081-.109-.081-.258v-.08q0-.166.177-.274h.033q-.097.253-.097.338 0 .25.242.339l.306-.016h.193q.29-.045.29-.274-.04-.21-.177-.21-.096 0-.096.08h.032l.032-.032q.08.024.08.113-.032.073-.064.08h-.048q-.13 0-.13-.128v-.065q0-.145.194-.16.258.08.258.257v.065q0 .157-.177.306.093 0 .226.048l.048-.016q-.032-.064-.032-.177l.016-.016h.016q.064.193.161.193l.29.08q-.137-.314-.225-.628-.113-.161-.145-.161h-.049l-.113.032-.016-.016v-.016q0-.049.13-.13h.08l.097.033q.044-.548.112-.548l.033.032-.033.306q0 .186.081.549h.016q0-.246.323-.42h.016l.016.016v.017q-.274.233-.274.596v.016q.04.25.354.677l-.016-.08v-.13q0-.177.049-.177l.032.033v.096q0 .38.387.79v.049l-.049.048h-.048l-.129-.113q0 .08-.048.08h-.065l-.064-.064v-.096l.016-.017v-.016q-.37-.217-.629-.241-.08 0-.177.129l.016.048-.048.016q-.097-.036-.097-.113l.032-.097h-.016l-.322.081h-.033v-.032q.194-.145.371-.145v-.016q-.403-.029-.403-.081l.032-.032h.161q.246 0 .452.048-.198-.274-.339-.274l-.29.065-.016-.017v-.016q0-.032.113-.064v-.016l-.323-.033h-.016q-.423 0-.628.403v.017q0 .048.08.112 0 .033-.048.033-.13-.065-.13-.178v-.016q0-.181.194-.29v-.016q-.217.048-.693.08-.322.19-.322.484 0 .302.306.468l.097.032q.322-.06.322-.322v-.033q-.032-.242-.21-.242h-.064q-.12 0-.145.162 0 .177.177.177.049 0 .097-.145h.016q.032 0 .032.048 0 .15-.193.178-.177 0-.226-.258.049-.274.274-.274.303 0 .355.403 0 .318-.403.387-.42 0-.5-.516v-.113l.016-.113q-.169.129-.274.129h-.113l-.032-.032q.02-.033.339-.145v-.017q-.133 0-.178-.193v-.032q0-.06.065-.145-.266-.08-.387-.08-.395 0-.597.483l-.016.016h-.016l-.016-.016h-.016q0-.258.322-.5.194-.065.323-.065v-.016q-.222-.08-.822-.628-.242-.113-.452-.113-.415 0-.612.516l-.017.129q.11.58.484.58.306 0 .339-.37 0-.214-.258-.243-.145 0-.145.178.04.113.112.113h.033v-.017q-.097 0-.097-.096v-.033l.064-.064h.033q.129 0 .129.145v.032q0 .13-.13.13h-.048q-.177 0-.21-.259 0-.205.29-.258.303 0 .356.42v.048q0 .318-.468.403-.58-.129-.58-.693v-.033q0-.523.612-.693l.145-.016.29.048q-.326-.39-1.096-.58v-.016l.016-.016v-.016q.577 0 1.08.5v-.017q-.237-.374-.435-.983-.129-.113-.21-.113h-.08q-.173 0-.193.226.02.21.16.21.09 0 .13-.081v-.032q0-.113-.097-.113l-.016.016v.016l.048.113-.032.032q-.129 0-.129-.129.02-.129.13-.129h.031q.162.032.162.161v.065q0 .153-.21.193-.246 0-.274-.306.048-.274.145-.274v-.016q-.201 0-.355-.21l.033-.032h.016q.145.109.37.177l-.016-.113q.02-.16.162-.16.104 0 .129.144 0 .113-.113.113l-.032-.032q0-.032.048-.032v-.049l-.032-.032h-.033q-.036 0-.048.08 0 .077.274.178l.097.097q0-.101.129-.113h.048q.109 0 .21.113l-.016.016h-.016l-.194-.048h-.032l-.032.032v.064q0 .274.435 1.08h.016q.048-.387.306-.387.323.033.323.323-.04.21-.194.21h-.016q-.17 0-.193-.21.04-.13.145-.13.1 0 .113.13v.016q0 .065-.113.065v.016h.097q.064-.093.064-.145-.077-.178-.21-.178h-.032q-.161 0-.21.258v.049q0 .338.968.822.37.129.677.129h.08q.279 0 .613-.08v-.017q-.528-.194-.645-.194l-.483.033q-.278 0-.532-.355l.032-.032h.016q.238.258.564.258h.29l.194.016q-.193-.19-.468-.58-.076-.065-.193-.065-.161.069-.161.177v.049q.032.16.161.16h.032l.049-.047-.081.016q-.085 0-.113-.065v-.064q.02-.145.145-.145.161.064.161.177v.048q-.032.178-.16.178h-.065q-.194 0-.226-.307 0-.241.355-.241-.448-.468-.806-.468l-.21.048-.016-.016v-.016q.089-.097.29-.097h.032q.113 0 .274.065v-.016q.025-.08.113-.08h.033l.064.064v.08l-.048.065q.044 0 .322.29v-.016q-.274-.685-.274-1.145 0-.367.322-.467m10.14.048q.291.137.291.484v.08q0 .33-.274 1.064v.016h.016q.145-.213.323-.306v-.016q-.065 0-.065-.048v-.033q0-.113.113-.113.06 0 .113.097.19-.064.306-.064.177 0 .274.113l-.048.016-.145-.033h-.097q-.286 0-.725.452.338 0 .338.29-.032.274-.258.274-.193-.044-.193-.193v-.033q.032-.177.16-.177h.017q.145.02.145.145 0 .077-.113.13l-.08-.017v-.032l.032-.049v-.064h-.016q-.032 0-.049.097.025.08.113.08.145 0 .145-.177v-.032q0-.145-.193-.162h-.032q-.145 0-.339.355-.117.153-.274.29.145-.032.387-.032h.145q.294 0 .548-.258l.032.032v.017q-.241.338-.532.338l-.467-.032q-.117 0-.629.193h-.016v.033l.516.064h.21q.741 0 1.499-.71.113-.144.113-.257-.057-.29-.242-.29-.21.04-.21.177v.032q0 .13.113.13h.016v-.017q-.056 0-.096-.097 0-.105.145-.129.112.049.112.145v.016q-.028.178-.177.178h-.048q-.13 0-.161-.178v-.112q0-.162.241-.226h.113q.198 0 .258.338v.033q.415-.661.468-1.097-.016-.08-.065-.08l-.226.064-.016-.016v-.016q.113-.113.242-.113h.049q.096.045.096.113.11-.113.339-.193l.032-.097q-.016-.065-.097-.065l-.016.081q.049 0 .049.032l-.033.033q-.112 0-.112-.113.02-.13.128-.13h.065l.097.097v.081l-.016.08q.169-.032.386-.177l.033.033v.016q-.141.193-.339.193.13.137.13.258v.065q-.057.274-.243.274h-.016q-.225-.02-.225-.194v-.016q0-.21.177-.21h.048q.097.057.097.162 0 .1-.145.113l-.016-.017v-.016q.048-.06.048-.145l-.016-.016q-.097.032-.097.129.024.097.113.097h.016q.133 0 .178-.194-.057-.242-.226-.242h-.032q-.27 0-.371.516l-.307.597q.516-.484 1.016-.484h.065l.016.016v.016l-.452.146q-.25.068-.628.435h.016l.258-.049q.757.113.757.71v.032q-.088.693-.596.693-.395 0-.452-.467.073-.387.323-.387h.08q.242.064.242.226v.048q0 .193-.258.242-.129-.045-.129-.161v-.017q.02-.145.146-.145h.016q.048.012.08.113-.024.08-.113.08v.017h.065q.08-.036.08-.161-.044-.13-.193-.13-.161 0-.21.323 0 .222.339.29.375 0 .484-.564v-.032q0-.347-.371-.548-.117-.065-.258-.065h-.08q-.335 0-.742.435-.282.23-.436.29v.017q.464 0 .613.483l.016.081-.016.016h-.016q-.024 0-.145-.242-.19-.241-.468-.241h-.129q-.076 0-.258.08l.049.08v.097q0 .133-.178.178v.016l.339.129v.016l-.032.032h-.145q-.065 0-.226-.113l.016.194q0 .37-.42.532h-.144q-.262 0-.339-.355v-.097q.073-.322.29-.322h.113q.17 0 .21.29-.057.226-.21.226h-.08q-.113-.056-.113-.161v-.032l.032-.033q.032.121.129.161.145-.032.145-.16v-.033q-.032-.161-.161-.161h-.032q-.182 0-.226.29 0 .23.242.29h.113q.354-.12.354-.37l.016-.097q0-.472-.532-.516l-.451-.049q.161.178.161.274v.049q0 .105-.113.161h-.016l-.032-.032.065-.08v-.033q0-.165-.355-.355l-.194-.048h-.16l-.243.016q0 .028.097.065v.016l-.032.032-.274-.048q-.145 0-.339.257h.016l.371-.048.226.016.032.032q0 .04-.387.065 0 .04.161.048l.21.13q0 .032-.048.032-.125-.065-.339-.097l.032.097q0 .096-.113.129-.04-.194-.193-.194h-.016q-.21 0-.613.226l.032.113q-.032.096-.129.096-.064-.028-.064-.096l-.145.129h-.016l-.065-.065v-.032q.387-.415.387-.79v-.113l.032-.032q.049 0 .065.226l-.016.145v.016h.016q.218-.347.339-.645 0-.379-.275-.629v-.016l.033-.032q.306.201.306.403h.016q.08-.294.08-.532v-.032l-.032-.275.017-.016h.016q.064 0 .129.532l.096-.032h.017q.084 0 .177.13l-.032.031-.13-.032q-.124 0-.306.613-.064.064-.064.177l.355-.097q.064-.157.096-.16l.016.015h.017l-.033.178h.016l.242-.049v-.016q-.177-.08-.177-.306.06-.307.274-.307.193.069.193.21v.016q0 .13-.129.13h-.016q-.113 0-.113-.114l.065-.064h.016l.048.032.033-.032q-.069-.065-.13-.065-.144.077-.144.178v.048q.032.258.258.258h.064l.468.016q.225-.068.225-.355 0-.088-.096-.306l.016-.016h.016q.193.129.193.355-.008.133-.096.258h.016q.58-.218.58-.58v-.065q-.044-.323-.322-.323-.21.053-.21.21v.016q0 .105.097.145.096-.016.096-.048v-.016l-.016.016h-.064q-.036 0-.049-.08.025-.082.113-.082h.033l.08.081v.016q0 .21-.177.21H35.4q-.194-.04-.194-.194v-.113q0-.185.307-.257h.032q.298 0 .37.386v.081l-.016.113q.307-.44.307-.838 0-.641-.629-.839l-.193-.032q-.416 0-.565.548v.08q0 .295.355.34.165 0 .226-.259-.033-.129-.13-.129l-.096.033v.016l.032.032.033-.032h.016l.048.048v.032q-.048.081-.113.081-.08-.024-.08-.113v-.032q0-.089.096-.145h.08q.158 0 .194.226 0 .286-.37.338-.323 0-.387-.451v-.016q0-.504.564-.694h.274l.016.016h.016q0-.29.161-.29h.065q.097.057.097.145v.016q0 .13-.145.13l-.033-.049q0-.032.08-.032v-.065l-.047-.048q-.097 0-.097.113v.048q0 .036.29.21.306.302.306.71h.016q.113-.456.113-.775 0-.254-.21-.403zm-6.335 1.128q.323 0 .726.258h-.033q-.1-.064-.354-.129h-.016v.017q.189.012.967.628.677-.58.951-.628v-.017h-.032l-.355.113q.383-.242.71-.242h.08q.464 0 .532.63v.08q0 1.007-1.886 2.45-1.919-1.402-1.919-2.482 0-.553.452-.678zm6.723.113v.016h.032v-.016zm-4.885.145q-.278.226-.355.226.27-.226.355-.226m-1.096.017h.032q.27.165.29.21h-.032zm-4.692.515-.016.081.065.048v-.032q0-.084-.049-.097m.162.887v.049q0 .112-.113.112-.053 0-.065-.112h-.016v.096q.057.097.145.097.077 0 .194-.145l.08-.048v-.017zm2.482 0v.016l.21.097v-.016q0-.048-.194-.097zm4.901.177.226-.112v-.016h-.016q-.21.04-.21.128m2.467-.096v.016q.056 0 .226.193h.064q.129 0 .129-.129v-.064h-.016q0 .113-.048.113h-.065q-.064-.028-.064-.113v-.016l.016-.016v-.016zm-7.32.096v.017q.222.205.436.306v-.016q-.234-.202-.435-.307m4.611.355q.238-.1.42-.306-.186.08-.42.306" style="font-size:8.25428px;font-family:SexyRexy-Smitten;-inkscape-font-specification:SexyRexy-Smitten;stroke-width:.386919" aria-label="F" transform="translate(-23.293 -53.532)"/></svg>