<svg width="75.573" height="83.631" viewBox="0 0 19.995 22.127" xmlns="http://www.w3.org/2000/svg"><path d="m31.479 16.558-.048-.166-.403-.687-.568-.331h-.095l.71.616zm-5.71 16.513.142-.047.19-.214.07-.284v-.024l-.165.237zm-2.108-13.007.307-.64.782-1.113.853-1.066.853-.853.924-.64.877-.378.781-.19h.593l-.119-.047h-.805l-.995.166-.877.402-.876.522-.759.734-.284.403-.403.687-.64 1.184-.094.237-.118.45zm.615 13.007.095.095.308.213.213.19.166.189.071-.119-.781-.52zm7.345-12.509.07-.142.309-.877v-.142l-.071-1.35-.048-.166v1.398zm-3.388 7.7-.19.331-.237.498-.45 1.137-.355.9.308-.45.284-.853zm2.132-4.691-.26.592.047-.071zm1.374-4.288-.024.094zm-.403-3.34-.094-.19-.474-.711-.616-.498-.758-.213h-.806l-.947.332-.9.616-.854.734-.284.38.26-.261.925-.569.876-.403 1.043-.165h.853l.45.213.497.023.616.38zm-7.889 4.453v.095l.071-.142v-.166zm-.876 10.543-.285-.237-.781-.664-.853-.71-.877-.735-.545-.426.735.663.829.782.095.095.52.426.783.545zm-8.079-10.424.024-.261-.024.071zm3.104 6.183-.759-.948-1.137-1.682-.687-1.28-.213-.591v.213l.19.83.331.78.095-.023.26.592.261.427.142.19.45.473.735.758zm13.764-5.923v.26l.071-.212.119-.616zm-2.25 5.189-.166.308-.877 1.634-.83 1.398-.473 1.019.308-.498.782-1.208.07-.095.451-.924zm-3.933 7.083.26.048h.142l.332-.45.71-.948.238-.616.355-.9.308-.759-.308.498-.687 1.042-.355.498-.024.071-.379.663-.213.427-.19.237zM22.76 21.273l-.07.379.45.379v-.308zm-.213-.237-.047.26v.214l.07.047.048-.332.024-.07-.024-.048zm-3.956-4.075-.64-.119h-.64l-.782.308-.71.522-.616.853-.474.9-.19.758.308-.877.569-.758.592-.521.687-.166h.711l.877.213.829.45.829.617.616.544.782.569.26.284-.308-.52-.64-.854-.663-.829-.734-.853zm7.628-1.872-.521.45-1.256 1.73-.497 1.066.758-1.35 1.019-1.374zm-.853 18.124.071.071.024-.047h-.024zm-.331-.047-.095-.024-.332-.166-.474-.213-.473-.355-.19-.119.095.095.023.024.853.615.758.498.143-.142zm-2.677-11.822v-.048l.07-.402-.378-.403-.545-.782-.664-.805-.64-.759-.686-.687-.308-.19.142.12.734.852.664.83.64.852.497.806zm-8.695.047.142-.047.095.474.308.924.426.734-.237-.995-.07-1.114.023-1.042.237-.948.474-.947.663-.853.758-.569.782-.308h.687l.332.048-.711-.356-.877-.142-.71.142-.735.403-.734.687-.545.9-.332 1.066-.024 1.114zm.142.616.166.592.095.19zm-.071-.284-.047-.26v.094zm3.032 5.093-.094-.165-.143-.143zm4.265 3.767-.071-.07-1.824-1.66-.498-.473-.734-.592-.759-.687.332.497.308.308.735.735.852.71.782.593.735.545zm1.184.758.143.095-.143-.142-.758-.734-.19-.214-.994-.829-.166-.142-.498-.284-.118-.095 1.563 1.421zm2.227 1.398-.19-.142-1.823-1.28.473.45.024.025.237.118.592.403.474.308zm.64.284h.024l-.19-.142-.19-.142-.331-.284-.403-.308-.497-.332-.687-.521-.711-.521-.569-.38.948.783 1.872 1.326zm6.065-11.466.071-.308-.047.142zm1.256-3.814.07-.593-.118-1.303-.426-1.09-.569-.71-.758-.427-.9-.142-.806.071-1.018.38-1.02.663-1.042 1.113-.97 1.374-.451.735.403-.521.26-.45.735-.924.853-.735.947-.663.995-.332h.806l.805.213.664.545.52.758.427.972.048.663.213.663.047 1.138.142-.38v-.023l.024-.995zm-9.145 2.25-.048.095-.402 1.043.331.379v-.095l.024-.119.142-.947.048-.095-.048.024zm.26-.545-.118.545.024.071.237-.64.118-.473zm6.492 6.42.734-2.274.213-1.042-.663 1.587-.592 1.28h.023l-.213.497-.45.877-.64 1.398-.687 1.682-.094.284.876-1.54.545-.924zm-3.578 6.54h-.047l-.071.165zm4.052-7.463.734-1.824.545-1.706.19-.782.023-.592-.142.426-.498 1.043-.07.165-.38 1.967-.45 1.398zm-14.334.64 1.303 1.468 1.28 1.209.095.094.805.545-1.28-1.28-.26-.212-.782-.664-.805-.781-.521-.664.047.119zm.498.781.118.19.38.379zm-.616-.687-.166-.166.284.356zm-.332-.663-.023-.071-.569-.782v.024zm14.38-9.287.096-.142.45.284.474.616.26 1.114.024 1.587-.024 1.113.142-.402.19-1.35v-1.185l-.048-.214-.094-.236-.569-.83-.734-.616-.261-.118-.213-.024h-.735l-.734.19-.877.379-.876.592-.853.853-.853 1.066-.734 1.114-.45.876v.26l.07.64.119.285.213.118.26.048-.047.142-.26-.048-.26-.166-.167-.331-.07-.64-.214.616-.024.237v.118l.024.024.521.616-.094.095-.45-.521v.26l.379.308-.095.095-.048-.047-.047.047-.142-.095v.024l.26.284-.094.095-.095-.095.19.308-.143.071-.047-.118v.047h-.142l-.095-.568-.355-.38-.142-.165-.048.26v.356l.119.19-.095.094-.166-.237v-.403l.071-.402-.166-.19h-.023v-.024l-.072-.094-.45-.356-.592-.64-.663-.615-.119-.095-.213-.142-.948-.545-1.018-.237h-1.066l-.853.26-.711.57-.521.757-.332.924v.403l.355.948.687 1.231 1.09 1.683 1.185 1.445.853.687.9.71.877.735.852.71.782.664.664.569.663.497.545.38.45.33.308.261.166.166.07-.166.12-.284.284-.308.26-.474.142-.19.45-.828.593-1.303.829-1.398.876-1.635.853-1.658.758-1.706.616-1.516.19-.592.024-1.564-.024-1.587-.26-1.067-.427-.568zm-15.398 5.023.142.047-.095.355.26-.734.57-.806.757-.616.9-.26h1.067l1.066.237.545.308-.048-.048-.829-.568-.782-.45-.829-.214h-.71l-.64.166-.545.474-.521.71-.332.901-.095.924.048 1.066.189.948-.142-.782v-.592l-.071-.664zm15.351 7.107.143.095-.237.355-.474.924-.592 1.469-.664 1.658-.71 1.611-.45 1.327-.143-.048.45-1.326.711-1.611.663-1.659.593-1.468.474-.924zm-1.919 3.222.095.095-.545.663-.094.166-.356.687-.07-.024-.048.095-.64 1.042-.403.9-.26.593-.142-.048.26-.592.403-.9.64-1.09.497-.734.427-.853 1.09-2.346.378-.995-1.137 2.038-.995 1.635-.118.331-.071-.024-.119.214-.947 1.54-.143-.095.166-.237-.26.095h-.071l-.095.118.19.142-.095.095-.19-.118-.142.142.213.142-.095.095-.213-.142-.095.118-.142.024-.19-.19-.213-.19-.307-.213-.403-.379-.38-.379-.686-.497-.687-.545-.545-.332-.782-.545-.735-.545-.781-.592-.853-.71-.45-.45.545.781 1.16 1.256.735.568.948.664-.095.094-.853-.592 1.184 1.066 1.54.9 1.35.593-.047.142-1.35-.592-1.587-.948-1.564-1.398-.355-.403-.64-.473-1.635-1.47-1.445-1.492-.331-.402.402.687 1.114 1.303-.095.094-1.114-1.303-.592-.971.095-.071-.545-.687-.592-.924-.142-.332.142-.047.142.332.545.876 1.066 1.35 1.445 1.493 1.635 1.469-.616-.687-1.066-1.469-.403-.426-.663-.83-.687-.829-.664-.9-.592-1.019-.521-1.042-.285-1.09-.07-.995.023-1.114.332-1.113.592-.948.734-.687.782-.45.758-.142.924.142.9.45.119.119.166.023.805.522.687.687.64.758.663.805.545.782.308.332.071-.45.545-1.706.924-1.872 1.28-1.563 1.184-1.185.971-.782.095.095-.971.782-1.185 1.184-1.232 1.564-.924 1.824-.544 1.706-.095.521.142.166.355-.971.332-.64.071-.379.83-1.848 1.302-1.73 1.445-1.302 1.303-.9.095.094-1.255.877.64-.427 1.018-.379.853-.07.947.141.806.474.616.71.426 1.138.119 1.35-.19 1.564-.023.071-.166 1.208-.142.664-.024.331-.403 1.374.26-.64.664-1.776.427-1.493.308-1.16-.119-.711h.142l.119.71-.308 1.209-.427 1.492-.663 1.777-.782 1.872-.426.829-.071.213-.474.948-.332.734-.876 2.417-1.09 2.345-.095.166zm-14.048-8.292.426.853.592.971.522.735-.498-.806-.118-.26-.214-.285z" style="font-size:23.6911px;font-family:PWLittleHearts;-inkscape-font-specification:PWLittleHearts;stroke-width:1.11052" aria-label="O" transform="translate(-13.473 -13.17)"/></svg>