<svg width="649.212" height="59.33" viewBox="0 0 171.771 15.698" xmlns="http://www.w3.org/2000/svg"><path d="M17.702 137.193c-.37-.342-1.109-.3-1.629-.123-.575.178-1.108.48-1.601.821a11.8 11.8 0 0 0-2.6 2.423c-.712.89-1.342 1.875-1.698 2.956-1.012-.041-2.19-.328-2.627-1.314-.493-1.122.191-2.34 1.067-3.052.438-.356.972-.616 1.533-.547.26.027.534.15.684.37.329.492 0 1.149-.356 1.546-.273.287-.63.273-.725.178-.068-.069.041-.233.082-.26-.205-.028-.424.15-.493.328-.068.192.014.397.26.41.329.014.685-.26.945-.56.41-.48.766-1.205.342-1.739-.356-.438-1.013-.465-1.533-.355-.547.123-1.067.451-1.478.834-.397.397-.712.89-.807 1.451-.11.561.027 1.15.355 1.629.589.862 1.698 1.163 2.71 1.218-.178.575-.287 1.19-.26 1.793.028.56.178 1.163.602 1.546.343.301.89.466 1.328.466.589 0 1.109-.15 1.629-.411.93-.465 1.67-1.232 2.313-2.04.054-.068-.041-.109-.069-.068-.972 1.287-2.71 2.751-4.38 2.327-1.286-.301-1.19-1.78-.889-2.723a8 8 0 0 1 .356-.904c1.15-.055 2.3-.397 3.326-.944 1.546-.849 2.956-2.176 3.654-3.723.205-.465.397-1.122-.041-1.533m-.082 1.478c-.233.548-.575 1.04-.945 1.492-1.464 1.738-3.572 2.97-5.857 3.107a14 14 0 0 1 1.3-2.162c.698-.972 1.492-1.89 2.409-2.656.438-.383.917-.739 1.437-.985.465-.233 1.122-.465 1.587-.123.397.315.22.944.069 1.327m1.314 6.022c-.233.315-.685.698-1.068.808.082-.233.15-.493.055-.726-.082-.177-.26-.205-.425-.109-.205.11-.383.383-.314.63.027.11.11.191.205.246-.287.452-.808 1.286-1.273 1.52-.219.095-.52.109-.67-.124s-.055-.548.04-.794c.206-.52.507-1.067.89-1.492.315-.342 1.027-.876 1.437-.52.15.15.164.329.137.507 0 .04.055.068.069.027a.65.65 0 0 0-.124-.616c-.191-.191-.479-.219-.725-.191-.849.082-1.615.711-1.957 1.491-.22.48-.301 1.246.096 1.656.383.397 1.04.165 1.423-.095.465-.329.862-.78 1.095-1.3.438-.083.903-.507 1.177-.85.055-.068-.041-.109-.068-.068m-1.657.589c-.068-.192.069-.452.26-.52.356-.137-.068.67-.095.711a.4.4 0 0 1-.165-.191m3.586 1.587c-.123-.177.863-1.532 1.136-2.326.164-.616-.328-.849-.82-.575a3 3 0 0 0-.617.465 8 8 0 0 0-.547.63c.205-.506.328-.849.191-1.068-.191-.287-.602-.054-.82.178-.233.247-.316.356-.452.52-.096.124 0 .15.068.069.164-.192.233-.288.383-.424.082-.083.233-.22.37-.22.273 0-.315.876-.342.918-.356.547-.698 1.094-1.04 1.642-.042.082-.096.137-.096.233 0 .109.068.205.164.26.178.095.328-.014.424-.165.288-.451.561-.862.821-1.327.274-.397.575-.808.917-1.136.22-.22.589-.561.876-.493.11.027.164.096.123.192-.383.848-1.19 1.834-1.204 2.559 0 .164.096.315.246.383.192.069.425 0 .602-.123.384-.26.78-.794 1.136-1.19.302-.356.616-.74.904-1.11.04-.04-.028-.122-.069-.068-.533.671-1.122 1.396-1.71 1.999-.151.15-.52.37-.644.177m8.554-2.354c-.41.794-1.054 1.643-1.067 2.286a.42.42 0 0 0 .246.383c.192.069.424 0 .602-.123.383-.26.78-.794 1.136-1.19a35 35 0 0 0 .903-1.11c.041-.04-.027-.122-.068-.068-.534.671-1.122 1.396-1.71 1.999-.151.15-.52.37-.644.178-.123-.178.903-1.52 1.136-2.327.055-.205.055-.37-.027-.52-.302-.452-1.054.164-1.314.424-.178.164-.329.356-.48.534.179-.383.37-.958-.081-1.109-.274-.068-.534.137-.726.301-.328.288-.602.671-.862 1.04.178-.355.452-.89.26-1.204-.205-.328-.63-.027-.821.164a10 10 0 0 0-.452.52c-.082.11.014.137.069.069.123-.164.246-.288.383-.424.096-.083.246-.26.37-.233.19.082-.247.78-.343.93-.356.575-.684 1.11-1.026 1.643-.055.082-.096.15-.096.246 0 .11.055.206.15.26.192.096.343-.013.438-.164.384-.643.794-1.26 1.232-1.861.192-.26.383-.575.63-.794.096-.082.575-.506.657-.233 0 .192-.124.438-.206.602-.136.247-.273.48-.424.726-.246.424-.493.848-.698 1.286-.082.165-.068.37.123.452.165.055.315-.014.397-.164.26-.493.52-1 .78-1.492.26-.41.548-.821.917-1.15.178-.15.48-.41.712-.314.123.054-.041.328-.096.437m2.19-.479c-.164.26-.287.466-.438.657-.041.055-.027.082-.014.096a9.4 9.4 0 0 0-.657 1.273c-.137.37-.342 1.109.274 1.15.506.04.958-.397 1.26-.74a6 6 0 0 0 .45-.547c-.163.315-.574 1.232.07 1.287.314-.028.533-.206.752-.397.547-.561 1.341-1.533 1.752-2.053.04-.055-.028-.11-.069-.069a25 25 0 0 1-1.71 1.985c-.137.123-.301.26-.466.26-.397.014.041-.63.11-.766.37-.644.835-1.246 1.177-1.903.11-.178-.028-.41-.233-.41-.164 0-.287.164-.37.314-.218.356-.465.753-.67 1.109-.246.383-.52.725-.807 1.054-.247.287-.644.698-1.04.63-.138-.042-.22-.151-.165-.33.22-.738.74-1.34 1.122-1.997.083-.124.192-.288.247-.425.068-.15-.055-.314-.22-.355-.163-.028-.273.054-.355.177m6.364.657c-.274.37-.575.712-.862 1.054-.383.438-.794.89-1.314 1.15-.246.11-.548.205-.808.096-.26-.124-.26-.425-.205-.671.096-.41.288-.821.52-1.177.288-.465.698-1.013 1.246-1.163.219-.055.56-.028.602.26.04.232-.315.643-.548.492-.068-.04-.027-.164 0-.191-.123.014-.273.164-.287.3-.014.138.082.247.233.247.178 0 .328-.15.438-.273.205-.26.219-.411.232-.48.082-.56-.739-.52-1.067-.424-.753.22-1.328.794-1.643 1.424-.246.465-.342 1.136-.013 1.587.3.425.903.315 1.3.096.452-.233.835-.616 1.177-.985.356-.397.739-.863 1.067-1.273.041-.041-.013-.11-.068-.069m4.9-6.09c0-.246-.11-.506-.41-.493-.261 0-.535.165-.754.315-.766.63-1.245 1.547-1.779 2.382a60 60 0 0 0-3.107 6.062c-.136.288.233.52.452.137.178-.314.37-.657.52-.971.397-.52.89-1.095 1.382-1.52.274-.246 1.328-.903.849 0-.356.671-.944 1.438-1.095 2.122-.027.164-.014.356.11.479.219.219.533 0 .739-.15.766-.644 1.41-1.424 2.025-2.204.041-.055-.027-.11-.068-.069-.602.78-1.191 1.465-1.903 2.094-.287.233-.56.192-.41-.11.273-.56.711-1.135.985-1.6.178-.315.41-.89.028-1.164-.233-.137-.534.014-.74.123-.26.137-.492.329-.711.534a16 16 0 0 0-.93.972c.136-.287.287-.561.423-.835 1.355-1.286 2.847-2.942 3.791-4.475.302-.52.589-1.027.603-1.629m-1.054 2.121c-.342.493-.698.972-1.081 1.424-.671.807-1.342 1.56-2.108 2.285a56 56 0 0 1 1.054-1.998c.588-1.013 1.136-2.04 1.752-3.024.095-.151 1.04-1.533 1.286-.959.233.548-.63 1.875-.903 2.272m3.175 3.97c-.233.314-.684.697-1.067.807.082-.233.15-.493.054-.725-.082-.178-.26-.206-.424-.11-.205.11-.383.383-.315.63a.4.4 0 0 0 .205.246c-.287.452-.807 1.286-1.272 1.52-.22.095-.52.109-.671-.124-.15-.233-.055-.548.041-.794.205-.52.506-1.067.89-1.492.314-.342 1.026-.876 1.437-.52.15.15.164.329.137.507 0 .04.054.068.068.027a.65.65 0 0 0-.123-.616c-.192-.191-.48-.219-.725-.191-.849.082-1.615.711-1.958 1.491-.219.48-.3 1.246.096 1.656.383.397 1.04.165 1.424-.095a3.25 3.25 0 0 0 1.094-1.3c.438-.083.904-.507 1.177-.85.055-.068-.04-.109-.068-.068m-1.656.588c-.068-.192.068-.452.26-.52.356-.137-.068.67-.096.711a.4.4 0 0 1-.164-.191m6.077 1.396c-.438.37-.74.287-.561-.123.177-.356.396-.698.588-.986.219-.356.452-.725.67-1.08.083-.151.11-.343-.054-.453a.29.29 0 0 0-.397.096c-.123.192-.246.383-.37.589.042-.206.055-.41-.04-.602-.137-.247-.452-.288-.712-.247-.561.096-1.068.466-1.437.89-.342.41-.63.985-.657 1.519-.014.287.04.616.273.807.22.165.507.137.74.042.438-.178.766-.575 1.04-.945-.137.329-.288.78.04.972.302.164.63-.082.904-.342.547-.561 1.341-1.533 1.752-2.053.04-.055-.027-.11-.069-.069a25 25 0 0 1-1.71 1.985m-1.889.274c-.123.04-.274.068-.41.04-.247-.054-.274-.3-.247-.506.137-.78.698-1.615 1.232-2.08.191-.178.451-.37.739-.37.37 0 .438.425.37.712-.096.315-.425.835-.603 1.122-.26.411-.616.89-1.081 1.082m7.568-2.437c-.41.794-1.053 1.643-1.067 2.286 0 .164.096.315.246.383.192.069.425 0 .602-.123.384-.26.78-.794 1.136-1.19.302-.356.616-.74.904-1.11.04-.04-.028-.122-.069-.068-.533.671-1.122 1.396-1.71 1.999-.151.15-.52.37-.644.178-.123-.178.904-1.52 1.136-2.327.055-.205.055-.37-.027-.52-.301-.452-1.054.164-1.314.424-.178.164-.328.356-.479.534.178-.383.37-.958-.082-1.109-.274-.068-.534.137-.726.301-.328.288-.602.671-.862 1.04.178-.355.452-.89.26-1.204-.205-.328-.63-.027-.82.164-.206.22-.33.37-.453.52-.082.11.014.137.069.069.123-.164.246-.288.383-.424.096-.083.246-.26.37-.233.191.082-.247.78-.343.93-.355.575-.684 1.11-1.026 1.643-.055.082-.096.15-.096.246 0 .11.055.206.15.26.192.096.343-.013.439-.164a24 24 0 0 1 1.231-1.861c.192-.26.384-.575.63-.794.096-.082.575-.506.657-.233 0 .192-.123.438-.205.602-.137.247-.274.48-.425.726-.246.424-.492.848-.698 1.286-.082.165-.068.37.124.452.164.055.314-.014.396-.164.26-.493.52-1 .78-1.492.26-.41.548-.821.918-1.15.177-.15.479-.41.711-.314.123.054-.04.328-.096.437m5.01.178c-.233.315-.685.698-1.068.808.082-.233.15-.493.055-.725-.082-.178-.26-.206-.424-.11-.206.11-.384.383-.315.63.027.11.11.191.205.246-.287.452-.807 1.286-1.273 1.52-.219.095-.52.109-.67-.124s-.055-.548.04-.794c.206-.52.507-1.067.89-1.492.315-.342 1.027-.876 1.437-.52.15.15.165.329.137.507 0 .04.055.068.069.027a.65.65 0 0 0-.124-.616c-.191-.191-.479-.219-.725-.191-.848.082-1.615.711-1.957 1.491-.219.48-.301 1.246.096 1.656.383.397 1.04.165 1.423-.095.465-.329.862-.78 1.095-1.3.438-.083.903-.507 1.177-.85.055-.068-.041-.109-.068-.068m-1.656.589c-.069-.192.068-.452.26-.52.355-.137-.069.67-.096.711a.4.4 0 0 1-.164-.191m4.516-.589c-.479.616-1.314 1.711-2.012 2.204-.123.082-.315.191-.451.137-.137-.069.04-.438.109-.548a15 15 0 0 1 1.054-1.601c.082-.11.164-.233.26-.342a.27.27 0 0 0 .027-.301.3.3 0 0 0-.246-.137c-.11.014-.22.068-.315.11-.274.095-.602.136-.89.04.11-.205.233-.465.151-.67-.055-.123-.192-.096-.274-.014a.63.63 0 0 0-.15.301c-.028.178 0 .329.137.438-.096.15-.178.274-.26.383-.069.096.013.137.068.069.068-.096.178-.233.274-.41.232.136.492.15.752.205-.287.369-.547.78-.752 1.204-.15.301-.548 1.286-.028 1.437.22.082.466-.082.644-.219.67-.534 1.478-1.615 1.97-2.217.042-.055-.027-.11-.068-.069m-2.546-.479c-.136-.11-.136-.287-.082-.424.014-.041.137-.26.22-.192.136.137-.07.507-.138.616m9.06.48c-.684.889-1.464 1.806-2.408 2.394.534-.93 1.026-1.86 1.587-2.75a.35.35 0 0 0 .014-.26c-.055-.206-.397-.315-.506-.124-.315.548-.589 1.095-.945 1.588q-.287.39-.574.739c-.22.233-.438.465-.726.602-.342.164-.67.055-.534-.342.055-.15.137-.301.22-.452.287-.492.574-.917.82-1.355.192-.342.22-.766-.15-.862-.315-.082-.698.356-.862.548a10 10 0 0 0-.22.273c-.068.082.015.137.07.069.04-.055.136-.178.232-.288.11-.123.356-.424.547-.37.096.028-.136.384-.205.48-.287.452-.588.958-.794 1.464-.137.356-.314 1.054.247 1.15.26.041.547-.082.752-.22.247-.163.438-.369.63-.574.15-.178.287-.356.424-.534-.027.069-.068.124-.917 1.793-.15.082-.287.178-.438.26-.506.329-1.026.657-1.478 1.04a6.3 6.3 0 0 0-1.19 1.3c-.288.411-.548.863-.657 1.342-.055.26-.096.602.082.835.164.232.479.219.725.123.506-.205.903-.643 1.218-1.054.383-.479.712-.999 1.027-1.505.533-.89 1.012-1.82 1.505-2.738 1.04-.616 1.848-1.587 2.573-2.504.041-.041-.014-.11-.068-.069m-5.173 6.309c-.273.479-.602 1.08-1.054 1.382-.191.123-.492.178-.643-.027-.164-.22-.11-.562-.055-.808.124-.465.384-.903.671-1.3a6.1 6.1 0 0 1 1.218-1.3c.452-.37.944-.685 1.45-1 .07-.04.138-.081.206-.136-.561 1.081-1.136 2.162-1.793 3.189m10.265-6.31c-.48.616-1.314 1.711-2.012 2.204-.123.082-.315.191-.452.137-.136-.069.041-.438.11-.548a15 15 0 0 1 1.054-1.601c.082-.11.164-.233.26-.342a.27.27 0 0 0 .027-.301.3.3 0 0 0-.246-.137c-.11.014-.22.068-.315.11-.274.095-.602.136-.89.04.11-.205.233-.465.15-.67-.054-.123-.19-.096-.273-.014a.63.63 0 0 0-.15.301c-.028.178 0 .329.137.438-.096.15-.178.274-.26.383-.069.096.013.137.068.069.068-.096.178-.233.274-.41.232.136.492.15.752.205-.287.369-.547.78-.752 1.204-.15.301-.548 1.286-.028 1.437.22.082.466-.082.644-.219.67-.534 1.478-1.615 1.97-2.217.041-.055-.027-.11-.068-.069m-2.546-.479c-.137-.11-.137-.287-.082-.424.014-.041.137-.26.22-.192.136.137-.07.507-.138.616m5.53.48-.151.191c-.15.178-.287.356-.438.534-.328.37-.684.752-1.068 1.067-.328.26-.752.561-1.19.493-.602-.15-.288-.89-.137-1.273a3 3 0 0 0 .78-.068c.753-.206 1.15-.575 1.314-.794.178-.246.219-.561.041-.753a.7.7 0 0 0-.41-.219c-.07-.013-.411-.068-.931.192-.507.26-.945.67-1.232 1.163-.342.589-.438 1.396.027 1.807.356.315.863.164 1.232-.041.93-.534 1.574-1.41 2.23-2.231.042-.055-.026-.11-.068-.069m-2.08-.37c.19-.178.45-.37.725-.356.095 0 .177.041.219.082.26.274-.466 1.465-1.383 1.533a4 4 0 0 1-.424.027c.205-.479.52-.903.862-1.286m4.803.356a33 33 0 0 1-1.328 1.601 2.2 2.2 0 0 1-.916.67c.15-.081.287-.191.396-.3.74-.78.26-1.862-.191-2.67.137-.164.3-.341.37-.547.068-.246-.179-.328-.357-.191-.218.191-.232.533-.205.835-.164.191-.37.465-.492.615-.055.069 0 .15.068.069.164-.206.328-.41.438-.561.068.862.356 1.847-.288 2.559-.164.164-.41.315-.656.287-.137-.027-.274-.11-.274-.3 0-.274.315-.466.479-.37.068.04.027.178 0 .205a.39.39 0 0 0 .274-.342c.013-.15-.083-.288-.26-.246-.329.068-.603.465-.575.78.04.547.848.424 1.067.37.342-.083.657-.288.917-.52.534-.494 1.19-1.383 1.601-1.876.042-.055-.027-.11-.068-.068m-2.053-1.177c.027-.096.123-.26.246-.233.22.055-.26.602-.273.63a.8.8 0 0 1 .027-.397m2.053 1.355c-.137.273-.287.56-.424.834-.986 1.903-2.382 4.64-3.394 6.488-.041.082-.096.164-.083.26.028.219.315.26.411.082.055-.082.096-.164.15-.246 1.26-2.204 2.368-4.448 3.532-6.584.273-.396.574-.807.917-1.135.219-.22.588-.562.876-.493.109.027.164.096.123.191-.15.507-1.848 2.519-.958 2.93.26.095.547-.07.739-.233.752-.616 1.368-1.479 1.957-2.19.04-.055-.027-.11-.069-.069-.287.384-.684.849-.999 1.205-.164.164-1.218 1.437-1.41.958-.081-.192.863-1.492 1.137-2.3.054-.191.082-.451-.055-.574-.438-.384-1.122.219-1.382.465-.192.192-.37.424-.534.616.014-.041.191-.41.3-.643.056-.11.124-.247.124-.301 0-.192-.205-.315-.383-.233-.082.041-.15.137-.205.246-.137.22-.26.397-.384.561-.068.096 0 .124.055.082zm6.761-.165-.15.192c-.151.178-.288.356-.438.534-.329.37-.685.752-1.068 1.067-.328.26-.753.561-1.19.493-.603-.15-.288-.89-.138-1.273a3 3 0 0 0 .78-.068c.753-.206 1.15-.575 1.314-.794.178-.246.22-.561.042-.753a.7.7 0 0 0-.411-.219c-.069-.013-.41-.068-.93.192-.507.26-.945.67-1.233 1.163-.342.589-.437 1.396.028 1.807.356.315.862.164 1.232-.041.93-.534 1.574-1.41 2.23-2.231.042-.055-.027-.11-.068-.069m-2.08-.37c.191-.177.451-.369.725-.355.096 0 .178.041.22.082.26.274-.466 1.465-1.383 1.533a4 4 0 0 1-.424.027c.205-.479.52-.903.862-1.286m6.98-3.174c-.384.15-.808.15-1.218.15-.384-.013-.767-.04-1.164-.054.48-.822.958-1.657 1.465-2.464.054-.096.15-.26.178-.328.082-.22-.274-.37-.41-.178-.63.971-1.26 1.957-1.862 2.956-.52 0-1.054.04-1.56.205-.042.028-.014.082.027.069a7 7 0 0 1 1.423-.083c-.711 1.164-1.396 2.34-1.957 3.559-.233.506-.479 1.04-.561 1.587-.027.206-.041.507.178.616.164.082.41-.027.493-.096.246-.191.41-.383.602-.588.506-.547.999-1.15 1.478-1.738.041-.041-.027-.123-.069-.069-.533.657-1.067 1.314-1.656 1.903-.123.11-.246.232-.396.3-.425.193.095-.984.136-1.08a44 44 0 0 1 2.382-4.38c.821-.014 1.765.164 2.532-.233.11-.068.068-.109-.041-.054m.3 3.544c-.232.315-.683.698-1.067.808.082-.233.15-.493.055-.725-.082-.178-.26-.206-.424-.11-.206.11-.383.383-.315.63.027.11.11.191.205.246-.287.452-.807 1.286-1.273 1.52-.219.095-.52.109-.67-.124s-.055-.548.04-.794c.206-.52.507-1.067.89-1.492.315-.342 1.027-.876 1.438-.52.15.15.164.329.136.507 0 .04.055.068.069.027a.65.65 0 0 0-.123-.616c-.192-.191-.48-.219-.726-.191-.848.082-1.615.711-1.957 1.491-.219.48-.3 1.246.096 1.656.383.397 1.04.165 1.423-.095.466-.329.863-.78 1.095-1.3.438-.083.904-.507 1.177-.85.055-.068-.04-.109-.068-.068m-1.655.589c-.069-.192.068-.452.26-.52.356-.137-.069.67-.096.711a.4.4 0 0 1-.164-.191m2.053 2.518c.3-.096.82-.534.794-.958a.26.26 0 0 0-.206-.219c-.205-.041-.41.137-.356.356.192.37-.095.63-.232.821m4.763-2.942c-.137.273-.288.56-.425.834-.985 1.903-2.381 4.64-3.394 6.488-.041.082-.096.164-.082.26.027.219.315.26.41.082.055-.082.096-.164.151-.246 1.26-2.204 2.368-4.448 3.531-6.584.274-.396.575-.807.917-1.135.22-.22.589-.562.876-.493.11.027.164.096.123.191-.15.507-1.847 2.519-.958 2.93.26.095.548-.07.74-.233.752-.616 1.368-1.479 1.956-2.19.041-.055-.027-.11-.068-.069a20 20 0 0 1-1 1.205c-.163.164-1.217 1.437-1.409.958-.082-.192.862-1.492 1.136-2.3.055-.191.082-.451-.055-.574-.438-.384-1.122.219-1.382.465-.192.192-.37.424-.534.616.014-.041.192-.41.301-.643.055-.11.124-.247.124-.301 0-.192-.206-.315-.384-.233-.082.041-.15.137-.205.246-.137.22-.26.397-.383.561-.069.096 0 .124.055.082zm5.967 1.82c-.438.37-.74.287-.561-.123.177-.356.396-.698.588-.986.219-.356.452-.725.67-1.08.083-.151.11-.343-.054-.453a.29.29 0 0 0-.397.096c-.123.192-.246.383-.37.589.042-.206.055-.41-.04-.602-.137-.247-.452-.288-.712-.247-.561.096-1.068.466-1.437.89-.342.41-.63.985-.657 1.519-.014.287.04.616.274.807.219.165.506.137.739.042.438-.178.766-.575 1.04-.945-.137.329-.288.78.04.972.302.164.63-.082.904-.342.548-.561 1.341-1.533 1.752-2.053.041-.055-.027-.11-.068-.069a25 25 0 0 1-1.711 1.985m-1.889.274c-.123.04-.274.068-.41.04-.247-.054-.274-.3-.247-.506.137-.78.698-1.615 1.232-2.08.191-.178.451-.37.739-.37.37 0 .438.425.37.712-.096.315-.425.835-.603 1.122-.26.411-.616.89-1.081 1.082m6.46-2.259c-.48.616-1.314 1.711-2.012 2.204-.123.082-.315.191-.452.137-.136-.069.041-.438.11-.548a15 15 0 0 1 1.054-1.601c.082-.11.164-.233.26-.342a.27.27 0 0 0 .027-.301.3.3 0 0 0-.246-.137c-.11.014-.22.068-.315.11-.274.095-.602.136-.89.04.11-.205.233-.465.15-.67-.054-.123-.19-.096-.273-.014a.63.63 0 0 0-.15.301c-.028.178 0 .329.137.438-.096.15-.178.274-.26.383-.069.096.013.137.068.069.068-.096.178-.233.274-.41.232.136.492.15.752.205-.287.369-.547.78-.752 1.204-.15.301-.548 1.286-.028 1.437.22.082.466-.082.643-.219.671-.534 1.479-1.615 1.971-2.217.041-.055-.027-.11-.068-.069m-2.546-.479c-.137-.11-.137-.287-.082-.424.014-.041.137-.26.22-.192.136.137-.07.507-.138.616m4.736 2.464c-.438.37-.74.287-.561-.123.177-.356.396-.698.588-.986.219-.356.452-.725.67-1.08.083-.151.11-.343-.054-.453a.29.29 0 0 0-.397.096c-.123.192-.246.383-.37.589.042-.206.055-.41-.04-.602-.137-.247-.452-.288-.712-.247-.561.096-1.068.466-1.437.89-.342.41-.63.985-.657 1.519-.014.287.04.616.274.807.218.165.506.137.739.042.438-.178.766-.575 1.04-.945-.137.329-.288.78.04.972.302.164.63-.082.904-.342.547-.561 1.341-1.533 1.752-2.053.04-.055-.028-.11-.069-.069a25 25 0 0 1-1.71 1.985m-1.889.274c-.123.04-.274.068-.41.04-.247-.054-.274-.3-.247-.506.137-.78.698-1.615 1.232-2.08.191-.178.451-.37.739-.37.37 0 .438.425.37.712-.096.315-.425.835-.603 1.122-.26.411-.616.89-1.081 1.082m10.237-8.8c-.26-.083-.575.081-.78.218-.602.41-.999 1.027-1.382 1.629-1.109 1.82-2.231 3.682-2.902 5.72-.11.411-.273 1.123-.04 1.356.205.205.492.15.725.027.93-.534 1.505-1.492 2.19-2.34.04-.055-.028-.11-.069-.069-.657.822-1.163 1.643-1.998 2.15-.178.095-.52.26-.643.04-.11-.191.342-1.231.588-1.752a48 48 0 0 0 2.272-2.545c.383-.452.753-.917 1.109-1.41.342-.479.684-.972.93-1.519.123-.26.22-.52.247-.808.027-.246.013-.588-.247-.698m.123.862c-.11.574-.465 1.095-.766 1.574-.657.985-1.423 1.902-2.19 2.792-.37.41-.739.82-1.108 1.218-.069.082-.15.15-.22.232 1.082-2.107 2.136-4.297 3.56-6.186.122-.137.464-.493.656-.26.137.164.096.438.068.63m-.191 7.664c-.438.37-.74.287-.561-.123a10 10 0 0 1 .588-.986c.22-.356.452-.725.67-1.08.083-.151.11-.343-.054-.453a.29.29 0 0 0-.397.096c-.123.192-.246.383-.37.589.042-.206.055-.41-.04-.602-.137-.247-.452-.288-.712-.247-.561.096-1.068.466-1.437.89-.342.41-.63.985-.657 1.519-.014.287.041.616.274.807.219.165.506.137.739.042.438-.178.766-.575 1.04-.945-.137.329-.288.78.04.972.302.164.63-.082.904-.342.548-.561 1.341-1.533 1.752-2.053.041-.055-.027-.11-.068-.069a25 25 0 0 1-1.711 1.985m-1.889.274c-.123.04-.274.068-.41.04-.247-.054-.274-.3-.247-.506.137-.78.698-1.615 1.232-2.08.192-.178.452-.37.739-.37.37 0 .438.425.37.712-.096.315-.425.835-.603 1.122-.26.411-.616.89-1.08 1.082m7.76-.082c-.123-.178.862-1.533 1.136-2.327.164-.616-.328-.849-.821-.575a3 3 0 0 0-.616.465 8 8 0 0 0-.547.63c.205-.506.328-.849.191-1.068-.191-.287-.602-.054-.82.178-.234.247-.316.356-.453.52-.095.124 0 .151.069.069.164-.192.233-.288.383-.424.082-.083.233-.22.37-.22.273 0-.315.876-.343.918-.355.547-.698 1.094-1.04 1.642-.04.082-.096.137-.096.233 0 .109.069.205.165.26.178.095.328-.014.424-.165.287-.451.561-.862.821-1.327.274-.397.575-.808.917-1.136.22-.22.589-.561.876-.493.11.028.164.096.123.192-.383.848-1.19 1.834-1.204 2.559 0 .164.096.315.246.383.192.069.424 0 .602-.123.384-.26.78-.794 1.136-1.19.301-.356.616-.74.904-1.11.04-.04-.028-.122-.069-.068-.534.671-1.122 1.396-1.71 1.999-.151.15-.52.37-.644.178m3.504-3.942c.15.068.328 0 .41-.164.083-.178.042-.356-.109-.438-.137-.069-.329.013-.397.164-.096.164-.041.37.096.438m.835 1.834c.04-.041-.028-.123-.069-.069-.533.671-1.122 1.396-1.71 1.999a.9.9 0 0 1-.356.219c-.315.068-.301-.151-.206-.343.343-.698.794-1.41 1.164-2.08.068-.11.164-.301.164-.37 0-.191-.205-.314-.383-.232-.082.041-.15.137-.206.246a8 8 0 0 1-.383.561c-.068.096.014.124.055.083-.301.588-.63 1.218-.862 1.806-.055.178-.069.41.082.548.192.15.465.068.616-.028.397-.26.821-.821 1.19-1.232.302-.355.616-.739.904-1.108m1.286-1.396c-.027.04-.013.082.028.027.095-.123.219-.26.383-.328.383-.15.766.315 1.204.205.192-.041.356-.205.466-.356.027-.068.109-.232.054-.191-.054.054-.095.095-.178.164-.164.123-.355.15-.574.11-.343-.083-.726-.315-1.068-.083-.164.096-.246.288-.315.452m.575 3.504c-.123-.178.862-1.533 1.136-2.327.164-.616-.328-.849-.821-.575a3 3 0 0 0-.616.465 8 8 0 0 0-.548.63c.206-.506.329-.849.192-1.068-.192-.287-.602-.054-.821.178-.233.247-.315.356-.452.52-.096.124 0 .151.069.069.164-.192.232-.288.383-.424.082-.083.233-.22.37-.22.273 0-.315.876-.343.918-.356.547-.698 1.094-1.04 1.642-.041.082-.096.137-.096.233 0 .109.069.205.165.26.177.095.328-.014.424-.165.287-.451.561-.862.821-1.327.274-.397.575-.808.917-1.136.219-.22.588-.561.876-.493.11.028.164.096.123.192-.383.848-1.19 1.834-1.204 2.559a.42.42 0 0 0 .246.383c.192.069.424 0 .602-.123.383-.26.78-.794 1.136-1.19.301-.356.616-.74.903-1.11.042-.04-.027-.122-.068-.068-.534.671-1.122 1.396-1.71 1.999-.151.15-.52.37-.644.178m4.544-.192c-.438.37-.74.287-.561-.123a10 10 0 0 1 .588-.986c.22-.356.452-.725.67-1.08.083-.151.11-.343-.054-.453a.29.29 0 0 0-.397.096c-.123.192-.246.383-.37.589.042-.206.055-.41-.04-.602-.137-.247-.452-.288-.712-.247-.561.096-1.068.466-1.437.89-.342.41-.63.985-.657 1.519-.014.287.041.616.274.807.219.165.506.137.739.042.438-.178.766-.575 1.04-.945-.137.329-.288.78.04.972.302.164.63-.082.904-.342.548-.561 1.341-1.533 1.752-2.053.041-.055-.027-.11-.068-.069a25 25 0 0 1-1.711 1.985m-1.889.274c-.123.04-.274.068-.41.04-.247-.054-.274-.3-.247-.506.137-.78.698-1.615 1.232-2.08.192-.178.452-.37.739-.37.37 0 .438.425.37.712-.096.315-.425.835-.603 1.122-.26.411-.616.89-1.08 1.082m9.8-2.437c-.411.794-1.054 1.643-1.068 2.286 0 .164.096.315.246.383.192.069.425 0 .602-.123.384-.26.78-.794 1.136-1.19.302-.356.616-.74.904-1.11.04-.04-.028-.122-.069-.068-.533.671-1.122 1.396-1.71 1.999-.151.15-.52.37-.644.178-.123-.178.904-1.52 1.136-2.327.055-.205.055-.37-.027-.52-.301-.452-1.054.164-1.314.424-.178.164-.328.356-.479.534.178-.383.37-.958-.082-1.109-.274-.068-.534.137-.726.301-.328.288-.602.671-.862 1.04.178-.355.452-.89.26-1.204-.205-.328-.63-.027-.82.164-.206.22-.33.37-.453.52-.082.11.014.137.069.069.123-.164.246-.288.383-.424.096-.083.246-.26.37-.233.191.082-.247.78-.343.93-.355.575-.684 1.11-1.026 1.643-.055.082-.096.15-.096.246 0 .11.055.206.15.26.192.096.343-.013.439-.164.383-.643.794-1.26 1.231-1.861.192-.26.384-.575.63-.794.096-.082.575-.506.657-.233 0 .192-.123.438-.205.602a20 20 0 0 1-.425.726c-.246.424-.492.848-.698 1.286-.082.165-.068.37.124.452.164.055.314-.014.396-.164.26-.493.52-1 .78-1.492.26-.41.548-.821.918-1.15.177-.15.479-.41.711-.314.123.054-.04.328-.096.437m2.956-1.368c.342-.041.711-.11 1.04-.233.164-.068.684-.3.479-.547a.2.2 0 0 0-.192-.069c-.096.028-.11.096-.164.165-.301.355-.766.506-1.177.615-.041 0-.027.069.014.069m.985 3.53c-.438.37-.739.288-.561-.122a10 10 0 0 1 .588-.986c.22-.356.452-.725.671-1.08.082-.151.11-.343-.055-.453a.29.29 0 0 0-.397.096c-.123.192-.246.383-.369.589.041-.206.055-.41-.041-.602-.137-.247-.452-.288-.712-.247-.561.096-1.067.466-1.437.89-.342.41-.63.985-.657 1.519-.014.287.041.616.274.807.219.165.506.137.739.042.438-.178.766-.575 1.04-.945-.137.329-.287.78.041.972.301.164.63-.082.904-.342.547-.561 1.34-1.533 1.751-2.053.041-.055-.027-.11-.068-.069a25 25 0 0 1-1.71 1.985m-1.889.275c-.123.04-.273.068-.41.04-.247-.054-.274-.3-.247-.506.137-.78.698-1.615 1.232-2.08.192-.178.452-.37.74-.37.369 0 .437.425.369.712-.096.315-.424.835-.602 1.122-.26.411-.616.89-1.082 1.082m6.323-2.272c-.314.41-.944 1.177-1.327 1.601a2.2 2.2 0 0 1-.917.67c.15-.081.287-.191.397-.3.739-.78.26-1.862-.192-2.67.137-.164.301-.341.37-.547.068-.246-.178-.328-.356-.191-.22.191-.233.533-.205.835-.165.191-.37.465-.493.615-.055.069 0 .151.068.069.164-.205.329-.41.438-.561.069.862.356 1.847-.287 2.559-.164.164-.41.315-.657.287-.137-.027-.274-.11-.274-.3 0-.274.315-.466.48-.37.068.04.027.178 0 .205a.39.39 0 0 0 .273-.342c.014-.15-.082-.287-.26-.246-.329.068-.602.465-.575.78.041.547.849.424 1.068.37.342-.083.656-.288.917-.52.533-.494 1.19-1.383 1.6-1.876.042-.055-.027-.11-.068-.068m-2.053-1.177c.028-.096.124-.26.247-.233.219.055-.26.602-.274.63a.8.8 0 0 1 .028-.397m9.17-4.9c0-.246-.11-.506-.41-.493-.26 0-.534.165-.753.315-.767.63-1.246 1.547-1.78 2.382a60 60 0 0 0-3.106 6.063c-.137.287.233.52.452.136.178-.314.37-.657.52-.971.397-.52.89-1.095 1.382-1.52.274-.246 1.328-.903.849 0-.356.671-.945 1.438-1.095 2.122-.028.164-.014.356.11.479.218.219.533 0 .738-.15.767-.644 1.41-1.424 2.026-2.204.04-.055-.028-.11-.069-.069-.602.78-1.19 1.465-1.902 2.094-.287.233-.561.192-.41-.11.273-.56.711-1.135.985-1.6.178-.315.41-.89.027-1.164-.233-.137-.534.014-.739.123-.26.137-.493.329-.712.534-.3.288-.657.657-.93.972.137-.287.287-.561.424-.835 1.355-1.286 2.847-2.942 3.791-4.475.301-.52.589-1.027.602-1.629m-1.054 2.121c-.342.493-.698.972-1.08 1.424-.671.807-1.342 1.56-2.108 2.285.342-.684.684-1.327 1.053-1.998.589-1.013 1.136-2.04 1.752-3.024.096-.151 1.04-1.533 1.287-.959.232.548-.63 1.876-.904 2.272m2.902 3.97-.15.191c-.151.178-.288.356-.439.534-.328.37-.684.753-1.067 1.067-.329.26-.753.561-1.19.493-.603-.15-.288-.89-.138-1.273a3 3 0 0 0 .78-.068c.753-.206 1.15-.575 1.314-.794.178-.246.22-.561.041-.753a.7.7 0 0 0-.41-.219c-.069-.013-.41-.068-.93.192-.507.26-.945.67-1.233 1.163-.342.589-.438 1.396.028 1.807.356.315.862.164 1.232-.041.93-.534 1.573-1.41 2.23-2.231.041-.055-.027-.11-.068-.069zm-2.08-.37c.191-.178.451-.37.725-.356.096 0 .178.041.219.082.26.274-.465 1.465-1.382 1.533a4 4 0 0 1-.425.027c.206-.479.52-.903.863-1.286m4.94.37c-.479.615-1.314 1.71-2.012 2.203-.123.082-.314.191-.451.137-.137-.069.04-.438.11-.548.314-.547.67-1.095 1.053-1.601.082-.11.164-.233.26-.342a.27.27 0 0 0 .028-.301.3.3 0 0 0-.247-.137c-.11.014-.219.068-.315.11-.273.095-.602.136-.89.04.11-.205.233-.465.151-.67-.054-.123-.191-.096-.273-.014a.63.63 0 0 0-.15.301c-.028.178 0 .329.136.438-.096.15-.178.274-.26.383-.069.096.014.137.068.069.069-.096.178-.233.274-.41.233.136.493.15.753.205-.288.37-.548.78-.753 1.204-.15.301-.547 1.286-.027 1.437.219.082.465-.082.643-.219.67-.534 1.478-1.615 1.97-2.217.042-.055-.027-.11-.068-.069m-2.545-.48c-.137-.11-.137-.287-.082-.424.013-.041.136-.26.219-.191.136.136-.069.506-.137.615m6.514.301c-.41.794-1.054 1.643-1.067 2.286 0 .164.096.315.246.383.192.069.424 0 .602-.123.384-.26.78-.794 1.136-1.19.301-.356.616-.74.904-1.11.04-.04-.028-.122-.069-.068-.534.671-1.122 1.396-1.71 1.999-.151.15-.52.37-.644.178-.123-.178.903-1.52 1.136-2.327.055-.205.055-.37-.027-.52-.301-.452-1.054.164-1.314.424-.178.164-.329.356-.48.534.179-.383.37-.958-.081-1.109-.274-.068-.534.137-.726.301-.328.288-.602.671-.862 1.04.178-.355.452-.89.26-1.204-.205-.328-.63-.027-.821.164a10 10 0 0 0-.452.52c-.082.11.014.137.069.069.123-.164.246-.288.383-.424.096-.083.246-.26.37-.233.191.082-.247.78-.343.93-.356.575-.684 1.11-1.026 1.643-.055.082-.096.15-.096.246 0 .11.055.206.15.26.192.096.343-.013.439-.164a24 24 0 0 1 1.231-1.861c.192-.26.384-.575.63-.794.096-.082.575-.506.657-.233 0 .192-.123.438-.205.602-.137.247-.274.48-.425.726-.246.424-.492.848-.698 1.286-.082.165-.068.37.123.452.165.055.315-.014.397-.164.26-.493.52-1 .78-1.492.26-.41.548-.821.917-1.15.178-.15.48-.41.712-.314.123.054-.04.328-.096.437m5.01.178c-.233.315-.685.698-1.068.808.082-.233.15-.493.055-.725-.082-.178-.26-.206-.425-.11-.205.11-.383.383-.314.63.027.11.109.191.205.246-.288.452-.808 1.286-1.273 1.52-.219.095-.52.109-.67-.124s-.055-.548.04-.794c.206-.52.507-1.067.89-1.492.315-.342 1.027-.876 1.437-.52.15.15.164.329.137.507 0 .04.055.068.068.027a.65.65 0 0 0-.123-.616c-.191-.191-.479-.219-.725-.191-.849.082-1.615.711-1.957 1.491-.22.48-.301 1.246.096 1.656.383.397 1.04.165 1.423-.095.465-.329.862-.78 1.095-1.3.438-.083.903-.507 1.177-.85.055-.068-.041-.109-.069-.068m-1.657.589c-.068-.192.069-.452.26-.52.356-.137-.068.67-.095.712a.4.4 0 0 1-.165-.192m4.38-.602c-.315.41-.944 1.177-1.328 1.601a2.2 2.2 0 0 1-.917.67 1.7 1.7 0 0 0 .397-.3c.74-.78.26-1.862-.191-2.67.137-.164.3-.341.37-.547.068-.246-.179-.328-.357-.191-.219.191-.232.533-.205.835-.164.191-.37.465-.493.615-.054.069 0 .151.069.069.164-.205.328-.41.438-.561.068.862.356 1.847-.288 2.559-.164.164-.41.315-.657.287-.136-.027-.273-.11-.273-.3 0-.274.315-.466.479-.37.068.04.027.178 0 .205a.39.39 0 0 0 .273-.342c.014-.15-.082-.287-.26-.246-.328.068-.602.465-.574.78.04.547.848.424 1.067.37.342-.083.657-.288.917-.52.534-.494 1.19-1.383 1.601-1.876.041-.055-.027-.11-.068-.068m-2.053-1.177c.027-.096.123-.26.246-.233.22.055-.26.602-.273.63a.8.8 0 0 1 .027-.397m4.23 3.175c-.439.37-.74.287-.562-.123a10 10 0 0 1 .588-.986c.22-.356.452-.725.671-1.08.082-.151.11-.343-.055-.453a.29.29 0 0 0-.396.096c-.124.192-.247.383-.37.589.041-.206.055-.41-.041-.602-.137-.247-.452-.288-.712-.247-.56.096-1.067.466-1.437.89-.342.41-.63.985-.657 1.519-.013.287.041.616.274.807.219.165.506.137.739.042.438-.178.766-.575 1.04-.945-.137.329-.287.78.041.972.301.164.63-.082.904-.342.547-.561 1.34-1.533 1.751-2.053.041-.055-.027-.11-.068-.069a25 25 0 0 1-1.71 1.985m-1.89.274c-.123.04-.273.068-.41.04-.247-.054-.274-.3-.247-.506.137-.78.698-1.615 1.232-2.08.192-.178.452-.37.74-.37.369 0 .437.425.369.712-.096.315-.424.835-.602 1.122-.26.411-.616.89-1.082 1.082" style="font-size:13.6862px;font-family:Darleston;-inkscape-font-specification:Darleston;stroke-width:.285129" aria-label="Con mucho amor y respeto, para la niña más hermosa" transform="translate(-7.03 -136.935)"/></svg>