<svg width="106.318" height="70.392" viewBox="0 0 28.13 18.625" xmlns="http://www.w3.org/2000/svg"><path d="M30.69 101.941q-.475.048-.854-.165t-.331-.853v-1.777q0-1.09-.024-2.25 0-1.162-.024-2.251 0-1.09-.047-1.848 0-.403.284-.427.308-.047.663.095.735.237 1.303.734.593.498.995 1.161.427.64.664 1.422.26.758.332 1.54.07.782-.048 1.563-.118.758-.426 1.398-.285.616-.806 1.066-.497.427-1.208.545l-.237.047zm-2.82-.852q-.332-.166-.569-.474v-.332q.024-.237.024-.474 0-.26-.024-.497-.023-.237-.094-.356-.214-.687-.474-1.397l-.522-1.47-1.113-2.842v.118q0 .758-.024 1.493v1.469q-.023.758-.023 1.492v1.47l-.071.189-.072.19q-.07.118-.189.165-.142.047-.332-.071-.19-.119-.26-.26-.095-.167-.095-.332l-.071-1.28q-.048-.853-.048-1.682 0-.853-.023-1.682v-1.658q0-.853-.024-1.682 0-.214-.024-.332 0-.095-.023-.166v-.19q0-.26.118-.331.095-.071.38.047h.07q.119.048.214.095.118.048.19.095.189.095.236.19.095.142.095.284.023.118 0 .284 0 .142.047.26l.024.048q.284.734.545 1.469.284.734.545 1.492l1.066 2.962q0-.308-.024-1.09v-1.706q0-.9.024-1.634.023-.759.094-.948.048-.095.072-.166l.094-.19q.024-.094.19-.142.166 0 .284.119.095.047.047.07-.023.025 0 .096.048.094.095.284.048 1.09.071 2.18.048 1.066.071 2.132.048 1.066.071 2.132l.048 2.156q0 .379-.19.497-.094.048-.166.048-.047-.024-.26-.142m-7.392-11.49q.071-.238.26-.261.214-.048.427.047.214.095.38.284.189.166.236.356.048.237.119.71.094.474.19 1.09.094.616.189 1.327.118.71.237 1.445.118.735.213 1.445.118.711.19 1.303.094.593.142 1.043.07.426.094.616-.047.308-.331.26-.26-.047-.356-.308-.094-.402-.142-.876t-.047-.877q-.474-.118-1.019-.213-.521-.095-1.019-.166-.118 0-.118.119-.047.237-.095.592-.047.355-.142.521-.047.119-.19.308-.047.071-.118.119-.071.023-.118.07-.143.072-.332.024-.19-.07-.237-.166-.047-.094-.047-.213 0-.118.023-.213.048-.095.048-.166.047-.568.213-1.682t.403-2.393q.237-1.232.473-2.369.261-1.137.474-1.777m15.02 12.532q.593.379.759.995.19.616-.166 1.066-.522.663-1.777.687-1.232.048-2.938-.284t-3.696-.9q-1.99-.569-3.98-1.114-1.99-.568-3.814-.995-1.824-.426-3.198-.45-.924-.024-1.493.213-.568.237-.83.616-.236.38-.165.83.095.426.45.829.356.402.995.687.64.284 1.516.331-.118.308-.426.427-.284.118-.569.07-.876-.118-1.468-.52-.569-.38-.853-.9-.26-.498-.213-1.067.07-.568.426-1.042.379-.498 1.09-.806.71-.331 1.753-.355 1.516-.047 3.411.355 1.92.38 3.91.948 2.013.545 3.956 1.137t3.53.995q1.61.403 2.7.474 1.114.071 1.422-.45.095-.166.024-.403-.048-.213-.237-.403-.166-.213-.427-.355-.26-.166-.544-.19.118-.379.379-.473.26-.095.473.047M16.664 89.504q-.592-.38-.782-.972-.166-.616.19-1.09.497-.64 1.753-.663 1.255-.047 2.961.284 1.706.332 3.696.924l3.98 1.138q1.99.544 3.814.97 1.825.427 3.199.451.924.024 1.492-.213.569-.237.806-.592.26-.38.166-.83-.071-.45-.427-.853-.355-.402-.995-.687-.64-.284-1.516-.331.118-.308.426-.427.308-.118.569-.07.876.118 1.445.52.592.38.853.9.284.498.213 1.067-.047.568-.426 1.066-.356.474-1.066.805-.711.308-1.754.332-1.516.047-3.435-.332-1.895-.402-3.909-.97-1.99-.57-3.932-1.162-1.943-.616-3.554-1.019-1.587-.402-2.7-.45-1.09-.07-1.399.45-.094.166-.047.38.071.213.237.426.19.213.45.355.26.143.545.166-.119.38-.38.474-.26.095-.473-.047m22.578 5.993q.544.024.734.427.213.403.166.995-.048.569-.308 1.256-.237.663-.592 1.232-.356.568-.759.947-.379.38-.734.38t-.734-.38q-.356-.379-.664-.947-.308-.593-.52-1.28-.19-.687-.214-1.255 0-.593.213-.995.213-.403.71-.427.38-.024.759.332.379.355.569 1.113.26-.758.64-1.09.378-.355.734-.308M15.645 92.37q.545.024.735.427.213.402.166.995-.048.568-.308 1.255-.237.664-.593 1.232-.355.569-.758.948-.379.379-.734.379-.356 0-.735-.38-.355-.378-.663-.947-.308-.592-.521-1.279-.19-.687-.213-1.256 0-.592.213-.995.213-.402.71-.426.38-.024.759.332.379.355.568 1.113.26-.758.64-1.09.379-.355.734-.308m15.02 9.216q.522 0 .9-.308.403-.308.64-.83.26-.52.38-1.184.118-.687.118-1.421 0-.735-.142-1.469t-.403-1.398q-.237-.663-.616-1.184-.38-.545-.877-.877zm-8.434-4.928-.19-1.421q-.07-.71-.189-1.422-.094-.71-.213-1.421-.118-.734-.26-1.445-.119.19-.237.71-.119.498-.237 1.114l-.403 1.99-.19.971q-.07.427-.07.498.994.19 1.99.426m4.146 7.32q.166.048.119.167-.024.142-.166.118-.592-.118-1.493-.355-.876-.237-1.895-.521t-2.108-.522q-1.066-.26-2.038-.402-.947-.142-1.682-.095-.734.047-1.09.355-.094.071-.213 0-.095-.095.024-.19.379-.355 1.137-.402.782-.071 1.73.071.97.119 2.06.38 1.09.236 2.133.52 1.042.26 1.942.498.924.26 1.54.379m-.237-16.56q-.165-.047-.142-.165.024-.142.166-.095.592.119 1.469.356.9.236 1.919.52 1.042.261 2.108.522 1.09.26 2.038.403.948.118 1.682.094.758-.047 1.113-.355.095-.095.19 0 .118.095 0 .19-.403.355-1.16.402-.759.048-1.73-.07-.972-.12-2.061-.356-1.09-.26-2.133-.545-1.042-.284-1.942-.521-.9-.26-1.517-.38" style="font-size:23.6911px;font-family:&quot;Blustina Extras&quot;;-inkscape-font-specification:&quot;Blustina Extras&quot;;stroke-width:1.11052" aria-label="M" transform="translate(-12.02 -86.529)"/></svg>